<?xml version="1.0" standalone="no"?>
<!DOCTYPE svg PUBLIC "-//W3C//DTD SVG 1.1//EN" "http://www.w3.org/Graphics/SVG/1.1/DTD/svg11.dtd" >
<svg xmlns="http://www.w3.org/2000/svg" xmlns:xlink="http://www.w3.org/1999/xlink" version="1.1">
<metadata>
Created by FontForge 20201107 at Wed May 31 04:49:28 2017
 By Jimmy Wärting
(c) 2015-2017 Apple Inc. All rights reserved.
</metadata>
<defs>
<font id="SFProDisplay-HeavyItalic" horiz-adv-x="0" >
  <font-face 
    font-family="SF Pro Display"
    font-weight="800"
    font-style="italic"
    font-stretch="normal"
    units-per-em="2048"
    panose-1="0 0 9 0 0 0 0 0 0 0"
    ascent="1638"
    descent="-410"
    x-height="1089"
    cap-height="1443"
    bbox="-613 -535 2873 2206"
    underline-thickness="227"
    underline-position="-377"
    slope="-12"
    stemh="291"
    stemv="361"
    unicode-range="U+0020-FB02"
  />
<missing-glyph horiz-adv-x="2048" 
d="M-88 -494l35 165h1847l-35 -165h-1847zM9 -38l35 165h1847l-35 -165h-1847zM106 417l35 166h1847l-35 -166h-1847zM202 874l36 165h1847l-35 -165h-1848zM300 1330l35 164h1847l-35 -164h-1847zM396 1785l35 165h1848l-36 -165h-1847z" />
    <glyph glyph-name=".notdef" horiz-adv-x="2048" 
d="M-88 -494l35 165h1847l-35 -165h-1847zM9 -38l35 165h1847l-35 -165h-1847zM106 417l35 166h1847l-35 -166h-1847zM202 874l36 165h1847l-35 -165h-1848zM300 1330l35 164h1847l-35 -164h-1847zM396 1785l35 165h1848l-36 -165h-1847z" />
    <glyph glyph-name=".null" 
 />
    <glyph glyph-name="nonmarkingreturn" 
 />
    <glyph glyph-name="space" unicode=" " horiz-adv-x="431" 
 />
    <glyph glyph-name="A" unicode="A" horiz-adv-x="1446" 
d="M890 1121l-276 -540h324l-40 540h-8zM977 0l-24 317h-471l-163 -317h-388l804 1443h449l166 -1443h-373z" />
    <glyph glyph-name="Agrave" unicode="&#xc0;" horiz-adv-x="1446" 
d="M890 1121l-276 -540h324l-40 540h-8zM977 0l-24 317h-471l-163 -317h-388l804 1443h449l166 -1443h-373zM854 1556l-205 314h297l163 -314h-255z" />
    <glyph glyph-name="Aacute" unicode="&#xc1;" horiz-adv-x="1446" 
d="M890 1121l-276 -540h324l-40 540h-8zM977 0l-24 317h-471l-163 -317h-388l804 1443h449l166 -1443h-373zM1127 1556h-284l295 314h326z" />
    <glyph glyph-name="Adieresis" unicode="&#xc4;" horiz-adv-x="1446" 
d="M890 1121l-276 -540h324l-40 540h-8zM977 0l-24 317h-471l-163 -317h-388l804 1443h449l166 -1443h-373zM810 1573c-80 0 -140 59 -140 133s60 134 140 134c79 0 139 -60 139 -134s-60 -133 -139 -133zM1217 1573c-80 0 -140 59 -140 133s60 134 140 134
s140 -60 140 -134s-60 -133 -140 -133z" />
    <glyph glyph-name="Adieresismacron" unicode="&#x1de;" horiz-adv-x="1446" 
d="M890 1121l-276 -540h324l-40 540h-8zM977 0l-24 317h-471l-163 -317h-388l804 1443h449l166 -1443h-373zM798 1819c83 0 145 -62 145 -139s-62 -140 -145 -140c-84 0 -146 63 -146 140s62 139 146 139zM1459 2098l-35 -165h-721l35 165h721zM1221 1819
c83 0 145 -62 145 -139s-62 -140 -145 -140c-84 0 -146 63 -146 140s62 139 146 139z" />
    <glyph glyph-name="Aring" unicode="&#xc5;" horiz-adv-x="1446" 
d="M890 1121l-276 -540h324l-40 540h-8zM977 0l-24 317h-471l-163 -317h-388l804 1443h449l166 -1443h-373zM1043 1569c-125 0 -231 97 -231 223c0 127 106 227 233 227c125 0 230 -97 230 -223s-105 -227 -232 -227zM1043 1705c51 0 92 39 92 90s-41 90 -90 90
c-51 0 -92 -40 -92 -92c0 -50 41 -88 90 -88z" />
    <glyph glyph-name="Aringacute" unicode="&#x1fa;" horiz-adv-x="1446" 
d="M890 1121l-276 -540h324l-40 540h-8zM977 0l-24 317h-471l-163 -317h-388l804 1443h449l166 -1443h-373zM1015 1515c-118 0 -206 81 -206 198s88 201 208 201c118 0 207 -81 207 -197c-1 -117 -89 -202 -209 -202zM1015 1639c45 0 78 32 77 77c0 44 -32 75 -75 75
c-45 0 -77 -32 -77 -78c0 -43 32 -74 75 -74zM1101 2177h285l-195 -194h-245z" />
    <glyph glyph-name="Atilde" unicode="&#xc3;" horiz-adv-x="1446" 
d="M890 1121l-276 -540h324l-40 540h-8zM977 0l-24 317h-471l-163 -317h-388l804 1443h449l166 -1443h-373zM1150 1546c-142 0 -176 127 -255 127c-41 0 -75 -41 -92 -111h-184c35 174 144 284 278 284c145 0 177 -127 256 -127c42 0 73 40 92 115h184
c-37 -174 -147 -288 -279 -288z" />
    <glyph glyph-name="Abrevegrave" unicode="&#x1eb0;" horiz-adv-x="1446" 
d="M890 1121l-276 -540h324l-40 540h-8zM977 0l-24 317h-471l-163 -317h-388l804 1443h449l166 -1443h-373zM1187 1903h-238l-170 265h271zM667 1843h205c-1 -6 -1 -13 -1 -19c0 -66 48 -118 139 -118c100 0 175 63 196 137h216c-42 -164 -201 -305 -441 -305
c-205 0 -318 117 -318 254c0 17 1 34 4 51z" />
    <glyph glyph-name="Adotmacron" unicode="&#x1e0;" horiz-adv-x="1446" 
d="M890 1121l-276 -540h324l-40 540h-8zM977 0l-24 317h-471l-163 -317h-388l804 1443h449l166 -1443h-373zM1011 1546c-86 0 -149 64 -149 142c0 79 63 143 149 143c85 0 148 -64 148 -143c0 -78 -63 -142 -148 -142zM1459 2098l-35 -165h-721l35 165h721z" />
    <glyph glyph-name="Aringbelow" unicode="&#x1e00;" horiz-adv-x="1446" 
d="M890 1121l-276 -540h324l-40 540h-8zM977 0l-24 317h-471l-163 -317h-388l804 1443h449l166 -1443h-373zM583 -535c-125 0 -231 97 -231 223c0 127 106 227 233 227c125 0 230 -97 230 -223s-105 -227 -232 -227zM583 -399c51 0 92 39 92 90s-41 90 -90 90
c-51 0 -92 -40 -92 -92c0 -50 41 -88 90 -88z" />
    <glyph glyph-name="Acircumflex" unicode="&#xc2;" horiz-adv-x="1446" 
d="M890 1121l-276 -540h324l-40 540h-8zM977 0l-24 317h-471l-163 -317h-388l804 1443h449l166 -1443h-373zM1182 1869l192 -327h-247l-103 192h-7l-185 -192h-253l332 327h271z" />
    <glyph glyph-name="Acircumflexdotbelow" unicode="&#x1eac;" horiz-adv-x="1446" 
d="M890 1121l-276 -540h324l-40 540h-8zM977 0l-24 317h-471l-163 -317h-388l804 1443h449l166 -1443h-373zM1182 1869l192 -327h-247l-103 192h-7l-185 -192h-253l332 327h271zM572 -470c-92 0 -164 73 -164 161c0 89 72 162 164 162s165 -73 165 -162
c0 -88 -73 -161 -165 -161z" />
    <glyph glyph-name="Acircumflexacute" unicode="&#x1ea4;" horiz-adv-x="1446" 
d="M890 1121l-276 -540h324l-40 540h-8zM977 0l-24 317h-471l-163 -317h-388l804 1443h449l166 -1443h-373zM895 1832h273l198 -295h-243l-103 166h-8l-175 -166h-267zM1131 1903l251 265h300l-284 -265h-267z" />
    <glyph glyph-name="Acircumflextilde" unicode="&#x1eaa;" horiz-adv-x="1446" 
d="M890 1121l-276 -540h324l-40 540h-8zM977 0l-24 317h-471l-163 -317h-388l804 1443h449l166 -1443h-373zM1207 1894c-138 0 -179 122 -252 122c-41 0 -77 -38 -92 -103h-181c34 170 144 276 280 276c137 0 178 -122 251 -122c43 0 78 38 94 106h182
c-35 -169 -148 -279 -282 -279zM895 1829h272l199 -292h-243l-104 165h-7l-175 -165h-267z" />
    <glyph glyph-name="Acircumflexgrave" unicode="&#x1ea6;" horiz-adv-x="1446" 
d="M890 1121l-276 -540h324l-40 540h-8zM977 0l-24 317h-471l-163 -317h-388l804 1443h449l166 -1443h-373zM895 1832h273l198 -295h-243l-103 166h-8l-175 -166h-267zM1405 1903h-238l-170 265h271z" />
    <glyph glyph-name="Acircumflexhookabove" unicode="&#x1ea8;" horiz-adv-x="1446" 
d="M890 1121l-276 -540h324l-40 540h-8zM977 0l-24 317h-471l-163 -317h-388l804 1443h449l166 -1443h-373zM895 1832h273l198 -295h-243l-103 166h-8l-175 -166h-267zM1175 2001l33 148c38 16 98 25 150 25c135 0 221 -64 221 -168c0 -125 -96 -228 -228 -279l-75 120
c58 20 96 61 96 108c0 39 -37 64 -93 64c-35 0 -72 -7 -104 -18z" />
    <glyph glyph-name="Abreve" unicode="&#x102;" horiz-adv-x="1446" 
d="M890 1121l-276 -540h324l-40 540h-8zM977 0l-24 317h-471l-163 -317h-388l804 1443h449l166 -1443h-373zM671 1865h206c-3 -12 -4 -24 -4 -36c0 -76 48 -124 138 -124c103 0 178 64 201 160h214c-45 -185 -205 -328 -445 -328c-207 0 -317 117 -317 263c0 22 3 44 7 65z
" />
    <glyph glyph-name="Abreveacute" unicode="&#x1eae;" horiz-adv-x="1446" 
d="M890 1121l-276 -540h324l-40 540h-8zM977 0l-24 317h-471l-163 -317h-388l804 1443h449l166 -1443h-373zM908 1903l251 265h300l-284 -265h-267zM981 1538c-205 0 -318 117 -318 254c0 17 1 34 4 51h205c-1 -6 -1 -13 -1 -19c0 -66 48 -118 139 -118
c100 0 175 63 196 137h216c-42 -164 -201 -305 -441 -305z" />
    <glyph glyph-name="Abrevetilde" unicode="&#x1eb4;" horiz-adv-x="1446" 
d="M890 1121l-276 -540h324l-40 540h-8zM977 0l-24 317h-471l-163 -317h-388l804 1443h449l166 -1443h-373zM1209 1894c-138 0 -180 122 -252 122c-41 0 -78 -38 -92 -103h-182c35 170 145 276 281 276c137 0 178 -122 251 -122c43 0 78 38 94 106h182
c-35 -169 -148 -279 -282 -279zM981 1538c-205 0 -318 117 -318 254c0 17 1 34 4 51h205c-1 -6 -1 -13 -1 -19c0 -66 48 -118 139 -118c100 0 175 63 196 137h216c-42 -164 -201 -305 -441 -305z" />
    <glyph glyph-name="Abrevehookabove" unicode="&#x1eb2;" horiz-adv-x="1446" 
d="M890 1121l-276 -540h324l-40 540h-8zM977 0l-24 317h-471l-163 -317h-388l804 1443h449l166 -1443h-373zM863 2050l33 139c40 11 85 17 123 17c127 0 214 -66 214 -162c0 -103 -90 -195 -208 -230l-73 106c54 16 89 48 89 84c0 37 -33 59 -87 59c-36 0 -70 -5 -91 -13z
M981 1538c-205 0 -318 117 -318 254c0 17 1 34 4 51h205c-1 -6 -1 -13 -1 -19c0 -66 48 -118 139 -118c100 0 175 63 196 137h216c-42 -164 -201 -305 -441 -305z" />
    <glyph glyph-name="Abrevedotbelow" unicode="&#x1eb6;" horiz-adv-x="1446" 
d="M890 1121l-276 -540h324l-40 540h-8zM977 0l-24 317h-471l-163 -317h-388l804 1443h449l166 -1443h-373zM671 1865h206c-3 -12 -4 -24 -4 -36c0 -76 48 -124 138 -124c103 0 178 64 201 160h214c-45 -185 -205 -328 -445 -328c-207 0 -317 117 -317 263c0 22 3 44 7 65z
M572 -470c-92 0 -164 73 -164 161c0 89 72 162 164 162s165 -73 165 -162c0 -88 -73 -161 -165 -161z" />
    <glyph glyph-name="Ainvertedbreve" unicode="&#x202;" horiz-adv-x="1446" 
d="M890 1121l-276 -540h324l-40 540h-8zM977 0l-24 317h-471l-163 -317h-388l804 1443h449l166 -1443h-373zM1355 1537h-206c3 11 4 23 4 35c0 76 -48 125 -138 125c-103 0 -178 -65 -201 -160h-215c46 184 206 328 446 328c207 0 317 -117 317 -264c0 -22 -3 -44 -7 -64z
" />
    <glyph glyph-name="Acaron" unicode="&#x1cd;" horiz-adv-x="1446" 
d="M890 1121l-276 -540h324l-40 540h-8zM977 0l-24 317h-471l-163 -317h-388l804 1443h449l166 -1443h-373zM845 1542l-192 327h247l103 -192h8l184 192h253l-332 -327h-271z" />
    <glyph glyph-name="Adotaccent" unicode="&#x226;" horiz-adv-x="1446" 
d="M890 1121l-276 -540h324l-40 540h-8zM977 0l-24 317h-471l-163 -317h-388l804 1443h449l166 -1443h-373zM1026 1605c-92 0 -164 73 -164 161c0 89 72 162 164 162s165 -73 165 -162c0 -88 -73 -161 -165 -161z" />
    <glyph glyph-name="Adotbelow" unicode="&#x1ea0;" horiz-adv-x="1446" 
d="M890 1121l-276 -540h324l-40 540h-8zM977 0l-24 317h-471l-163 -317h-388l804 1443h449l166 -1443h-373zM572 -470c-92 0 -164 73 -164 161c0 89 72 162 164 162s165 -73 165 -162c0 -88 -73 -161 -165 -161z" />
    <glyph glyph-name="Ahookabove" unicode="&#x1ea2;" horiz-adv-x="1446" 
d="M890 1121l-276 -540h324l-40 540h-8zM977 0l-24 317h-471l-163 -317h-388l804 1443h449l166 -1443h-373zM828 1797l33 150c39 15 100 25 152 25c137 0 226 -68 226 -171c0 -116 -106 -236 -262 -295l-73 124c76 26 128 71 128 119c0 39 -38 63 -97 63
c-32 0 -78 -6 -107 -15z" />
    <glyph glyph-name="Adblgrave" unicode="&#x200;" horiz-adv-x="1446" 
d="M890 1121l-276 -540h324l-40 540h-8zM977 0l-24 317h-471l-163 -317h-388l804 1443h449l166 -1443h-373zM632 1556l-204 314h296l163 -314h-255zM1067 1556l-205 314h297l163 -314h-255z" />
    <glyph glyph-name="Amacron" unicode="&#x100;" horiz-adv-x="1446" 
d="M890 1121l-276 -540h324l-40 540h-8zM977 0l-24 317h-471l-163 -317h-388l804 1443h449l166 -1443h-373zM1391 1778l-35 -165h-721l35 165h721z" />
    <glyph glyph-name="Aogonek" unicode="&#x104;" horiz-adv-x="1446" 
d="M1178 -278l-37 -175c-37 -16 -94 -25 -161 -25c-141 0 -243 75 -243 194c0 106 105 219 240 281l-25 320h-471l-162 -317h-388l803 1443h449l164 -1424l-25 -8c-213 -61 -322 -143 -322 -225c0 -46 37 -74 105 -74c30 0 60 5 73 10zM889 1121l-276 -540h324l-40 540h-8z
" />
    <glyph glyph-name="B" unicode="B" horiz-adv-x="1366" 
d="M778 0h-745l307 1443h631c274 0 422 -133 422 -310c0 -191 -140 -335 -334 -374l-1 -7c154 -33 263 -144 263 -292c0 -268 -226 -460 -543 -460zM648 1205l-71 -334h208c144 0 241 82 241 195c0 85 -63 139 -184 139h-194zM448 260h246c158 0 259 87 259 217
c0 98 -70 157 -205 157h-221z" />
    <glyph glyph-name="Blinebelow" unicode="&#x1e06;" horiz-adv-x="1366" 
d="M778 0h-745l307 1443h631c274 0 422 -133 422 -310c0 -191 -140 -335 -334 -374l-1 -7c154 -33 263 -144 263 -292c0 -268 -226 -460 -543 -460zM648 1205l-71 -334h208c144 0 241 82 241 195c0 85 -63 139 -184 139h-194zM448 260h246c158 0 259 87 259 217
c0 98 -70 157 -205 157h-221zM868 -226l-35 -165h-721l35 165h721z" />
    <glyph glyph-name="Bdotbelow" unicode="&#x1e04;" horiz-adv-x="1366" 
d="M778 0h-745l307 1443h631c274 0 422 -133 422 -310c0 -191 -140 -335 -334 -374l-1 -7c154 -33 263 -144 263 -292c0 -268 -226 -460 -543 -460zM648 1205l-71 -334h208c144 0 241 82 241 195c0 85 -63 139 -184 139h-194zM448 260h246c158 0 259 87 259 217
c0 98 -70 157 -205 157h-221zM489 -470c-92 0 -164 73 -164 161c0 89 72 162 164 162s165 -73 165 -162c0 -88 -73 -161 -165 -161z" />
    <glyph glyph-name="Bdotaccent" unicode="&#x1e02;" horiz-adv-x="1366" 
d="M778 0h-745l307 1443h631c274 0 422 -133 422 -310c0 -191 -140 -335 -334 -374l-1 -7c154 -33 263 -144 263 -292c0 -268 -226 -460 -543 -460zM648 1205l-71 -334h208c144 0 241 82 241 195c0 85 -63 139 -184 139h-194zM448 260h246c158 0 259 87 259 217
c0 98 -70 157 -205 157h-221zM887 1605c-92 0 -164 73 -164 161c0 89 72 162 164 162s165 -73 165 -162c0 -88 -73 -161 -165 -161z" />
    <glyph glyph-name="C" unicode="C" horiz-adv-x="1507" 
d="M1186 889c1 6 0 12 0 37c-5 141 -117 242 -264 242c-239 0 -407 -234 -407 -561c0 -204 104 -329 274 -329c153 0 276 93 324 243h357c-57 -327 -339 -546 -704 -546c-382 0 -628 240 -628 611c0 529 324 882 818 882c340 0 586 -216 590 -523c1 -23 -1 -42 -3 -56h-357z
" />
    <glyph glyph-name="Cacute" unicode="&#x106;" horiz-adv-x="1507" 
d="M1186 889c1 6 0 12 0 37c-5 141 -117 242 -264 242c-239 0 -407 -234 -407 -561c0 -204 104 -329 274 -329c153 0 276 93 324 243h357c-57 -327 -339 -546 -704 -546c-382 0 -628 240 -628 611c0 529 324 882 818 882c340 0 586 -216 590 -523c1 -23 -1 -42 -3 -56h-357z
M1120 1556h-284l295 314h326z" />
    <glyph glyph-name="Ccaron" unicode="&#x10c;" horiz-adv-x="1507" 
d="M1186 889c1 6 0 12 0 37c-5 141 -117 242 -264 242c-239 0 -407 -234 -407 -561c0 -204 104 -329 274 -329c153 0 276 93 324 243h357c-57 -327 -339 -546 -704 -546c-382 0 -628 240 -628 611c0 529 324 882 818 882c340 0 586 -216 590 -523c1 -23 -1 -42 -3 -56h-357z
M838 1542l-192 327h247l103 -192h8l184 192h253l-332 -327h-271z" />
    <glyph glyph-name="Ccircumflex" unicode="&#x108;" horiz-adv-x="1507" 
d="M1186 889c1 6 0 12 0 37c-5 141 -117 242 -264 242c-239 0 -407 -234 -407 -561c0 -204 104 -329 274 -329c153 0 276 93 324 243h357c-57 -327 -339 -546 -704 -546c-382 0 -628 240 -628 611c0 529 324 882 818 882c340 0 586 -216 590 -523c1 -23 -1 -42 -3 -56h-357z
M1175 1869l192 -327h-247l-103 192h-7l-185 -192h-253l332 327h271z" />
    <glyph glyph-name="Cdotaccent" unicode="&#x10a;" horiz-adv-x="1507" 
d="M1186 889c1 6 0 12 0 37c-5 141 -117 242 -264 242c-239 0 -407 -234 -407 -561c0 -204 104 -329 274 -329c153 0 276 93 324 243h357c-57 -327 -339 -546 -704 -546c-382 0 -628 240 -628 611c0 529 324 882 818 882c340 0 586 -216 590 -523c1 -23 -1 -42 -3 -56h-357z
M1019 1605c-92 0 -164 73 -164 161c0 89 72 162 164 162s165 -73 165 -162c0 -88 -73 -161 -165 -161z" />
    <glyph glyph-name="Ccedilla" unicode="&#xc7;" horiz-adv-x="1507" 
d="M1543 889h-357c1 6 0 12 0 37c-5 141 -117 242 -264 242c-239 0 -407 -234 -407 -561c0 -204 104 -329 274 -329c153 0 276 93 324 243h357c-53 -306 -304 -518 -636 -543l-50 -69c97 -9 150 -62 150 -148c0 -132 -129 -227 -309 -227c-59 0 -118 7 -147 18l32 150
c30 -9 75 -15 117 -15c75 0 115 18 115 52c0 33 -32 45 -121 45h-58l26 113l63 86c-316 43 -514 270 -514 603c0 529 324 882 818 882c340 0 586 -216 590 -523c1 -23 -1 -42 -3 -56z" />
    <glyph glyph-name="Ccedillaacute" unicode="&#x1e08;" horiz-adv-x="1507" 
d="M1457 1870l-337 -314h-284l295 314h326zM1543 889h-357c1 6 0 12 0 37c-5 141 -117 242 -264 242c-239 0 -407 -234 -407 -561c0 -204 104 -329 274 -329c153 0 276 93 324 243h357c-53 -306 -304 -518 -636 -543l-50 -69c97 -9 150 -62 150 -148
c0 -132 -129 -227 -309 -227c-59 0 -118 7 -147 18l32 150c30 -9 75 -15 117 -15c75 0 115 18 115 52c0 33 -32 45 -121 45h-58l26 113l63 86c-316 43 -514 270 -514 603c0 529 324 882 818 882c340 0 586 -216 590 -523c1 -23 -1 -42 -3 -56z" />
    <glyph glyph-name="D" unicode="D" horiz-adv-x="1473" 
d="M340 1443h557c346 0 582 -207 582 -560c0 -516 -307 -883 -764 -883h-682zM647 1149l-181 -855h199c255 0 437 210 437 543c0 193 -104 312 -289 312h-166z" />
    <glyph glyph-name="Ddotaccent" unicode="&#x1e0a;" horiz-adv-x="1473" 
d="M340 1443h557c346 0 582 -207 582 -560c0 -516 -307 -883 -764 -883h-682zM647 1149l-181 -855h199c255 0 437 210 437 543c0 193 -104 312 -289 312h-166zM888 1605c-92 0 -164 73 -164 161c0 89 72 162 164 162s165 -73 165 -162c0 -88 -73 -161 -165 -161z" />
    <glyph glyph-name="Dcircumflexbelow" unicode="&#x1e12;" horiz-adv-x="1473" 
d="M340 1443h557c346 0 582 -207 582 -560c0 -516 -307 -883 -764 -883h-682zM647 1149l-181 -855h199c255 0 437 210 437 543c0 193 -104 312 -289 312h-166zM686 -165l192 -327h-247l-103 192h-8l-184 -192h-253l331 327h272z" />
    <glyph glyph-name="Dcommaaccent" unicode="&#x1e10;" horiz-adv-x="1473" 
d="M340 1443h557c346 0 582 -207 582 -560c0 -516 -307 -883 -764 -883h-682zM647 1149l-181 -855h199c255 0 437 210 437 543c0 193 -104 312 -289 312h-166zM425 -475h-267l211 330h313z" />
    <glyph glyph-name="Dlinebelow" unicode="&#x1e0e;" horiz-adv-x="1473" 
d="M340 1443h557c346 0 582 -207 582 -560c0 -516 -307 -883 -764 -883h-682zM647 1149l-181 -855h199c255 0 437 210 437 543c0 193 -104 312 -289 312h-166zM901 -226l-35 -165h-721l35 165h721z" />
    <glyph glyph-name="Dcaron" unicode="&#x10e;" horiz-adv-x="1473" 
d="M340 1443h557c346 0 582 -207 582 -560c0 -516 -307 -883 -764 -883h-682zM647 1149l-181 -855h199c255 0 437 210 437 543c0 193 -104 312 -289 312h-166zM707 1542l-192 327h247l103 -192h8l184 192h253l-332 -327h-271z" />
    <glyph glyph-name="Ddotbelow" unicode="&#x1e0c;" horiz-adv-x="1473" 
d="M340 1443h557c346 0 582 -207 582 -560c0 -516 -307 -883 -764 -883h-682zM647 1149l-181 -855h199c255 0 437 210 437 543c0 193 -104 312 -289 312h-166zM522 -470c-92 0 -164 73 -164 161c0 89 72 162 164 162s165 -73 165 -162c0 -88 -73 -161 -165 -161z" />
    <glyph glyph-name="Dcroat" unicode="&#x110;" horiz-adv-x="1473" 
d="M466 294h199c255 0 437 210 437 543c0 193 -104 312 -289 312h-166l-58 -274h222l-63 -295h-221zM340 1443h557c346 0 582 -207 582 -560c0 -516 -307 -883 -764 -883h-682l123 580h-116l63 295h116z" />
    <glyph glyph-name="E" unicode="E" horiz-adv-x="1191" 
d="M1084 295l-62 -295h-989l307 1443h988l-63 -295h-621l-61 -288h584l-58 -270h-584l-63 -295h622z" />
    <glyph glyph-name="Egrave" unicode="&#xc8;" horiz-adv-x="1191" 
d="M1084 295l-62 -295h-989l307 1443h988l-63 -295h-621l-61 -288h584l-58 -270h-584l-63 -295h622zM709 1556l-205 314h297l163 -314h-255z" />
    <glyph glyph-name="Edblgrave" unicode="&#x204;" horiz-adv-x="1191" 
d="M1084 295l-62 -295h-989l307 1443h988l-63 -295h-621l-61 -288h584l-58 -270h-584l-63 -295h622zM487 1556l-204 314h296l163 -314h-255zM922 1556l-205 314h297l163 -314h-255z" />
    <glyph glyph-name="Eacute" unicode="&#xc9;" horiz-adv-x="1191" 
d="M1084 295l-62 -295h-989l307 1443h988l-63 -295h-621l-61 -288h584l-58 -270h-584l-63 -295h622zM982 1556h-284l295 314h326z" />
    <glyph glyph-name="Ecircumflex" unicode="&#xca;" horiz-adv-x="1191" 
d="M1084 295l-62 -295h-989l307 1443h988l-63 -295h-621l-61 -288h584l-58 -270h-584l-63 -295h622zM1037 1869l192 -327h-247l-103 192h-7l-185 -192h-253l332 327h271z" />
    <glyph glyph-name="Ecircumflexhookabove" unicode="&#x1ec2;" horiz-adv-x="1191" 
d="M1084 295l-62 -295h-989l307 1443h988l-63 -295h-621l-61 -288h584l-58 -270h-584l-63 -295h622zM750 1832h273l198 -295h-243l-103 166h-8l-175 -166h-267zM1030 2001l33 148c38 16 98 25 150 25c135 0 221 -64 221 -168c0 -125 -96 -228 -228 -279l-75 120
c58 20 96 61 96 108c0 39 -37 64 -93 64c-35 0 -72 -7 -104 -18z" />
    <glyph glyph-name="Ecircumflexgrave" unicode="&#x1ec0;" horiz-adv-x="1191" 
d="M1084 295l-62 -295h-989l307 1443h988l-63 -295h-621l-61 -288h584l-58 -270h-584l-63 -295h622zM750 1832h273l198 -295h-243l-103 166h-8l-175 -166h-267zM1260 1903h-238l-170 265h271z" />
    <glyph glyph-name="Ecircumflextilde" unicode="&#x1ec4;" horiz-adv-x="1191" 
d="M1084 295l-62 -295h-989l307 1443h988l-63 -295h-621l-61 -288h584l-58 -270h-584l-63 -295h622zM1062 1894c-138 0 -179 122 -252 122c-41 0 -77 -38 -92 -103h-181c34 170 144 276 280 276c137 0 178 -122 251 -122c43 0 78 38 94 106h182
c-35 -169 -148 -279 -282 -279zM750 1829h272l199 -292h-243l-104 165h-7l-175 -165h-267z" />
    <glyph glyph-name="Ecircumflexdotbelow" unicode="&#x1ec6;" horiz-adv-x="1191" 
d="M1084 295l-62 -295h-989l307 1443h988l-63 -295h-621l-61 -288h584l-58 -270h-584l-63 -295h622zM1037 1869l192 -327h-247l-103 192h-7l-185 -192h-253l332 327h271zM482 -470c-92 0 -164 73 -164 161c0 89 72 162 164 162s165 -73 165 -162c0 -88 -73 -161 -165 -161z
" />
    <glyph glyph-name="Ecircumflexacute" unicode="&#x1ebe;" horiz-adv-x="1191" 
d="M1084 295l-62 -295h-989l307 1443h988l-63 -295h-621l-61 -288h584l-58 -270h-584l-63 -295h622zM750 1832h273l198 -295h-243l-103 166h-8l-175 -166h-267zM986 1903l251 265h300l-284 -265h-267z" />
    <glyph glyph-name="Edieresis" unicode="&#xcb;" horiz-adv-x="1191" 
d="M1084 295l-62 -295h-989l307 1443h988l-63 -295h-621l-61 -288h584l-58 -270h-584l-63 -295h622zM665 1573c-80 0 -140 59 -140 133s60 134 140 134c79 0 139 -60 139 -134s-60 -133 -139 -133zM1072 1573c-80 0 -140 59 -140 133s60 134 140 134s140 -60 140 -134
s-60 -133 -140 -133z" />
    <glyph glyph-name="Edotbelow" unicode="&#x1eb8;" horiz-adv-x="1191" 
d="M1084 295l-62 -295h-989l307 1443h988l-63 -295h-621l-61 -288h584l-58 -270h-584l-63 -295h622zM482 -470c-92 0 -164 73 -164 161c0 89 72 162 164 162s165 -73 165 -162c0 -88 -73 -161 -165 -161z" />
    <glyph glyph-name="Einvertedbreve" unicode="&#x206;" horiz-adv-x="1191" 
d="M1084 295l-62 -295h-989l307 1443h988l-63 -295h-621l-61 -288h584l-58 -270h-584l-63 -295h622zM1210 1537h-206c3 11 4 23 4 35c0 76 -48 125 -138 125c-103 0 -178 -65 -201 -160h-215c46 184 206 328 446 328c207 0 317 -117 317 -264c0 -22 -3 -44 -7 -64z" />
    <glyph glyph-name="Ehookabove" unicode="&#x1eba;" horiz-adv-x="1191" 
d="M1084 295l-62 -295h-989l307 1443h988l-63 -295h-621l-61 -288h584l-58 -270h-584l-63 -295h622zM683 1797l33 150c39 15 100 25 152 25c137 0 226 -68 226 -171c0 -116 -106 -236 -262 -295l-73 124c76 26 128 71 128 119c0 39 -38 63 -97 63c-32 0 -78 -6 -107 -15z
" />
    <glyph glyph-name="Ecaron" unicode="&#x11a;" horiz-adv-x="1191" 
d="M1084 295l-62 -295h-989l307 1443h988l-63 -295h-621l-61 -288h584l-58 -270h-584l-63 -295h622zM700 1542l-192 327h247l103 -192h8l184 192h253l-332 -327h-271z" />
    <glyph glyph-name="Emacron" unicode="&#x112;" horiz-adv-x="1191" 
d="M1084 295l-62 -295h-989l307 1443h988l-63 -295h-621l-61 -288h584l-58 -270h-584l-63 -295h622zM1246 1778l-35 -165h-721l35 165h721z" />
    <glyph glyph-name="Emacrongrave" unicode="&#x1e14;" horiz-adv-x="1191" 
d="M1084 295l-62 -295h-989l307 1443h988l-63 -295h-621l-61 -288h584l-58 -270h-584l-63 -295h622zM1208 1603h-721l35 165h721zM1040 1903h-238l-171 265h271z" />
    <glyph glyph-name="Emacronacute" unicode="&#x1e16;" horiz-adv-x="1191" 
d="M1084 295l-62 -295h-989l307 1443h988l-63 -295h-621l-61 -288h584l-58 -270h-584l-63 -295h622zM1208 1603h-721l35 165h721zM771 1903l250 265h300l-283 -265h-267z" />
    <glyph glyph-name="Etilde" unicode="&#x1ebc;" horiz-adv-x="1191" 
d="M1084 295l-62 -295h-989l307 1443h988l-63 -295h-621l-61 -288h584l-58 -270h-584l-63 -295h622zM1005 1546c-142 0 -176 127 -255 127c-41 0 -75 -41 -92 -111h-184c35 174 144 284 278 284c145 0 177 -127 256 -127c42 0 73 40 92 115h184
c-37 -174 -147 -288 -279 -288z" />
    <glyph glyph-name="Ecircumflexbelow" unicode="&#x1e18;" horiz-adv-x="1191" 
d="M1084 295l-62 -295h-989l307 1443h988l-63 -295h-621l-61 -288h584l-58 -270h-584l-63 -295h622zM646 -165l192 -327h-247l-103 192h-8l-184 -192h-253l331 327h272z" />
    <glyph glyph-name="Ebreve" unicode="&#x114;" horiz-adv-x="1191" 
d="M1084 295l-62 -295h-989l307 1443h988l-63 -295h-621l-61 -288h584l-58 -270h-584l-63 -295h622zM526 1865h206c-3 -12 -4 -24 -4 -36c0 -76 48 -124 138 -124c103 0 178 64 201 160h214c-45 -185 -205 -328 -445 -328c-207 0 -317 117 -317 263c0 22 3 44 7 65z" />
    <glyph glyph-name="Etildebelow" unicode="&#x1e1a;" horiz-adv-x="1191" 
d="M1084 295l-62 -295h-989l307 1443h988l-63 -295h-621l-61 -288h584l-58 -270h-584l-63 -295h622zM620 -460c-142 0 -176 127 -255 127c-41 0 -75 -41 -92 -111h-184c35 174 144 284 278 284c145 0 177 -127 256 -127c42 0 73 40 92 115h184c-37 -174 -147 -288 -279 -288
z" />
    <glyph glyph-name="Edotaccent" unicode="&#x116;" horiz-adv-x="1191" 
d="M1084 295l-62 -295h-989l307 1443h988l-63 -295h-621l-61 -288h584l-58 -270h-584l-63 -295h622zM882 1605c-92 0 -164 73 -164 161c0 89 72 162 164 162s165 -73 165 -162c0 -88 -73 -161 -165 -161z" />
    <glyph glyph-name="Ecedilla" unicode="&#x228;" horiz-adv-x="1191" 
d="M1265 1148h-621l-61 -288h584l-58 -270h-584l-63 -295h622l-62 -295h-389l-66 -91c97 -9 150 -62 150 -148c0 -132 -129 -227 -309 -227c-59 0 -118 7 -147 18l32 150c30 -9 75 -15 117 -15c75 0 115 18 115 52c0 33 -32 45 -121 45h-58l26 113l76 103h-415l307 1443h988
z" />
    <glyph glyph-name="Ecedillabreve" unicode="&#x1e1c;" horiz-adv-x="1191" 
d="M1067 1865h214c-45 -185 -205 -328 -445 -328c-207 0 -317 117 -317 263c0 22 3 44 7 65h206c-3 -12 -4 -24 -4 -36c0 -76 48 -124 138 -124c103 0 178 64 201 160zM1265 1148h-621l-61 -288h584l-58 -270h-584l-63 -295h622l-62 -295h-389l-66 -91
c97 -9 150 -62 150 -148c0 -132 -129 -227 -309 -227c-59 0 -118 7 -147 18l32 150c30 -9 75 -15 117 -15c75 0 115 18 115 52c0 33 -32 45 -121 45h-58l26 113l76 103h-415l307 1443h988z" />
    <glyph glyph-name="Eogonek" unicode="&#x118;" horiz-adv-x="1191" 
d="M33 0l307 1443h988l-63 -295h-621l-61 -288h584l-58 -270h-584l-63 -295h622l-61 -292l-44 -12c-142 -48 -237 -130 -237 -205c0 -47 38 -74 104 -74c27 0 60 4 74 10l-37 -175c-37 -16 -95 -25 -161 -25c-146 0 -243 78 -243 194c0 104 93 219 228 280l1 4h-675z" />
    <glyph glyph-name="F" unicode="F" horiz-adv-x="1149" 
d="M414 0h-381l307 1443h981l-63 -295h-600l-70 -329h544l-61 -281h-543z" />
    <glyph glyph-name="Fdotaccent" unicode="&#x1e1e;" horiz-adv-x="1149" 
d="M414 0h-381l307 1443h981l-63 -295h-600l-70 -329h544l-61 -281h-543zM899 1605c-92 0 -164 73 -164 161c0 89 72 162 164 162s165 -73 165 -162c0 -88 -73 -161 -165 -161z" />
    <glyph glyph-name="G" unicode="G" horiz-adv-x="1519" 
d="M1525 777l-31 -170c-73 -408 -334 -632 -723 -632c-383 0 -633 249 -633 623c0 480 311 870 799 870c362 0 608 -224 610 -484c0 -9 -1 -21 -2 -28h-353c-9 127 -111 217 -264 217c-262 0 -417 -259 -417 -560c0 -209 105 -343 298 -343c155 0 278 101 311 242l3 13h-273
l54 252h621z" />
    <glyph glyph-name="Gacute" unicode="&#x1f4;" horiz-adv-x="1519" 
d="M1525 777l-31 -170c-73 -408 -334 -632 -723 -632c-383 0 -633 249 -633 623c0 480 311 870 799 870c362 0 608 -224 610 -484c0 -9 -1 -21 -2 -28h-353c-9 127 -111 217 -264 217c-262 0 -417 -259 -417 -560c0 -209 105 -343 298 -343c155 0 278 101 311 242l3 13h-273
l54 252h621zM1099 1556h-284l295 314h326z" />
    <glyph glyph-name="Gcaron" unicode="&#x1e6;" horiz-adv-x="1519" 
d="M1525 777l-31 -170c-73 -408 -334 -632 -723 -632c-383 0 -633 249 -633 623c0 480 311 870 799 870c362 0 608 -224 610 -484c0 -9 -1 -21 -2 -28h-353c-9 127 -111 217 -264 217c-262 0 -417 -259 -417 -560c0 -209 105 -343 298 -343c155 0 278 101 311 242l3 13h-273
l54 252h621zM817 1542l-192 327h247l103 -192h8l184 192h253l-332 -327h-271z" />
    <glyph glyph-name="Gcircumflex" unicode="&#x11c;" horiz-adv-x="1519" 
d="M1525 777l-31 -170c-73 -408 -334 -632 -723 -632c-383 0 -633 249 -633 623c0 480 311 870 799 870c362 0 608 -224 610 -484c0 -9 -1 -21 -2 -28h-353c-9 127 -111 217 -264 217c-262 0 -417 -259 -417 -560c0 -209 105 -343 298 -343c155 0 278 101 311 242l3 13h-273
l54 252h621zM1154 1869l192 -327h-247l-103 192h-7l-185 -192h-253l332 327h271z" />
    <glyph glyph-name="Gbreve" unicode="&#x11e;" horiz-adv-x="1519" 
d="M1525 777l-31 -170c-73 -408 -334 -632 -723 -632c-383 0 -633 249 -633 623c0 480 311 870 799 870c362 0 608 -224 610 -484c0 -9 -1 -21 -2 -28h-353c-9 127 -111 217 -264 217c-262 0 -417 -259 -417 -560c0 -209 105 -343 298 -343c155 0 278 101 311 242l3 13h-273
l54 252h621zM643 1865h206c-3 -12 -4 -24 -4 -36c0 -76 48 -124 138 -124c103 0 178 64 201 160h214c-45 -185 -205 -328 -445 -328c-207 0 -317 117 -317 263c0 22 3 44 7 65z" />
    <glyph glyph-name="Gmacron" unicode="&#x1e20;" horiz-adv-x="1519" 
d="M1525 777l-31 -170c-73 -408 -334 -632 -723 -632c-383 0 -633 249 -633 623c0 480 311 870 799 870c362 0 608 -224 610 -484c0 -9 -1 -21 -2 -28h-353c-9 127 -111 217 -264 217c-262 0 -417 -259 -417 -560c0 -209 105 -343 298 -343c155 0 278 101 311 242l3 13h-273
l54 252h621zM1363 1778l-35 -165h-721l35 165h721z" />
    <glyph glyph-name="Gdotaccent" unicode="&#x120;" horiz-adv-x="1519" 
d="M1525 777l-31 -170c-73 -408 -334 -632 -723 -632c-383 0 -633 249 -633 623c0 480 311 870 799 870c362 0 608 -224 610 -484c0 -9 -1 -21 -2 -28h-353c-9 127 -111 217 -264 217c-262 0 -417 -259 -417 -560c0 -209 105 -343 298 -343c155 0 278 101 311 242l3 13h-273
l54 252h621zM998 1605c-92 0 -164 73 -164 161c0 89 72 162 164 162s165 -73 165 -162c0 -88 -73 -161 -165 -161z" />
    <glyph glyph-name="Gcommaaccent" unicode="&#x122;" horiz-adv-x="1519" 
d="M1525 777l-31 -170c-73 -408 -334 -632 -723 -632c-383 0 -633 249 -633 623c0 480 311 870 799 870c362 0 608 -224 610 -484c0 -9 -1 -21 -2 -28h-353c-9 127 -111 217 -264 217c-262 0 -417 -259 -417 -560c0 -209 105 -343 298 -343c155 0 278 101 311 242l3 13h-273
l54 252h621zM635 -475h-267l211 330h313z" />
    <glyph glyph-name="H" unicode="H" horiz-adv-x="1540" 
d="M1341 0h-375l125 584h-559l-124 -584h-375l307 1443h375l-122 -568h559l121 568h375z" />
    <glyph glyph-name="Hdieresis" unicode="&#x1e26;" horiz-adv-x="1540" 
d="M1341 0h-375l125 584h-559l-124 -584h-375l307 1443h375l-122 -568h559l121 568h375zM844 1573c-80 0 -140 59 -140 133s60 134 140 134c79 0 139 -60 139 -134s-60 -133 -139 -133zM1251 1573c-80 0 -140 59 -140 133s60 134 140 134s140 -60 140 -134
s-60 -133 -140 -133z" />
    <glyph glyph-name="Hcaron" unicode="&#x21e;" horiz-adv-x="1540" 
d="M1341 0h-375l125 584h-559l-124 -584h-375l307 1443h375l-122 -568h559l121 568h375zM879 1542l-192 327h247l103 -192h8l184 192h253l-332 -327h-271z" />
    <glyph glyph-name="Hcircumflex" unicode="&#x124;" horiz-adv-x="1540" 
d="M1341 0h-375l125 584h-559l-124 -584h-375l307 1443h375l-122 -568h559l121 568h375zM1216 1869l192 -327h-247l-103 192h-7l-185 -192h-253l332 327h271z" />
    <glyph glyph-name="Hdotbelow" unicode="&#x1e24;" horiz-adv-x="1540" 
d="M1341 0h-375l125 584h-559l-124 -584h-375l307 1443h375l-122 -568h559l121 568h375zM627 -470c-92 0 -164 73 -164 161c0 89 72 162 164 162s165 -73 165 -162c0 -88 -73 -161 -165 -161z" />
    <glyph glyph-name="Hdotaccent" unicode="&#x1e22;" horiz-adv-x="1540" 
d="M1341 0h-375l125 584h-559l-124 -584h-375l307 1443h375l-122 -568h559l121 568h375zM1060 1605c-92 0 -164 73 -164 161c0 89 72 162 164 162s165 -73 165 -162c0 -88 -73 -161 -165 -161z" />
    <glyph glyph-name="Hbrevebelow" unicode="&#x1e2a;" horiz-adv-x="1540" 
d="M1341 0h-375l125 584h-559l-124 -584h-375l307 1443h375l-122 -568h559l121 568h375zM285 -145h205c-2 -12 -4 -24 -4 -36c0 -76 48 -124 138 -124c104 0 178 64 201 160h215c-46 -185 -205 -328 -446 -328c-207 0 -316 117 -316 263c0 22 2 44 7 65z" />
    <glyph glyph-name="Hcedilla" unicode="&#x1e28;" horiz-adv-x="1540" 
d="M1273 1443h375l-307 -1443h-375l125 584h-559l-124 -584l-66 -91c97 -9 150 -62 150 -148c0 -132 -129 -227 -309 -227c-59 0 -118 7 -147 18l32 150c30 -9 75 -15 117 -15c75 0 115 18 115 52c0 33 -32 45 -121 45h-58l26 113l76 103h-190l307 1443h375l-122 -568h559z
" />
    <glyph glyph-name="Hbar" unicode="&#x126;" horiz-adv-x="1540" 
d="M1152 875l36 168h-559l-36 -168h559zM1722 1286l-52 -243h-107l-222 -1043h-375l125 584h-559l-124 -584h-375l222 1043h-109l52 243h109l33 157h375l-34 -157h559l33 157h375l-33 -157h107z" />
    <glyph glyph-name="I" unicode="I" horiz-adv-x="598" 
d="M400 0h-367l307 1443h367z" />
    <glyph glyph-name="Idotaccent" unicode="&#x130;" horiz-adv-x="598" 
d="M400 0h-367l307 1443h367zM591 1605c-92 0 -164 73 -164 161c0 89 72 162 164 162s165 -73 165 -162c0 -88 -73 -161 -165 -161z" />
    <glyph glyph-name="Igrave" unicode="&#xcc;" horiz-adv-x="598" 
d="M400 0h-367l307 1443h367zM419 1556l-205 314h297l163 -314h-255z" />
    <glyph glyph-name="Idblgrave" unicode="&#x208;" horiz-adv-x="598" 
d="M400 0h-367l307 1443h367zM197 1556l-204 314h296l163 -314h-255zM632 1556l-205 314h297l163 -314h-255z" />
    <glyph glyph-name="Iacute" unicode="&#xcd;" horiz-adv-x="598" 
d="M400 0h-367l307 1443h367zM692 1556h-284l295 314h326z" />
    <glyph glyph-name="Icircumflex" unicode="&#xce;" horiz-adv-x="598" 
d="M400 0h-367l307 1443h367zM747 1869l192 -327h-247l-103 192h-7l-185 -192h-253l332 327h271z" />
    <glyph glyph-name="Icaron" unicode="&#x1cf;" horiz-adv-x="598" 
d="M400 0h-367l307 1443h367zM410 1542l-192 327h247l103 -192h8l184 192h253l-332 -327h-271z" />
    <glyph glyph-name="Idieresis" unicode="&#xcf;" horiz-adv-x="598" 
d="M400 0h-367l307 1443h367zM375 1573c-80 0 -140 59 -140 133s60 134 140 134c79 0 139 -60 139 -134s-60 -133 -139 -133zM782 1573c-80 0 -140 59 -140 133s60 134 140 134s140 -60 140 -134s-60 -133 -140 -133z" />
    <glyph glyph-name="Idieresisacute" unicode="&#x1e2e;" horiz-adv-x="598" 
d="M400 0h-367l307 1443h367zM474 1903l251 265h300l-284 -265h-267zM375 1558c-79 0 -139 59 -139 133c0 73 60 132 139 132s138 -59 138 -132c0 -74 -59 -133 -138 -133zM778 1558c-79 0 -139 59 -139 133c0 73 60 132 139 132s138 -59 138 -132c0 -74 -59 -133 -138 -133
z" />
    <glyph glyph-name="Ibreve" unicode="&#x12c;" horiz-adv-x="598" 
d="M400 0h-367l307 1443h367zM236 1865h206c-3 -12 -4 -24 -4 -36c0 -76 48 -124 138 -124c103 0 178 64 201 160h214c-45 -185 -205 -328 -445 -328c-207 0 -317 117 -317 263c0 22 3 44 7 65z" />
    <glyph glyph-name="Idotbelow" unicode="&#x1eca;" horiz-adv-x="598" 
d="M400 0h-367l307 1443h367zM150 -470c-92 0 -164 73 -164 161c0 89 72 162 164 162s165 -73 165 -162c0 -88 -73 -161 -165 -161z" />
    <glyph glyph-name="Iinvertedbreve" unicode="&#x20a;" horiz-adv-x="598" 
d="M400 0h-367l307 1443h367zM920 1537h-206c3 11 4 23 4 35c0 76 -48 125 -138 125c-103 0 -178 -65 -201 -160h-215c46 184 206 328 446 328c207 0 317 -117 317 -264c0 -22 -3 -44 -7 -64z" />
    <glyph glyph-name="Imacron" unicode="&#x12a;" horiz-adv-x="598" 
d="M400 0h-367l307 1443h367zM956 1778l-35 -165h-721l35 165h721z" />
    <glyph glyph-name="Itildebelow" unicode="&#x1e2c;" horiz-adv-x="598" 
d="M400 0h-367l307 1443h367zM288 -460c-142 0 -176 127 -255 127c-41 0 -75 -41 -92 -111h-184c35 174 144 284 278 284c145 0 177 -127 256 -127c42 0 73 40 92 115h184c-37 -174 -147 -288 -279 -288z" />
    <glyph glyph-name="Ihookabove" unicode="&#x1ec8;" horiz-adv-x="598" 
d="M400 0h-367l307 1443h367zM393 1797l33 150c39 15 100 25 152 25c137 0 226 -68 226 -171c0 -116 -106 -236 -262 -295l-73 124c76 26 128 71 128 119c0 39 -38 63 -97 63c-32 0 -78 -6 -107 -15z" />
    <glyph glyph-name="Itilde" unicode="&#x128;" horiz-adv-x="598" 
d="M400 0h-367l307 1443h367zM715 1546c-142 0 -176 127 -255 127c-41 0 -75 -41 -92 -111h-184c35 174 144 284 278 284c145 0 177 -127 256 -127c42 0 73 40 92 115h184c-37 -174 -147 -288 -279 -288z" />
    <glyph glyph-name="Iogonek" unicode="&#x12e;" horiz-adv-x="598" 
d="M147 -478c-144 0 -243 79 -243 195c0 90 64 188 177 276l-49 3l308 1447h367l-306 -1439l-36 -13c-117 -49 -197 -132 -197 -203c0 -48 39 -76 104 -76c28 0 60 4 74 10l-37 -175c-37 -16 -95 -25 -162 -25z" />
    <glyph glyph-name="I.1" horiz-adv-x="1042" 
d="M1136 1161h-268l-187 -879h268l-60 -282h-268h-367h-268l60 282h268l187 879h-268l60 282h268h367h268z" />
    <glyph glyph-name="Idotaccent.1" horiz-adv-x="1042" 
d="M812 1605c-92 0 -164 73 -164 161c0 89 72 162 164 162s165 -73 165 -162c0 -88 -73 -161 -165 -161zM1136 1161h-268l-187 -879h268l-60 -282h-268h-367h-268l60 282h268l187 879h-268l60 282h268h367h268z" />
    <glyph glyph-name="Igrave.1" horiz-adv-x="1042" 
d="M895 1556h-255l-205 314h297zM1136 1161h-268l-187 -879h268l-60 -282h-268h-367h-268l60 282h268l187 879h-268l60 282h268h367h268z" />
    <glyph glyph-name="Idblgrave.1" horiz-adv-x="1042" 
d="M1108 1556h-255l-205 314h297zM673 1556h-255l-204 314h296zM1136 1161h-268l-187 -879h268l-60 -282h-268h-367h-268l60 282h268l187 879h-268l60 282h268h367h268z" />
    <glyph glyph-name="Iacute.1" horiz-adv-x="1042" 
d="M1250 1870l-337 -314h-284l295 314h326zM561 1443h367h268l-60 -282h-268l-187 -879h268l-60 -282h-268h-367h-268l60 282h268l187 879h-268l60 282h268z" />
    <glyph glyph-name="Icircumflex.1" horiz-adv-x="1042" 
d="M803 1734l-185 -192h-253l332 327h271l192 -327h-247l-103 192h-7zM1136 1161h-268l-187 -879h268l-60 -282h-268h-367h-268l60 282h268l187 879h-268l60 282h268h367h268z" />
    <glyph glyph-name="Icaron.1" horiz-adv-x="1042" 
d="M902 1542h-271l-192 327h247l103 -192h8l184 192h253zM561 1443h367h268l-60 -282h-268l-187 -879h268l-60 -282h-268h-367h-268l60 282h268l187 879h-268l60 282h268z" />
    <glyph glyph-name="Idieresis.1" horiz-adv-x="1042" 
d="M1003 1573c-80 0 -140 59 -140 133s60 134 140 134s140 -60 140 -134s-60 -133 -140 -133zM596 1573c-80 0 -140 59 -140 133s60 134 140 134c79 0 139 -60 139 -134s-60 -133 -139 -133zM1136 1161h-268l-187 -879h268l-60 -282h-268h-367h-268l60 282h268l187 879h-268
l60 282h268h367h268z" />
    <glyph glyph-name="Idieresisacute.1" horiz-adv-x="1042" 
d="M1246 2168l-284 -265h-267l251 265h300zM860 1691c0 73 60 132 139 132s138 -59 138 -132c0 -74 -59 -133 -138 -133s-139 59 -139 133zM596 1558c-79 0 -139 59 -139 133c0 73 60 132 139 132s138 -59 138 -132c0 -74 -59 -133 -138 -133zM561 1443h367h268l-60 -282
h-268l-187 -879h268l-60 -282h-268h-367h-268l60 282h268l187 879h-268l60 282h268z" />
    <glyph glyph-name="Ibreve.1" horiz-adv-x="1042" 
d="M998 1865h214c-45 -185 -205 -328 -445 -328c-207 0 -317 117 -317 263c0 22 3 44 7 65h206c-3 -12 -4 -24 -4 -36c0 -76 48 -124 138 -124c103 0 178 64 201 160zM561 1443h367h268l-60 -282h-268l-187 -879h268l-60 -282h-268h-367h-268l60 282h268l187 879h-268
l60 282h268z" />
    <glyph glyph-name="Idotbelow.1" horiz-adv-x="1042" 
d="M372 -147c92 0 165 -73 165 -162c0 -88 -73 -161 -165 -161s-164 73 -164 161c0 89 72 162 164 162zM1136 1161h-268l-187 -879h268l-60 -282h-268h-367h-268l60 282h268l187 879h-268l60 282h268h367h268z" />
    <glyph glyph-name="Iinvertedbreve.1" horiz-adv-x="1042" 
d="M1141 1537h-206c3 11 4 23 4 35c0 76 -48 125 -138 125c-103 0 -178 -65 -201 -160h-215c46 184 206 328 446 328c207 0 317 -117 317 -264c0 -22 -3 -44 -7 -64zM1136 1161h-268l-187 -879h268l-60 -282h-268h-367h-268l60 282h268l187 879h-268l60 282h268h367h268z
" />
    <glyph glyph-name="Imacron.1" horiz-adv-x="1042" 
d="M1177 1778l-35 -165h-721l35 165h721zM1136 1161h-268l-187 -879h268l-60 -282h-268h-367h-268l60 282h268l187 879h-268l60 282h268h367h268z" />
    <glyph glyph-name="Itildebelow.1" horiz-adv-x="1042" 
d="M163 -444h-184c35 174 144 284 278 284c145 0 177 -127 256 -127c42 0 73 40 92 115h184c-37 -174 -147 -288 -279 -288c-142 0 -176 127 -255 127c-41 0 -75 -41 -92 -111zM1136 1161h-268l-187 -879h268l-60 -282h-268h-367h-268l60 282h268l187 879h-268l60 282h268
h367h268z" />
    <glyph glyph-name="Ihookabove.1" horiz-adv-x="1042" 
d="M763 1506l-73 124c76 26 128 71 128 119c0 39 -38 63 -97 63c-32 0 -78 -6 -107 -15l33 150c39 15 100 25 152 25c137 0 226 -68 226 -171c0 -116 -106 -236 -262 -295zM1136 1161h-268l-187 -879h268l-60 -282h-268h-367h-268l60 282h268l187 879h-268l60 282h268h367
h268z" />
    <glyph glyph-name="Itilde.1" horiz-adv-x="1042" 
d="M1031 1834h184c-37 -174 -147 -288 -279 -288c-142 0 -176 127 -255 127c-41 0 -75 -41 -92 -111h-184c35 174 144 284 278 284c145 0 177 -127 256 -127c42 0 73 40 92 115zM561 1443h367h268l-60 -282h-268l-187 -879h268l-60 -282h-268h-367h-268l60 282h268l187 879
h-268l60 282h268z" />
    <glyph glyph-name="Iogonek.1" horiz-adv-x="1042" 
d="M233 1161l60 282h903l-60 -282h-268l-188 -879h269l-59 -279l-44 -12c-129 -45 -236 -123 -236 -205c0 -46 36 -74 104 -74c30 0 61 5 74 10l-37 -175c-37 -16 -94 -25 -162 -25c-141 0 -243 75 -243 194c0 106 96 220 228 280l1 4h-589l60 282h267l188 879h-268z" />
    <glyph glyph-name="J" unicode="J" horiz-adv-x="1205" 
d="M44 409c0 17 1 43 3 60h351v-16c0 -99 58 -163 157 -163c98 0 158 62 184 186l206 967h368l-216 -1013c-62 -294 -252 -455 -548 -455c-304 0 -505 175 -505 434z" />
    <glyph glyph-name="Jcircumflex" unicode="&#x134;" horiz-adv-x="1205" 
d="M44 409c0 17 1 43 3 60h351v-16c0 -99 58 -163 157 -163c98 0 158 62 184 186l206 967h368l-216 -1013c-62 -294 -252 -455 -548 -455c-304 0 -505 175 -505 434zM1353 1869l192 -327h-247l-103 192h-7l-185 -192h-253l332 327h271z" />
    <glyph glyph-name="K" unicode="K" horiz-adv-x="1410" 
d="M400 0h-367l307 1443h367l-131 -616h7l611 616h423l-660 -669l354 -774h-404l-254 566l-169 -168z" />
    <glyph glyph-name="Kacute" unicode="&#x1e30;" horiz-adv-x="1410" 
d="M400 0h-367l307 1443h367l-131 -616h7l611 616h423l-660 -669l354 -774h-404l-254 566l-169 -168zM1094 1556h-284l295 314h326z" />
    <glyph glyph-name="Kcaron" unicode="&#x1e8;" horiz-adv-x="1410" 
d="M400 0h-367l307 1443h367l-131 -616h7l611 616h423l-660 -669l354 -774h-404l-254 566l-169 -168zM812 1542l-192 327h247l103 -192h8l184 192h253l-332 -327h-271z" />
    <glyph glyph-name="Kdotbelow" unicode="&#x1e32;" horiz-adv-x="1410" 
d="M400 0h-367l307 1443h367l-131 -616h7l611 616h423l-660 -669l354 -774h-404l-254 566l-169 -168zM577 -470c-92 0 -164 73 -164 161c0 89 72 162 164 162s165 -73 165 -162c0 -88 -73 -161 -165 -161z" />
    <glyph glyph-name="Klinebelow" unicode="&#x1e34;" horiz-adv-x="1410" 
d="M400 0h-367l307 1443h367l-131 -616h7l611 616h423l-660 -669l354 -774h-404l-254 566l-169 -168zM956 -226l-35 -165h-721l35 165h721z" />
    <glyph glyph-name="Kcommaaccent" unicode="&#x136;" horiz-adv-x="1410" 
d="M400 0h-367l307 1443h367l-131 -616h7l611 616h423l-660 -669l354 -774h-404l-254 566l-169 -168zM480 -475h-267l211 330h313z" />
    <glyph glyph-name="L" unicode="L" horiz-adv-x="1136" 
d="M1077 303l-65 -303h-979l307 1443h367l-242 -1140h612z" />
    <glyph glyph-name="Lacute" unicode="&#x139;" horiz-adv-x="1136" 
d="M1077 303l-65 -303h-979l307 1443h367l-242 -1140h612zM692 1556h-284l295 314h326z" />
    <glyph glyph-name="Lcircumflexbelow" unicode="&#x1e3c;" horiz-adv-x="1136" 
d="M1077 303l-65 -303h-979l307 1443h367l-242 -1140h612zM633 -165l192 -327h-247l-103 192h-8l-184 -192h-253l331 327h272z" />
    <glyph glyph-name="Ldotbelow" unicode="&#x1e36;" horiz-adv-x="1136" 
d="M1077 303l-65 -303h-979l307 1443h367l-242 -1140h612zM469 -470c-92 0 -164 73 -164 161c0 89 72 162 164 162s165 -73 165 -162c0 -88 -73 -161 -165 -161z" />
    <glyph glyph-name="Ldotbelowmacron" unicode="&#x1e38;" horiz-adv-x="1136" 
d="M1077 303l-65 -303h-979l307 1443h367l-242 -1140h612zM469 -470c-92 0 -164 73 -164 161c0 89 72 162 164 162s165 -73 165 -162c0 -88 -73 -161 -165 -161zM956 1778l-35 -165h-721l35 165h721z" />
    <glyph glyph-name="Llinebelow" unicode="&#x1e3a;" horiz-adv-x="1136" 
d="M1077 303l-65 -303h-979l307 1443h367l-242 -1140h612zM848 -226l-35 -165h-721l35 165h721z" />
    <glyph glyph-name="Lcommaaccent" unicode="&#x13b;" horiz-adv-x="1136" 
d="M1077 303l-65 -303h-979l307 1443h367l-242 -1140h612zM372 -475h-267l211 330h313z" />
    <glyph glyph-name="Lcaron" unicode="&#x13d;" horiz-adv-x="1136" 
d="M953 1443h286l-159 -511h-236zM1077 303l-65 -303h-979l307 1443h367l-242 -1140h612z" />
    <glyph glyph-name="Lslash" unicode="&#x141;" horiz-adv-x="1136" 
d="M465 303h612l-65 -303h-979l96 450l-129 -60l64 302l129 60l147 691h367l-106 -501l278 129l-65 -301l-277 -129z" />
    <glyph glyph-name="M" unicode="M" horiz-adv-x="1816" 
d="M359 0h-326l307 1443h422l148 -978h7l550 978h458l-307 -1443h-327l205 959h-11l-548 -957h-223l-144 957h-7z" />
    <glyph glyph-name="Macute" unicode="&#x1e3e;" horiz-adv-x="1816" 
d="M359 0h-326l307 1443h422l148 -978h7l550 978h458l-307 -1443h-327l205 959h-11l-548 -957h-223l-144 957h-7zM1262 1556h-284l295 314h326z" />
    <glyph glyph-name="Mdotaccent" unicode="&#x1e40;" horiz-adv-x="1816" 
d="M359 0h-326l307 1443h422l148 -978h7l550 978h458l-307 -1443h-327l205 959h-11l-548 -957h-223l-144 957h-7zM1161 1605c-92 0 -164 73 -164 161c0 89 72 162 164 162s165 -73 165 -162c0 -88 -73 -161 -165 -161z" />
    <glyph glyph-name="Mdotbelow" unicode="&#x1e42;" horiz-adv-x="1816" 
d="M359 0h-326l307 1443h422l148 -978h7l550 978h458l-307 -1443h-327l205 959h-11l-548 -957h-223l-144 957h-7zM763 -470c-92 0 -164 73 -164 161c0 89 72 162 164 162s165 -73 165 -162c0 -88 -73 -161 -165 -161z" />
    <glyph glyph-name="N" unicode="N" horiz-adv-x="1491" 
d="M385 0h-352l307 1443h288l426 -882h7l186 882h353l-307 -1443h-288l-426 882h-7z" />
    <glyph glyph-name="Ngrave" unicode="&#x1f8;" horiz-adv-x="1491" 
d="M385 0h-352l307 1443h288l426 -882h7l186 882h353l-307 -1443h-288l-426 882h-7zM833 1556l-205 314h297l163 -314h-255z" />
    <glyph glyph-name="Nacute" unicode="&#x143;" horiz-adv-x="1491" 
d="M385 0h-352l307 1443h288l426 -882h7l186 882h353l-307 -1443h-288l-426 882h-7zM1106 1556h-284l295 314h326z" />
    <glyph glyph-name="Ntilde" unicode="&#xd1;" horiz-adv-x="1491" 
d="M385 0h-352l307 1443h288l426 -882h7l186 882h353l-307 -1443h-288l-426 882h-7zM1129 1546c-142 0 -176 127 -255 127c-41 0 -75 -41 -92 -111h-184c35 174 144 284 278 284c145 0 177 -127 256 -127c42 0 73 40 92 115h184c-37 -174 -147 -288 -279 -288z" />
    <glyph glyph-name="Ndotbelow" unicode="&#x1e46;" horiz-adv-x="1491" 
d="M385 0h-352l307 1443h288l426 -882h7l186 882h353l-307 -1443h-288l-426 882h-7zM624 -470c-92 0 -164 73 -164 161c0 89 72 162 164 162s165 -73 165 -162c0 -88 -73 -161 -165 -161z" />
    <glyph glyph-name="Ndotaccent" unicode="&#x1e44;" horiz-adv-x="1491" 
d="M385 0h-352l307 1443h288l426 -882h7l186 882h353l-307 -1443h-288l-426 882h-7zM1005 1605c-92 0 -164 73 -164 161c0 89 72 162 164 162s165 -73 165 -162c0 -88 -73 -161 -165 -161z" />
    <glyph glyph-name="Ncaron" unicode="&#x147;" horiz-adv-x="1491" 
d="M385 0h-352l307 1443h288l426 -882h7l186 882h353l-307 -1443h-288l-426 882h-7zM824 1542l-192 327h247l103 -192h8l184 192h253l-332 -327h-271z" />
    <glyph glyph-name="Ncircumflexbelow" unicode="&#x1e4a;" horiz-adv-x="1491" 
d="M385 0h-352l307 1443h288l426 -882h7l186 882h353l-307 -1443h-288l-426 882h-7zM788 -165l192 -327h-247l-103 192h-8l-184 -192h-253l331 327h272z" />
    <glyph glyph-name="Nlinebelow" unicode="&#x1e48;" horiz-adv-x="1491" 
d="M385 0h-352l307 1443h288l426 -882h7l186 882h353l-307 -1443h-288l-426 882h-7zM1003 -226l-35 -165h-721l35 165h721z" />
    <glyph glyph-name="Ncommaaccent" unicode="&#x145;" horiz-adv-x="1491" 
d="M385 0h-352l307 1443h288l426 -882h7l186 882h353l-307 -1443h-288l-426 882h-7zM527 -475h-267l211 330h313z" />
    <glyph glyph-name="O" unicode="O" horiz-adv-x="1570" 
d="M918 1170c-227 0 -408 -249 -408 -556c0 -207 111 -341 282 -341c228 0 409 248 409 556c0 209 -112 341 -283 341zM782 -25c-400 0 -644 261 -644 618c0 516 346 875 788 875c408 0 647 -262 647 -618c0 -517 -350 -875 -791 -875z" />
    <glyph glyph-name="Odieresis" unicode="&#xd6;" horiz-adv-x="1570" 
d="M918 1170c-227 0 -408 -249 -408 -556c0 -207 111 -341 282 -341c228 0 409 248 409 556c0 209 -112 341 -283 341zM782 -25c-400 0 -644 261 -644 618c0 516 346 875 788 875c408 0 647 -262 647 -618c0 -517 -350 -875 -791 -875zM791 1573c-80 0 -140 59 -140 133
s60 134 140 134c79 0 139 -60 139 -134s-60 -133 -139 -133zM1198 1573c-80 0 -140 59 -140 133s60 134 140 134s140 -60 140 -134s-60 -133 -140 -133z" />
    <glyph glyph-name="Oslash" unicode="&#xd8;" horiz-adv-x="1570" 
d="M1195 911l-577 -577c46 -39 105 -61 174 -61c228 0 409 248 409 556c0 29 -2 56 -6 82zM516 532l577 577c-46 39 -106 61 -175 61c-227 0 -408 -249 -408 -556c0 -29 2 -56 6 -82zM1627 1343l-147 -147c61 -97 93 -215 93 -346c0 -517 -350 -875 -791 -875
c-163 0 -299 43 -405 118l-143 -143l-150 150l148 148c-61 97 -94 214 -94 345c0 516 346 875 788 875c165 0 303 -43 408 -118l143 143z" />
    <glyph glyph-name="Otilde" unicode="&#xd5;" horiz-adv-x="1570" 
d="M918 1170c-227 0 -408 -249 -408 -556c0 -207 111 -341 282 -341c228 0 409 248 409 556c0 209 -112 341 -283 341zM782 -25c-400 0 -644 261 -644 618c0 516 346 875 788 875c408 0 647 -262 647 -618c0 -517 -350 -875 -791 -875zM1131 1546c-142 0 -176 127 -255 127
c-41 0 -75 -41 -92 -111h-184c35 174 144 284 278 284c145 0 177 -127 256 -127c42 0 73 40 92 115h184c-37 -174 -147 -288 -279 -288z" />
    <glyph glyph-name="Oacute" unicode="&#xd3;" horiz-adv-x="1570" 
d="M918 1170c-227 0 -408 -249 -408 -556c0 -207 111 -341 282 -341c228 0 409 248 409 556c0 209 -112 341 -283 341zM782 -25c-400 0 -644 261 -644 618c0 516 346 875 788 875c408 0 647 -262 647 -618c0 -517 -350 -875 -791 -875zM1108 1556h-284l295 314h326z" />
    <glyph glyph-name="Ocircumflex" unicode="&#xd4;" horiz-adv-x="1570" 
d="M918 1170c-227 0 -408 -249 -408 -556c0 -207 111 -341 282 -341c228 0 409 248 409 556c0 209 -112 341 -283 341zM782 -25c-400 0 -644 261 -644 618c0 516 346 875 788 875c408 0 647 -262 647 -618c0 -517 -350 -875 -791 -875zM1163 1869l192 -327h-247l-103 192h-7
l-185 -192h-253l332 327h271z" />
    <glyph glyph-name="Ograve" unicode="&#xd2;" horiz-adv-x="1570" 
d="M918 1170c-227 0 -408 -249 -408 -556c0 -207 111 -341 282 -341c228 0 409 248 409 556c0 209 -112 341 -283 341zM782 -25c-400 0 -644 261 -644 618c0 516 346 875 788 875c408 0 647 -262 647 -618c0 -517 -350 -875 -791 -875zM835 1556l-205 314h297l163 -314h-255
z" />
    <glyph glyph-name="Ocircumflexhookabove" unicode="&#x1ed4;" horiz-adv-x="1570" 
d="M918 1170c-227 0 -408 -249 -408 -556c0 -207 111 -341 282 -341c228 0 409 248 409 556c0 209 -112 341 -283 341zM782 -25c-400 0 -644 261 -644 618c0 516 346 875 788 875c408 0 647 -262 647 -618c0 -517 -350 -875 -791 -875zM876 1832h273l198 -295h-243l-103 166
h-8l-175 -166h-267zM1156 2001l33 148c38 16 98 25 150 25c135 0 221 -64 221 -168c0 -125 -96 -228 -228 -279l-75 120c58 20 96 61 96 108c0 39 -37 64 -93 64c-35 0 -72 -7 -104 -18z" />
    <glyph glyph-name="Ocircumflexgrave" unicode="&#x1ed2;" horiz-adv-x="1570" 
d="M918 1170c-227 0 -408 -249 -408 -556c0 -207 111 -341 282 -341c228 0 409 248 409 556c0 209 -112 341 -283 341zM782 -25c-400 0 -644 261 -644 618c0 516 346 875 788 875c408 0 647 -262 647 -618c0 -517 -350 -875 -791 -875zM876 1832h273l198 -295h-243l-103 166
h-8l-175 -166h-267zM1386 1903h-238l-170 265h271z" />
    <glyph glyph-name="Odotbelow" unicode="&#x1ecc;" horiz-adv-x="1570" 
d="M918 1170c-227 0 -408 -249 -408 -556c0 -207 111 -341 282 -341c228 0 409 248 409 556c0 209 -112 341 -283 341zM782 -25c-400 0 -644 261 -644 618c0 516 346 875 788 875c408 0 647 -262 647 -618c0 -517 -350 -875 -791 -875zM709 -470c-92 0 -164 73 -164 161
c0 89 72 162 164 162s165 -73 165 -162c0 -88 -73 -161 -165 -161z" />
    <glyph glyph-name="Odblgrave" unicode="&#x20c;" horiz-adv-x="1570" 
d="M918 1170c-227 0 -408 -249 -408 -556c0 -207 111 -341 282 -341c228 0 409 248 409 556c0 209 -112 341 -283 341zM782 -25c-400 0 -644 261 -644 618c0 516 346 875 788 875c408 0 647 -262 647 -618c0 -517 -350 -875 -791 -875zM613 1556l-204 314h296l163 -314h-255
zM1048 1556l-205 314h297l163 -314h-255z" />
    <glyph glyph-name="Otildeacute" unicode="&#x1e4c;" horiz-adv-x="1570" 
d="M918 1170c-227 0 -408 -249 -408 -556c0 -207 111 -341 282 -341c228 0 409 248 409 556c0 209 -112 341 -283 341zM782 -25c-400 0 -644 261 -644 618c0 516 346 875 788 875c408 0 647 -262 647 -618c0 -517 -350 -875 -791 -875zM897 1907l250 261h300l-283 -261h-267
zM1115 1537c-139 0 -180 128 -251 128c-41 0 -78 -41 -94 -108h-181c35 172 146 280 281 280c139 0 179 -127 250 -127c44 0 79 40 96 112h182c-36 -172 -149 -285 -283 -285z" />
    <glyph glyph-name="Omacronacute" unicode="&#x1e52;" horiz-adv-x="1570" 
d="M918 1170c-227 0 -408 -249 -408 -556c0 -207 111 -341 282 -341c228 0 409 248 409 556c0 209 -112 341 -283 341zM782 -25c-400 0 -644 261 -644 618c0 516 346 875 788 875c408 0 647 -262 647 -618c0 -517 -350 -875 -791 -875zM1334 1603h-721l35 165h721zM897 1903
l250 265h300l-283 -265h-267z" />
    <glyph glyph-name="Ocircumflextilde" unicode="&#x1ed6;" horiz-adv-x="1570" 
d="M918 1170c-227 0 -408 -249 -408 -556c0 -207 111 -341 282 -341c228 0 409 248 409 556c0 209 -112 341 -283 341zM782 -25c-400 0 -644 261 -644 618c0 516 346 875 788 875c408 0 647 -262 647 -618c0 -517 -350 -875 -791 -875zM1188 1894c-138 0 -179 122 -252 122
c-41 0 -77 -38 -92 -103h-181c34 170 144 276 280 276c137 0 178 -122 251 -122c43 0 78 38 94 106h182c-35 -169 -148 -279 -282 -279zM876 1829h272l199 -292h-243l-104 165h-7l-175 -165h-267z" />
    <glyph glyph-name="Odotaccentmacron" unicode="&#x230;" horiz-adv-x="1570" 
d="M918 1170c-227 0 -408 -249 -408 -556c0 -207 111 -341 282 -341c228 0 409 248 409 556c0 209 -112 341 -283 341zM782 -25c-400 0 -644 261 -644 618c0 516 346 875 788 875c408 0 647 -262 647 -618c0 -517 -350 -875 -791 -875zM992 1546c-86 0 -149 64 -149 142
c0 79 63 143 149 143c85 0 148 -64 148 -143c0 -78 -63 -142 -148 -142zM1440 2098l-35 -165h-721l35 165h721z" />
    <glyph glyph-name="Omacrongrave" unicode="&#x1e50;" horiz-adv-x="1570" 
d="M918 1170c-227 0 -408 -249 -408 -556c0 -207 111 -341 282 -341c228 0 409 248 409 556c0 209 -112 341 -283 341zM782 -25c-400 0 -644 261 -644 618c0 516 346 875 788 875c408 0 647 -262 647 -618c0 -517 -350 -875 -791 -875zM1334 1603h-721l35 165h721z
M1166 1903h-238l-171 265h271z" />
    <glyph glyph-name="Ocaron" unicode="&#x1d1;" horiz-adv-x="1570" 
d="M918 1170c-227 0 -408 -249 -408 -556c0 -207 111 -341 282 -341c228 0 409 248 409 556c0 209 -112 341 -283 341zM782 -25c-400 0 -644 261 -644 618c0 516 346 875 788 875c408 0 647 -262 647 -618c0 -517 -350 -875 -791 -875zM826 1542l-192 327h247l103 -192h8
l184 192h253l-332 -327h-271z" />
    <glyph glyph-name="Oslashacute" unicode="&#x1fe;" horiz-adv-x="1570" 
d="M1445 1870l-337 -314h-284l295 314h326zM1195 911l-577 -577c46 -39 105 -61 174 -61c228 0 409 248 409 556c0 29 -2 56 -6 82zM516 532l577 577c-46 39 -106 61 -175 61c-227 0 -408 -249 -408 -556c0 -29 2 -56 6 -82zM1627 1343l-147 -147c61 -97 93 -215 93 -346
c0 -517 -350 -875 -791 -875c-163 0 -299 43 -405 118l-143 -143l-150 150l148 148c-61 97 -94 214 -94 345c0 516 346 875 788 875c165 0 303 -43 408 -118l143 143z" />
    <glyph glyph-name="Ohungarumlaut" unicode="&#x150;" horiz-adv-x="1570" 
d="M918 1170c-227 0 -408 -249 -408 -556c0 -207 111 -341 282 -341c228 0 409 248 409 556c0 209 -112 341 -283 341zM782 -25c-400 0 -644 261 -644 618c0 516 346 875 788 875c408 0 647 -262 647 -618c0 -517 -350 -875 -791 -875zM1345 1556h-283l296 314h324z
M872 1556h-282l295 314h324z" />
    <glyph glyph-name="Obreve" unicode="&#x14e;" horiz-adv-x="1570" 
d="M918 1170c-227 0 -408 -249 -408 -556c0 -207 111 -341 282 -341c228 0 409 248 409 556c0 209 -112 341 -283 341zM782 -25c-400 0 -644 261 -644 618c0 516 346 875 788 875c408 0 647 -262 647 -618c0 -517 -350 -875 -791 -875zM652 1865h206c-3 -12 -4 -24 -4 -36
c0 -76 48 -124 138 -124c103 0 178 64 201 160h214c-45 -185 -205 -328 -445 -328c-207 0 -317 117 -317 263c0 22 3 44 7 65z" />
    <glyph glyph-name="Oinvertedbreve" unicode="&#x20e;" horiz-adv-x="1570" 
d="M918 1170c-227 0 -408 -249 -408 -556c0 -207 111 -341 282 -341c228 0 409 248 409 556c0 209 -112 341 -283 341zM782 -25c-400 0 -644 261 -644 618c0 516 346 875 788 875c408 0 647 -262 647 -618c0 -517 -350 -875 -791 -875zM1336 1537h-206c3 11 4 23 4 35
c0 76 -48 125 -138 125c-103 0 -178 -65 -201 -160h-215c46 184 206 328 446 328c207 0 317 -117 317 -264c0 -22 -3 -44 -7 -64z" />
    <glyph glyph-name="Ohookabove" unicode="&#x1ece;" horiz-adv-x="1570" 
d="M918 1170c-227 0 -408 -249 -408 -556c0 -207 111 -341 282 -341c228 0 409 248 409 556c0 209 -112 341 -283 341zM782 -25c-400 0 -644 261 -644 618c0 516 346 875 788 875c408 0 647 -262 647 -618c0 -517 -350 -875 -791 -875zM809 1797l33 150c39 15 100 25 152 25
c137 0 226 -68 226 -171c0 -116 -106 -236 -262 -295l-73 124c76 26 128 71 128 119c0 39 -38 63 -97 63c-32 0 -78 -6 -107 -15z" />
    <glyph glyph-name="Odieresismacron" unicode="&#x22a;" horiz-adv-x="1570" 
d="M918 1170c-227 0 -408 -249 -408 -556c0 -207 111 -341 282 -341c228 0 409 248 409 556c0 209 -112 341 -283 341zM782 -25c-400 0 -644 261 -644 618c0 516 346 875 788 875c408 0 647 -262 647 -618c0 -517 -350 -875 -791 -875zM779 1819c83 0 145 -62 145 -139
s-62 -140 -145 -140c-84 0 -146 63 -146 140s62 139 146 139zM1440 2098l-35 -165h-721l35 165h721zM1202 1819c83 0 145 -62 145 -139s-62 -140 -145 -140c-84 0 -146 63 -146 140s62 139 146 139z" />
    <glyph glyph-name="Otildemacron" unicode="&#x22c;" horiz-adv-x="1570" 
d="M918 1170c-227 0 -408 -249 -408 -556c0 -207 111 -341 282 -341c228 0 409 248 409 556c0 209 -112 341 -283 341zM782 -25c-400 0 -644 261 -644 618c0 516 346 875 788 875c408 0 647 -262 647 -618c0 -517 -350 -875 -791 -875zM1440 2098l-35 -165h-721l35 165h721z
M1115 1537c-139 0 -180 128 -251 128c-41 0 -78 -41 -94 -108h-181c35 172 146 280 281 280c139 0 179 -127 250 -127c44 0 79 40 96 112h182c-36 -172 -149 -285 -283 -285z" />
    <glyph glyph-name="Odotaccent" unicode="&#x22e;" horiz-adv-x="1570" 
d="M918 1170c-227 0 -408 -249 -408 -556c0 -207 111 -341 282 -341c228 0 409 248 409 556c0 209 -112 341 -283 341zM782 -25c-400 0 -644 261 -644 618c0 516 346 875 788 875c408 0 647 -262 647 -618c0 -517 -350 -875 -791 -875zM1007 1605c-92 0 -164 73 -164 161
c0 89 72 162 164 162s165 -73 165 -162c0 -88 -73 -161 -165 -161z" />
    <glyph glyph-name="Ocircumflexdotbelow" unicode="&#x1ed8;" horiz-adv-x="1570" 
d="M918 1170c-227 0 -408 -249 -408 -556c0 -207 111 -341 282 -341c228 0 409 248 409 556c0 209 -112 341 -283 341zM782 -25c-400 0 -644 261 -644 618c0 516 346 875 788 875c408 0 647 -262 647 -618c0 -517 -350 -875 -791 -875zM1163 1869l192 -327h-247l-103 192h-7
l-185 -192h-253l332 327h271zM709 -470c-92 0 -164 73 -164 161c0 89 72 162 164 162s165 -73 165 -162c0 -88 -73 -161 -165 -161z" />
    <glyph glyph-name="Ocircumflexacute" unicode="&#x1ed0;" horiz-adv-x="1570" 
d="M918 1170c-227 0 -408 -249 -408 -556c0 -207 111 -341 282 -341c228 0 409 248 409 556c0 209 -112 341 -283 341zM782 -25c-400 0 -644 261 -644 618c0 516 346 875 788 875c408 0 647 -262 647 -618c0 -517 -350 -875 -791 -875zM876 1832h273l198 -295h-243l-103 166
h-8l-175 -166h-267zM1112 1903l251 265h300l-284 -265h-267z" />
    <glyph glyph-name="Otildedieresis" unicode="&#x1e4e;" horiz-adv-x="1570" 
d="M918 1170c-227 0 -408 -249 -408 -556c0 -207 111 -341 282 -341c228 0 409 248 409 556c0 209 -112 341 -283 341zM782 -25c-400 0 -644 261 -644 618c0 516 346 875 788 875c408 0 647 -262 647 -618c0 -517 -350 -875 -791 -875zM1115 1537c-139 0 -180 128 -251 128
c-41 0 -78 -41 -94 -108h-181c35 172 146 280 281 280c139 0 179 -127 250 -127c44 0 79 40 96 112h182c-36 -172 -149 -285 -283 -285zM858 2191c83 0 145 -62 145 -139s-62 -140 -145 -140c-84 0 -146 63 -146 140s62 139 146 139zM1280 2191c84 0 146 -62 146 -139
s-62 -140 -146 -140c-83 0 -145 63 -145 140s62 139 145 139z" />
    <glyph glyph-name="Omacron" unicode="&#x14c;" horiz-adv-x="1570" 
d="M918 1170c-227 0 -408 -249 -408 -556c0 -207 111 -341 282 -341c228 0 409 248 409 556c0 209 -112 341 -283 341zM782 -25c-400 0 -644 261 -644 618c0 516 346 875 788 875c408 0 647 -262 647 -618c0 -517 -350 -875 -791 -875zM1372 1778l-35 -165h-721l35 165h721z
" />
    <glyph glyph-name="Oogonek" unicode="&#x1ea;" horiz-adv-x="1570" 
d="M1035 -453c-37 -16 -94 -25 -161 -25c-142 0 -243 75 -243 194c0 95 72 189 185 254v7c-10 -1 -24 -2 -34 -2c-400 0 -644 261 -644 618c0 516 346 875 788 875c408 0 647 -262 647 -618c0 -363 -188 -629 -423 -785c-132 -89 -256 -177 -256 -279c0 -46 37 -74 105 -74
c30 0 60 5 73 10zM1201 829c0 209 -112 341 -283 341c-227 0 -408 -249 -408 -556c0 -207 111 -341 282 -341c228 0 409 248 409 556z" />
    <glyph glyph-name="Oogonekmacron" unicode="&#x1ec;" horiz-adv-x="1570" 
d="M1035 -453c-37 -16 -94 -25 -161 -25c-142 0 -243 75 -243 194c0 95 72 189 185 254v7c-10 -1 -24 -2 -34 -2c-400 0 -644 261 -644 618c0 516 346 875 788 875c408 0 647 -262 647 -618c0 -363 -188 -629 -423 -785c-132 -89 -256 -177 -256 -279c0 -46 37 -74 105 -74
c30 0 60 5 73 10zM1201 829c0 209 -112 341 -283 341c-227 0 -408 -249 -408 -556c0 -207 111 -341 282 -341c228 0 409 248 409 556zM1372 1778l-35 -165h-721l35 165h721z" />
    <glyph glyph-name="Ohorn" unicode="&#x1a0;" horiz-adv-x="1570" 
d="M1201 829c0 209 -112 341 -283 341c-227 0 -408 -249 -408 -556c0 -207 111 -341 282 -341c228 0 409 248 409 556zM1573 850c0 -517 -350 -875 -791 -875c-400 0 -644 261 -644 618c0 516 346 875 788 875c326 0 399 -151 498 -151c61 0 90 28 105 100l36 170h269
l-55 -256c-30 -139 -114 -199 -203 -199c-26 0 -52 8 -62 14l-6 -7c43 -84 65 -183 65 -289z" />
    <glyph glyph-name="Ohorndotbelow" unicode="&#x1ee2;" horiz-adv-x="1570" 
d="M1201 829c0 209 -112 341 -283 341c-227 0 -408 -249 -408 -556c0 -207 111 -341 282 -341c228 0 409 248 409 556zM1573 850c0 -517 -350 -875 -791 -875c-400 0 -644 261 -644 618c0 516 346 875 788 875c326 0 399 -151 498 -151c61 0 90 28 105 100l36 170h269
l-55 -256c-30 -139 -114 -199 -203 -199c-26 0 -52 8 -62 14l-6 -7c43 -84 65 -183 65 -289zM709 -470c-92 0 -164 73 -164 161c0 89 72 162 164 162s165 -73 165 -162c0 -88 -73 -161 -165 -161z" />
    <glyph glyph-name="Ohornhookabove" unicode="&#x1ede;" horiz-adv-x="1570" 
d="M1201 829c0 209 -112 341 -283 341c-227 0 -408 -249 -408 -556c0 -207 111 -341 282 -341c228 0 409 248 409 556zM1573 850c0 -517 -350 -875 -791 -875c-400 0 -644 261 -644 618c0 516 346 875 788 875c326 0 399 -151 498 -151c61 0 90 28 105 100l36 170h269
l-55 -256c-30 -139 -114 -199 -203 -199c-26 0 -52 8 -62 14l-6 -7c43 -84 65 -183 65 -289zM809 1797l33 150c39 15 100 25 152 25c137 0 226 -68 226 -171c0 -116 -106 -236 -262 -295l-73 124c76 26 128 71 128 119c0 39 -38 63 -97 63c-32 0 -78 -6 -107 -15z" />
    <glyph glyph-name="Ohorntilde" unicode="&#x1ee0;" horiz-adv-x="1570" 
d="M1201 829c0 209 -112 341 -283 341c-227 0 -408 -249 -408 -556c0 -207 111 -341 282 -341c228 0 409 248 409 556zM1573 850c0 -517 -350 -875 -791 -875c-400 0 -644 261 -644 618c0 516 346 875 788 875c326 0 399 -151 498 -151c61 0 90 28 105 100l36 170h269
l-55 -256c-30 -139 -114 -199 -203 -199c-26 0 -52 8 -62 14l-6 -7c43 -84 65 -183 65 -289zM1131 1546c-142 0 -176 127 -255 127c-41 0 -75 -41 -92 -111h-184c35 174 144 284 278 284c145 0 177 -127 256 -127c42 0 73 40 92 115h184c-37 -174 -147 -288 -279 -288z" />
    <glyph glyph-name="Ohorngrave" unicode="&#x1edc;" horiz-adv-x="1570" 
d="M1201 829c0 209 -112 341 -283 341c-227 0 -408 -249 -408 -556c0 -207 111 -341 282 -341c228 0 409 248 409 556zM1573 850c0 -517 -350 -875 -791 -875c-400 0 -644 261 -644 618c0 516 346 875 788 875c326 0 399 -151 498 -151c61 0 90 28 105 100l36 170h269
l-55 -256c-30 -139 -114 -199 -203 -199c-26 0 -52 8 -62 14l-6 -7c43 -84 65 -183 65 -289zM835 1556l-205 314h297l163 -314h-255z" />
    <glyph glyph-name="Ohornacute" unicode="&#x1eda;" horiz-adv-x="1570" 
d="M1201 829c0 209 -112 341 -283 341c-227 0 -408 -249 -408 -556c0 -207 111 -341 282 -341c228 0 409 248 409 556zM1573 850c0 -517 -350 -875 -791 -875c-400 0 -644 261 -644 618c0 516 346 875 788 875c326 0 399 -151 498 -151c61 0 90 28 105 100l36 170h269
l-55 -256c-30 -139 -114 -199 -203 -199c-26 0 -52 8 -62 14l-6 -7c43 -84 65 -183 65 -289zM1108 1556h-284l295 314h326z" />
    <glyph glyph-name="P" unicode="P" horiz-adv-x="1326" 
d="M340 1443h537c315 0 504 -173 504 -435c0 -361 -257 -585 -651 -585h-239l-90 -423h-367zM647 1161l-98 -461h181c171 0 282 113 282 275c0 124 -77 186 -211 186h-154z" />
    <glyph glyph-name="Pdotaccent" unicode="&#x1e56;" horiz-adv-x="1326" 
d="M340 1443h537c315 0 504 -173 504 -435c0 -361 -257 -585 -651 -585h-239l-90 -423h-367zM647 1161l-98 -461h181c171 0 282 113 282 275c0 124 -77 186 -211 186h-154zM808 1605c-92 0 -164 73 -164 161c0 89 72 162 164 162s165 -73 165 -162c0 -88 -73 -161 -165 -161
z" />
    <glyph glyph-name="Pacute" unicode="&#x1e54;" horiz-adv-x="1326" 
d="M340 1443h537c315 0 504 -173 504 -435c0 -361 -257 -585 -651 -585h-239l-90 -423h-367zM647 1161l-98 -461h181c171 0 282 113 282 275c0 124 -77 186 -211 186h-154zM908 1556h-284l295 314h326z" />
    <glyph glyph-name="Q" unicode="Q" horiz-adv-x="1570" 
d="M1359 -132h-331l-57 131c-60 -15 -124 -24 -189 -24c-400 0 -644 261 -644 618c0 516 346 875 788 875c408 0 647 -262 647 -618c0 -304 -122 -555 -329 -720zM792 273c19 0 38 2 65 7l-96 224h302l23 -43c72 91 115 224 115 368c0 209 -112 341 -283 341
c-227 0 -408 -249 -408 -556c0 -207 111 -341 282 -341z" />
    <glyph glyph-name="R" unicode="R" horiz-adv-x="1365" 
d="M562 764h226c159 0 262 95 262 229c0 112 -71 173 -196 173h-205zM340 1443h615c296 0 464 -176 464 -419c0 -209 -125 -406 -350 -483l169 -541h-382l-149 505h-200l-107 -505h-367z" />
    <glyph glyph-name="Rcaron" unicode="&#x158;" horiz-adv-x="1365" 
d="M969 1542h-271l-192 327h247l103 -192h8l184 192h253zM562 764h226c159 0 262 95 262 229c0 112 -71 173 -196 173h-205zM340 1443h615c296 0 464 -176 464 -419c0 -209 -125 -406 -350 -483l169 -541h-382l-149 505h-200l-107 -505h-367z" />
    <glyph glyph-name="Rlinebelow" unicode="&#x1e5e;" horiz-adv-x="1365" 
d="M181 -391l35 165h721l-35 -165h-721zM562 764h226c159 0 262 95 262 229c0 112 -71 173 -196 173h-205zM340 1443h615c296 0 464 -176 464 -419c0 -209 -125 -406 -350 -483l169 -541h-382l-149 505h-200l-107 -505h-367z" />
    <glyph glyph-name="Rdotbelowmacron" unicode="&#x1e5c;" horiz-adv-x="1365" 
d="M1244 1778l-35 -165h-721l35 165h721zM558 -147c92 0 165 -73 165 -162c0 -88 -73 -161 -165 -161s-164 73 -164 161c0 89 72 162 164 162zM562 764h226c159 0 262 95 262 229c0 112 -71 173 -196 173h-205zM340 1443h615c296 0 464 -176 464 -419
c0 -209 -125 -406 -350 -483l169 -541h-382l-149 505h-200l-107 -505h-367z" />
    <glyph glyph-name="Rdblgrave" unicode="&#x210;" horiz-adv-x="1365" 
d="M1175 1556h-255l-205 314h297zM740 1556h-255l-204 314h296zM562 764h226c159 0 262 95 262 229c0 112 -71 173 -196 173h-205zM340 1443h615c296 0 464 -176 464 -419c0 -209 -125 -406 -350 -483l169 -541h-382l-149 505h-200l-107 -505h-367z" />
    <glyph glyph-name="Rinvertedbreve" unicode="&#x212;" horiz-adv-x="1365" 
d="M1208 1537h-206c3 11 4 23 4 35c0 76 -48 125 -138 125c-103 0 -178 -65 -201 -160h-215c46 184 206 328 446 328c207 0 317 -117 317 -264c0 -22 -3 -44 -7 -64zM562 764h226c159 0 262 95 262 229c0 112 -71 173 -196 173h-205zM340 1443h615c296 0 464 -176 464 -419
c0 -209 -125 -406 -350 -483l169 -541h-382l-149 505h-200l-107 -505h-367z" />
    <glyph glyph-name="Racute" unicode="&#x154;" horiz-adv-x="1365" 
d="M1317 1870l-337 -314h-284l295 314h326zM562 764h226c159 0 262 95 262 229c0 112 -71 173 -196 173h-205zM340 1443h615c296 0 464 -176 464 -419c0 -209 -125 -406 -350 -483l169 -541h-382l-149 505h-200l-107 -505h-367z" />
    <glyph glyph-name="Rdotbelow" unicode="&#x1e5a;" horiz-adv-x="1365" 
d="M558 -147c92 0 165 -73 165 -162c0 -88 -73 -161 -165 -161s-164 73 -164 161c0 89 72 162 164 162zM562 764h226c159 0 262 95 262 229c0 112 -71 173 -196 173h-205zM340 1443h615c296 0 464 -176 464 -419c0 -209 -125 -406 -350 -483l169 -541h-382l-149 505h-200
l-107 -505h-367z" />
    <glyph glyph-name="Rdotaccent" unicode="&#x1e58;" horiz-adv-x="1365" 
d="M879 1605c-92 0 -164 73 -164 161c0 89 72 162 164 162s165 -73 165 -162c0 -88 -73 -161 -165 -161zM562 764h226c159 0 262 95 262 229c0 112 -71 173 -196 173h-205zM340 1443h615c296 0 464 -176 464 -419c0 -209 -125 -406 -350 -483l169 -541h-382l-149 505h-200
l-107 -505h-367z" />
    <glyph glyph-name="Rcommaaccent" unicode="&#x156;" horiz-adv-x="1365" 
d="M194 -475l211 330h313l-257 -330h-267zM562 764h226c159 0 262 95 262 229c0 112 -71 173 -196 173h-205zM340 1443h615c296 0 464 -176 464 -419c0 -209 -125 -406 -350 -483l169 -541h-382l-149 505h-200l-107 -505h-367z" />
    <glyph glyph-name="S" unicode="S" horiz-adv-x="1347" 
d="M71 425h349c14 -100 120 -171 263 -171c137 0 230 58 230 150c0 71 -39 111 -185 156l-138 42c-240 74 -366 200 -366 397c0 282 243 469 579 469c354 0 578 -168 579 -448h-338c-4 102 -94 170 -233 170c-134 0 -214 -66 -214 -146c0 -71 49 -118 179 -156l143 -43
c255 -75 369 -186 369 -388c0 -285 -240 -482 -612 -482c-368 0 -602 166 -605 450z" />
    <glyph glyph-name="Scaron" unicode="&#x160;" horiz-adv-x="1347" 
d="M71 425h349c14 -100 120 -171 263 -171c137 0 230 58 230 150c0 71 -39 111 -185 156l-138 42c-240 74 -366 200 -366 397c0 282 243 469 579 469c354 0 578 -168 579 -448h-338c-4 102 -94 170 -233 170c-134 0 -214 -66 -214 -146c0 -71 49 -118 179 -156l143 -43
c255 -75 369 -186 369 -388c0 -285 -240 -482 -612 -482c-368 0 -602 166 -605 450zM708 1542l-192 327h247l103 -192h8l184 192h253l-332 -327h-271z" />
    <glyph glyph-name="Scedilla" unicode="&#x15e;" horiz-adv-x="1347" 
d="M776 888l143 -43c255 -75 369 -186 369 -388c0 -269 -214 -460 -551 -480l-49 -68c97 -9 150 -62 150 -148c0 -132 -129 -227 -309 -227c-59 0 -118 7 -147 18l32 150c30 -9 75 -15 117 -15c75 0 115 18 115 52c0 33 -32 45 -121 45h-58l26 113l62 84
c-298 34 -481 192 -484 444h349c14 -100 120 -171 263 -171c137 0 230 58 230 150c0 71 -39 111 -185 156l-138 42c-240 74 -366 200 -366 397c0 282 243 469 579 469c354 0 578 -168 579 -448h-338c-4 102 -94 170 -233 170c-134 0 -214 -66 -214 -146
c0 -71 49 -118 179 -156z" />
    <glyph glyph-name="Sdotaccent" unicode="&#x1e60;" horiz-adv-x="1347" 
d="M71 425h349c14 -100 120 -171 263 -171c137 0 230 58 230 150c0 71 -39 111 -185 156l-138 42c-240 74 -366 200 -366 397c0 282 243 469 579 469c354 0 578 -168 579 -448h-338c-4 102 -94 170 -233 170c-134 0 -214 -66 -214 -146c0 -71 49 -118 179 -156l143 -43
c255 -75 369 -186 369 -388c0 -285 -240 -482 -612 -482c-368 0 -602 166 -605 450zM890 1605c-92 0 -164 73 -164 161c0 89 72 162 164 162s165 -73 165 -162c0 -88 -73 -161 -165 -161z" />
    <glyph glyph-name="Sdotbelow" unicode="&#x1e62;" horiz-adv-x="1347" 
d="M71 425h349c14 -100 120 -171 263 -171c137 0 230 58 230 150c0 71 -39 111 -185 156l-138 42c-240 74 -366 200 -366 397c0 282 243 469 579 469c354 0 578 -168 579 -448h-338c-4 102 -94 170 -233 170c-134 0 -214 -66 -214 -146c0 -71 49 -118 179 -156l143 -43
c255 -75 369 -186 369 -388c0 -285 -240 -482 -612 -482c-368 0 -602 166 -605 450zM603 -470c-92 0 -164 73 -164 161c0 89 72 162 164 162s165 -73 165 -162c0 -88 -73 -161 -165 -161z" />
    <glyph glyph-name="Scommaaccent" unicode="&#x218;" horiz-adv-x="1347" 
d="M71 425h349c14 -100 120 -171 263 -171c137 0 230 58 230 150c0 71 -39 111 -185 156l-138 42c-240 74 -366 200 -366 397c0 282 243 469 579 469c354 0 578 -168 579 -448h-338c-4 102 -94 170 -233 170c-134 0 -214 -66 -214 -146c0 -71 49 -118 179 -156l143 -43
c255 -75 369 -186 369 -388c0 -285 -240 -482 -612 -482c-368 0 -602 166 -605 450zM506 -475h-267l211 330h313z" />
    <glyph glyph-name="Sdotbelowdotaccent" unicode="&#x1e68;" horiz-adv-x="1347" 
d="M71 425h349c14 -100 120 -171 263 -171c137 0 230 58 230 150c0 71 -39 111 -185 156l-138 42c-240 74 -366 200 -366 397c0 282 243 469 579 469c354 0 578 -168 579 -448h-338c-4 102 -94 170 -233 170c-134 0 -214 -66 -214 -146c0 -71 49 -118 179 -156l143 -43
c255 -75 369 -186 369 -388c0 -285 -240 -482 -612 -482c-368 0 -602 166 -605 450zM603 -470c-92 0 -164 73 -164 161c0 89 72 162 164 162s165 -73 165 -162c0 -88 -73 -161 -165 -161zM890 1605c-92 0 -164 73 -164 161c0 89 72 162 164 162s165 -73 165 -162
c0 -88 -73 -161 -165 -161z" />
    <glyph glyph-name="Scarondotaccent" unicode="&#x1e66;" horiz-adv-x="1347" 
d="M71 425h349c14 -100 120 -171 263 -171c137 0 230 58 230 150c0 71 -39 111 -185 156l-138 42c-240 74 -366 200 -366 397c0 282 243 469 579 469c354 0 578 -168 579 -448h-338c-4 102 -94 170 -233 170c-134 0 -214 -66 -214 -146c0 -71 49 -118 179 -156l143 -43
c255 -75 369 -186 369 -388c0 -285 -240 -482 -612 -482c-368 0 -602 166 -605 450zM711 1537l-198 295h243l103 -167h8l175 167h267l-325 -295h-273zM932 1862c-84 0 -146 63 -146 140c0 78 62 140 146 140c85 0 147 -62 147 -140c0 -77 -62 -140 -147 -140z" />
    <glyph glyph-name="Scircumflex" unicode="&#x15c;" horiz-adv-x="1347" 
d="M71 425h349c14 -100 120 -171 263 -171c137 0 230 58 230 150c0 71 -39 111 -185 156l-138 42c-240 74 -366 200 -366 397c0 282 243 469 579 469c354 0 578 -168 579 -448h-338c-4 102 -94 170 -233 170c-134 0 -214 -66 -214 -146c0 -71 49 -118 179 -156l143 -43
c255 -75 369 -186 369 -388c0 -285 -240 -482 -612 -482c-368 0 -602 166 -605 450zM1045 1869l192 -327h-247l-103 192h-7l-185 -192h-253l332 327h271z" />
    <glyph glyph-name="Sacutedotaccent" unicode="&#x1e64;" horiz-adv-x="1347" 
d="M71 425h349c14 -100 120 -171 263 -171c137 0 230 58 230 150c0 71 -39 111 -185 156l-138 42c-240 74 -366 200 -366 397c0 282 243 469 579 469c354 0 578 -168 579 -448h-338c-4 102 -94 170 -233 170c-134 0 -214 -66 -214 -146c0 -71 49 -118 179 -156l143 -43
c255 -75 369 -186 369 -388c0 -285 -240 -482 -612 -482c-368 0 -602 166 -605 450zM1182 1560h-284l295 314h326zM669 1560c-92 0 -164 73 -164 161c0 89 72 162 164 162s165 -73 165 -162c0 -88 -73 -161 -165 -161z" />
    <glyph glyph-name="Sacute" unicode="&#x15a;" horiz-adv-x="1347" 
d="M71 425h349c14 -100 120 -171 263 -171c137 0 230 58 230 150c0 71 -39 111 -185 156l-138 42c-240 74 -366 200 -366 397c0 282 243 469 579 469c354 0 578 -168 579 -448h-338c-4 102 -94 170 -233 170c-134 0 -214 -66 -214 -146c0 -71 49 -118 179 -156l143 -43
c255 -75 369 -186 369 -388c0 -285 -240 -482 -612 -482c-368 0 -602 166 -605 450zM990 1556h-284l295 314h326z" />
    <glyph glyph-name="germandbls.uc" unicode="&#x1e9e;" horiz-adv-x="2694" 
d="M71 425h349c14 -100 120 -171 263 -171c137 0 230 58 230 150c0 71 -39 111 -185 156l-138 42c-240 74 -366 200 -366 397c0 282 243 469 579 469c354 0 578 -168 579 -448h-338c-4 102 -94 170 -233 170c-134 0 -214 -66 -214 -146c0 -71 49 -118 179 -156l143 -43
c255 -75 369 -186 369 -388c0 -285 -240 -482 -612 -482c-368 0 -602 166 -605 450zM1418 425h349c14 -100 120 -171 263 -171c137 0 230 58 230 150c0 71 -39 111 -185 156l-138 42c-240 74 -366 200 -366 397c0 282 243 469 579 469c354 0 578 -168 579 -448h-338
c-4 102 -94 170 -233 170c-134 0 -214 -66 -214 -146c0 -71 49 -118 179 -156l143 -43c255 -75 369 -186 369 -388c0 -285 -240 -482 -612 -482c-368 0 -602 166 -605 450z" />
    <glyph glyph-name="T" unicode="T" horiz-adv-x="1284" 
d="M743 0h-368l244 1148h-416l63 295h1199l-63 -295h-416z" />
    <glyph glyph-name="Tcircumflexbelow" unicode="&#x1e70;" horiz-adv-x="1284" 
d="M743 0h-368l244 1148h-416l63 295h1199l-63 -295h-416zM658 -165l192 -327h-247l-103 192h-8l-184 -192h-253l331 327h272z" />
    <glyph glyph-name="Tdotbelow" unicode="&#x1e6c;" horiz-adv-x="1284" 
d="M743 0h-368l244 1148h-416l63 295h1199l-63 -295h-416zM494 -470c-92 0 -164 73 -164 161c0 89 72 162 164 162s165 -73 165 -162c0 -88 -73 -161 -165 -161z" />
    <glyph glyph-name="Tcommaaccent" unicode="&#x21a;" horiz-adv-x="1284" 
d="M743 0h-368l244 1148h-416l63 295h1199l-63 -295h-416zM397 -475h-267l211 330h313z" />
    <glyph glyph-name="Tdotaccent" unicode="&#x1e6a;" horiz-adv-x="1284" 
d="M743 0h-368l244 1148h-416l63 295h1199l-63 -295h-416zM934 1605c-92 0 -164 73 -164 161c0 89 72 162 164 162s165 -73 165 -162c0 -88 -73 -161 -165 -161z" />
    <glyph glyph-name="Tcedilla" unicode="&#x162;" horiz-adv-x="1284" 
d="M266 1443h1199l-63 -295h-416l-243 -1148l-66 -91c97 -9 150 -62 150 -148c0 -132 -129 -227 -309 -227c-59 0 -118 7 -147 18l32 150c30 -9 75 -15 117 -15c75 0 115 18 115 52c0 33 -32 45 -121 45h-58l26 113l76 103h-183l244 1148h-416z" />
    <glyph glyph-name="Tlinebelow" unicode="&#x1e6e;" horiz-adv-x="1284" 
d="M743 0h-368l244 1148h-416l63 295h1199l-63 -295h-416zM873 -226l-35 -165h-721l35 165h721z" />
    <glyph glyph-name="Tcaron" unicode="&#x164;" horiz-adv-x="1284" 
d="M743 0h-368l244 1148h-416l63 295h1199l-63 -295h-416zM753 1542l-192 327h247l103 -192h8l184 192h253l-332 -327h-271z" />
    <glyph glyph-name="Tbar" unicode="&#x166;" horiz-adv-x="1284" 
d="M1402 1148h-416l-59 -278h319l-62 -294h-319l-122 -576h-368l122 576h-273l63 294h273l59 278h-416l63 295h1199z" />
    <glyph glyph-name="U" unicode="U" horiz-adv-x="1484" 
d="M732 -25c-368 0 -588 199 -588 479c-1 39 4 82 13 125l183 864h367l-182 -858c-7 -33 -10 -63 -10 -91c2 -129 99 -207 239 -207c144 0 244 88 278 249l192 907h367l-209 -987c-63 -302 -312 -481 -650 -481z" />
    <glyph glyph-name="Ugrave" unicode="&#xd9;" horiz-adv-x="1484" 
d="M732 -25c-368 0 -588 199 -588 479c-1 39 4 82 13 125l183 864h367l-182 -858c-7 -33 -10 -63 -10 -91c2 -129 99 -207 239 -207c144 0 244 88 278 249l192 907h367l-209 -987c-63 -302 -312 -481 -650 -481zM850 1556l-205 314h297l163 -314h-255z" />
    <glyph glyph-name="Udblgrave" unicode="&#x214;" horiz-adv-x="1484" 
d="M732 -25c-368 0 -588 199 -588 479c-1 39 4 82 13 125l183 864h367l-182 -858c-7 -33 -10 -63 -10 -91c2 -129 99 -207 239 -207c144 0 244 88 278 249l192 907h367l-209 -987c-63 -302 -312 -481 -650 -481zM628 1556l-204 314h296l163 -314h-255zM1063 1556l-205 314
h297l163 -314h-255z" />
    <glyph glyph-name="Uacute" unicode="&#xda;" horiz-adv-x="1484" 
d="M732 -25c-368 0 -588 199 -588 479c-1 39 4 82 13 125l183 864h367l-182 -858c-7 -33 -10 -63 -10 -91c2 -129 99 -207 239 -207c144 0 244 88 278 249l192 907h367l-209 -987c-63 -302 -312 -481 -650 -481zM1123 1556h-284l295 314h326z" />
    <glyph glyph-name="Uhungarumlaut" unicode="&#x170;" horiz-adv-x="1484" 
d="M732 -25c-368 0 -588 199 -588 479c-1 39 4 82 13 125l183 864h367l-182 -858c-7 -33 -10 -63 -10 -91c2 -129 99 -207 239 -207c144 0 244 88 278 249l192 907h367l-209 -987c-63 -302 -312 -481 -650 -481zM1360 1556h-283l296 314h324zM887 1556h-282l295 314h324z
" />
    <glyph glyph-name="Ucircumflex" unicode="&#xdb;" horiz-adv-x="1484" 
d="M732 -25c-368 0 -588 199 -588 479c-1 39 4 82 13 125l183 864h367l-182 -858c-7 -33 -10 -63 -10 -91c2 -129 99 -207 239 -207c144 0 244 88 278 249l192 907h367l-209 -987c-63 -302 -312 -481 -650 -481zM1178 1869l192 -327h-247l-103 192h-7l-185 -192h-253
l332 327h271z" />
    <glyph glyph-name="Ucaron" unicode="&#x1d3;" horiz-adv-x="1484" 
d="M732 -25c-368 0 -588 199 -588 479c-1 39 4 82 13 125l183 864h367l-182 -858c-7 -33 -10 -63 -10 -91c2 -129 99 -207 239 -207c144 0 244 88 278 249l192 907h367l-209 -987c-63 -302 -312 -481 -650 -481zM841 1542l-192 327h247l103 -192h8l184 192h253l-332 -327
h-271z" />
    <glyph glyph-name="Ucircumflexbelow" unicode="&#x1e76;" horiz-adv-x="1484" 
d="M732 -25c-368 0 -588 199 -588 479c-1 39 4 82 13 125l183 864h367l-182 -858c-7 -33 -10 -63 -10 -91c2 -129 99 -207 239 -207c144 0 244 88 278 249l192 907h367l-209 -987c-63 -302 -312 -481 -650 -481zM810 -165l192 -327h-247l-103 192h-8l-184 -192h-253l331 327
h272z" />
    <glyph glyph-name="Udieresis" unicode="&#xdc;" horiz-adv-x="1484" 
d="M732 -25c-368 0 -588 199 -588 479c-1 39 4 82 13 125l183 864h367l-182 -858c-7 -33 -10 -63 -10 -91c2 -129 99 -207 239 -207c144 0 244 88 278 249l192 907h367l-209 -987c-63 -302 -312 -481 -650 -481zM806 1573c-80 0 -140 59 -140 133s60 134 140 134
c79 0 139 -60 139 -134s-60 -133 -139 -133zM1213 1573c-80 0 -140 59 -140 133s60 134 140 134s140 -60 140 -134s-60 -133 -140 -133z" />
    <glyph glyph-name="Udieresisgrave" unicode="&#x1db;" horiz-adv-x="1484" 
d="M732 -25c-368 0 -588 199 -588 479c-1 39 4 82 13 125l183 864h367l-182 -858c-7 -33 -10 -63 -10 -91c2 -129 99 -207 239 -207c144 0 244 88 278 249l192 907h367l-209 -987c-63 -302 -312 -481 -650 -481zM1186 1903h-238l-170 265h271zM806 1558
c-79 0 -139 59 -139 133c0 73 60 132 139 132s138 -59 138 -132c0 -74 -59 -133 -138 -133zM1209 1558c-79 0 -139 59 -139 133c0 73 60 132 139 132s138 -59 138 -132c0 -74 -59 -133 -138 -133z" />
    <glyph glyph-name="Udieresisacute" unicode="&#x1d7;" horiz-adv-x="1484" 
d="M732 -25c-368 0 -588 199 -588 479c-1 39 4 82 13 125l183 864h367l-182 -858c-7 -33 -10 -63 -10 -91c2 -129 99 -207 239 -207c144 0 244 88 278 249l192 907h367l-209 -987c-63 -302 -312 -481 -650 -481zM905 1903l251 265h300l-284 -265h-267zM806 1558
c-79 0 -139 59 -139 133c0 73 60 132 139 132s138 -59 138 -132c0 -74 -59 -133 -138 -133zM1209 1558c-79 0 -139 59 -139 133c0 73 60 132 139 132s138 -59 138 -132c0 -74 -59 -133 -138 -133z" />
    <glyph glyph-name="Udieresismacron" unicode="&#x1d5;" horiz-adv-x="1484" 
d="M732 -25c-368 0 -588 199 -588 479c-1 39 4 82 13 125l183 864h367l-182 -858c-7 -33 -10 -63 -10 -91c2 -129 99 -207 239 -207c144 0 244 88 278 249l192 907h367l-209 -987c-63 -302 -312 -481 -650 -481zM794 1819c83 0 145 -62 145 -139s-62 -140 -145 -140
c-84 0 -146 63 -146 140s62 139 146 139zM1455 2098l-35 -165h-721l35 165h721zM1217 1819c83 0 145 -62 145 -139s-62 -140 -145 -140c-84 0 -146 63 -146 140s62 139 146 139z" />
    <glyph glyph-name="Udieresiscaron" unicode="&#x1d9;" horiz-adv-x="1484" 
d="M732 -25c-368 0 -588 199 -588 479c-1 39 4 82 13 125l183 864h367l-182 -858c-7 -33 -10 -63 -10 -91c2 -129 99 -207 239 -207c144 0 244 88 278 249l192 907h367l-209 -987c-63 -302 -312 -481 -650 -481zM932 1900l-190 288h233l91 -151h18l156 151h257l-313 -288
h-252zM794 1819c83 0 145 -62 145 -139s-62 -140 -145 -140c-84 0 -146 63 -146 140s62 139 146 139zM1217 1819c83 0 145 -62 145 -139s-62 -140 -145 -140c-84 0 -146 63 -146 140s62 139 146 139z" />
    <glyph glyph-name="Udieresisbelow" unicode="&#x1e72;" horiz-adv-x="1484" 
d="M732 -25c-368 0 -588 199 -588 479c-1 39 4 82 13 125l183 864h367l-182 -858c-7 -33 -10 -63 -10 -91c2 -129 99 -207 239 -207c144 0 244 88 278 249l192 907h367l-209 -987c-63 -302 -312 -481 -650 -481zM443 -443c-80 0 -140 60 -140 134s60 134 140 134
c79 0 139 -60 139 -134s-60 -134 -139 -134zM850 -443c-80 0 -140 60 -140 134s60 134 140 134s139 -60 139 -134s-59 -134 -139 -134z" />
    <glyph glyph-name="Utildebelow" unicode="&#x1e74;" horiz-adv-x="1484" 
d="M732 -25c-368 0 -588 199 -588 479c-1 39 4 82 13 125l183 864h367l-182 -858c-7 -33 -10 -63 -10 -91c2 -129 99 -207 239 -207c144 0 244 88 278 249l192 907h367l-209 -987c-63 -302 -312 -481 -650 -481zM784 -460c-142 0 -176 127 -255 127c-41 0 -75 -41 -92 -111
h-184c35 174 144 284 278 284c145 0 177 -127 256 -127c42 0 73 40 92 115h184c-37 -174 -147 -288 -279 -288z" />
    <glyph glyph-name="Uhookabove" unicode="&#x1ee6;" horiz-adv-x="1484" 
d="M732 -25c-368 0 -588 199 -588 479c-1 39 4 82 13 125l183 864h367l-182 -858c-7 -33 -10 -63 -10 -91c2 -129 99 -207 239 -207c144 0 244 88 278 249l192 907h367l-209 -987c-63 -302 -312 -481 -650 -481zM824 1797l33 150c39 15 100 25 152 25
c137 0 226 -68 226 -171c0 -116 -106 -236 -262 -295l-73 124c76 26 128 71 128 119c0 39 -38 63 -97 63c-32 0 -78 -6 -107 -15z" />
    <glyph glyph-name="Ubreve" unicode="&#x16c;" horiz-adv-x="1484" 
d="M732 -25c-368 0 -588 199 -588 479c-1 39 4 82 13 125l183 864h367l-182 -858c-7 -33 -10 -63 -10 -91c2 -129 99 -207 239 -207c144 0 244 88 278 249l192 907h367l-209 -987c-63 -302 -312 -481 -650 -481zM667 1865h206c-3 -12 -4 -24 -4 -36c0 -76 48 -124 138 -124
c103 0 178 64 201 160h214c-45 -185 -205 -328 -445 -328c-207 0 -317 117 -317 263c0 22 3 44 7 65z" />
    <glyph glyph-name="Uinvertedbreve" unicode="&#x216;" horiz-adv-x="1484" 
d="M732 -25c-368 0 -588 199 -588 479c-1 39 4 82 13 125l183 864h367l-182 -858c-7 -33 -10 -63 -10 -91c2 -129 99 -207 239 -207c144 0 244 88 278 249l192 907h367l-209 -987c-63 -302 -312 -481 -650 -481zM1351 1537h-206c3 11 4 23 4 35c0 76 -48 125 -138 125
c-103 0 -178 -65 -201 -160h-215c46 184 206 328 446 328c207 0 317 -117 317 -264c0 -22 -3 -44 -7 -64z" />
    <glyph glyph-name="Utildeacute" unicode="&#x1e78;" horiz-adv-x="1484" 
d="M732 -25c-368 0 -588 199 -588 479c-1 39 4 82 13 125l183 864h367l-182 -858c-7 -33 -10 -63 -10 -91c2 -129 99 -207 239 -207c144 0 244 88 278 249l192 907h367l-209 -987c-63 -302 -312 -481 -650 -481zM912 1907l250 261h300l-283 -261h-267zM1130 1537
c-139 0 -180 128 -251 128c-41 0 -78 -41 -94 -108h-181c35 172 146 280 281 280c139 0 179 -127 250 -127c44 0 79 40 96 112h182c-36 -172 -149 -285 -283 -285z" />
    <glyph glyph-name="Udotbelow" unicode="&#x1ee4;" horiz-adv-x="1484" 
d="M732 -25c-368 0 -588 199 -588 479c-1 39 4 82 13 125l183 864h367l-182 -858c-7 -33 -10 -63 -10 -91c2 -129 99 -207 239 -207c144 0 244 88 278 249l192 907h367l-209 -987c-63 -302 -312 -481 -650 -481zM646 -470c-92 0 -164 73 -164 161c0 89 72 162 164 162
s165 -73 165 -162c0 -88 -73 -161 -165 -161z" />
    <glyph glyph-name="Utilde" unicode="&#x168;" horiz-adv-x="1484" 
d="M732 -25c-368 0 -588 199 -588 479c-1 39 4 82 13 125l183 864h367l-182 -858c-7 -33 -10 -63 -10 -91c2 -129 99 -207 239 -207c144 0 244 88 278 249l192 907h367l-209 -987c-63 -302 -312 -481 -650 -481zM1146 1546c-142 0 -176 127 -255 127c-41 0 -75 -41 -92 -111
h-184c35 174 144 284 278 284c145 0 177 -127 256 -127c42 0 73 40 92 115h184c-37 -174 -147 -288 -279 -288z" />
    <glyph glyph-name="Umacron" unicode="&#x16a;" horiz-adv-x="1484" 
d="M732 -25c-368 0 -588 199 -588 479c-1 39 4 82 13 125l183 864h367l-182 -858c-7 -33 -10 -63 -10 -91c2 -129 99 -207 239 -207c144 0 244 88 278 249l192 907h367l-209 -987c-63 -302 -312 -481 -650 -481zM1387 1778l-35 -165h-721l35 165h721z" />
    <glyph glyph-name="Umacrondieresis" unicode="&#x1e7a;" horiz-adv-x="1484" 
d="M732 -25c-368 0 -588 199 -588 479c-1 39 4 82 13 125l183 864h367l-182 -858c-7 -33 -10 -63 -10 -91c2 -129 99 -207 239 -207c144 0 244 88 278 249l192 907h367l-209 -987c-63 -302 -312 -481 -650 -481zM1349 1603h-721l35 165h721zM870 1908
c-84 0 -145 63 -145 140s61 139 145 139s146 -62 146 -139s-62 -140 -146 -140zM1293 1908c-84 0 -145 63 -145 140s61 139 145 139s146 -62 146 -139s-62 -140 -146 -140z" />
    <glyph glyph-name="Uring" unicode="&#x16e;" horiz-adv-x="1484" 
d="M732 -25c-368 0 -588 199 -588 479c-1 39 4 82 13 125l183 864h367l-182 -858c-7 -33 -10 -63 -10 -91c2 -129 99 -207 239 -207c144 0 244 88 278 249l192 907h367l-209 -987c-63 -302 -312 -481 -650 -481zM1040 1569c-125 0 -231 97 -231 223c0 127 106 227 233 227
c125 0 230 -97 230 -223s-105 -227 -232 -227zM1040 1705c51 0 92 39 92 90s-41 90 -90 90c-51 0 -92 -40 -92 -92c0 -50 41 -88 90 -88z" />
    <glyph glyph-name="Uogonek" unicode="&#x172;" horiz-adv-x="1484" 
d="M990 -453c-37 -16 -94 -25 -162 -25c-141 0 -243 75 -243 194c0 95 73 189 188 255v7c-7 -2 -20 -3 -31 -3c-368 0 -598 199 -598 479c-1 39 4 82 13 124l183 865h369l-183 -859c-7 -32 -10 -63 -10 -90c2 -130 98 -207 238 -207c144 0 243 88 277 248l192 908h368
l-209 -988c-37 -179 -142 -311 -284 -397c-149 -91 -249 -176 -249 -272c0 -46 37 -74 104 -74c31 0 61 5 74 10z" />
    <glyph glyph-name="Uhorn" unicode="&#x1af;" horiz-adv-x="1739" 
d="M735 -25c-364 0 -598 196 -598 479c0 41 5 84 13 124l183 865h369l-183 -859c-7 -32 -10 -63 -10 -90c2 -123 92 -207 238 -207c144 0 243 88 277 248l192 908h384c46 0 78 24 88 71l42 194h269l-57 -266c-31 -144 -139 -227 -289 -227h-116l-161 -760
c-63 -298 -300 -480 -641 -480z" />
    <glyph glyph-name="Uhorngrave" unicode="&#x1eea;" horiz-adv-x="1739" 
d="M735 -25c-364 0 -598 196 -598 479c0 41 5 84 13 124l183 865h369l-183 -859c-7 -32 -10 -63 -10 -90c2 -123 92 -207 238 -207c144 0 243 88 277 248l192 908h384c46 0 78 24 88 71l42 194h269l-57 -266c-31 -144 -139 -227 -289 -227h-116l-161 -760
c-63 -298 -300 -480 -641 -480zM850 1556l-205 314h297l163 -314h-255z" />
    <glyph glyph-name="Uhornacute" unicode="&#x1ee8;" horiz-adv-x="1739" 
d="M735 -25c-364 0 -598 196 -598 479c0 41 5 84 13 124l183 865h369l-183 -859c-7 -32 -10 -63 -10 -90c2 -123 92 -207 238 -207c144 0 243 88 277 248l192 908h384c46 0 78 24 88 71l42 194h269l-57 -266c-31 -144 -139 -227 -289 -227h-116l-161 -760
c-63 -298 -300 -480 -641 -480zM1123 1556h-284l295 314h326z" />
    <glyph glyph-name="Uhorndotbelow" unicode="&#x1ef0;" horiz-adv-x="1739" 
d="M735 -25c-364 0 -598 196 -598 479c0 41 5 84 13 124l183 865h369l-183 -859c-7 -32 -10 -63 -10 -90c2 -123 92 -207 238 -207c144 0 243 88 277 248l192 908h384c46 0 78 24 88 71l42 194h269l-57 -266c-31 -144 -139 -227 -289 -227h-116l-161 -760
c-63 -298 -300 -480 -641 -480zM617 -470c-92 0 -164 73 -164 161c0 89 72 162 164 162s165 -73 165 -162c0 -88 -73 -161 -165 -161z" />
    <glyph glyph-name="Uhornhookabove" unicode="&#x1eec;" horiz-adv-x="1739" 
d="M735 -25c-364 0 -598 196 -598 479c0 41 5 84 13 124l183 865h369l-183 -859c-7 -32 -10 -63 -10 -90c2 -123 92 -207 238 -207c144 0 243 88 277 248l192 908h384c46 0 78 24 88 71l42 194h269l-57 -266c-31 -144 -139 -227 -289 -227h-116l-161 -760
c-63 -298 -300 -480 -641 -480zM824 1797l33 150c39 15 100 25 152 25c137 0 226 -68 226 -171c0 -116 -106 -236 -262 -295l-73 124c76 26 128 71 128 119c0 39 -38 63 -97 63c-32 0 -78 -6 -107 -15z" />
    <glyph glyph-name="Uhorntilde" unicode="&#x1eee;" horiz-adv-x="1739" 
d="M735 -25c-364 0 -598 196 -598 479c0 41 5 84 13 124l183 865h369l-183 -859c-7 -32 -10 -63 -10 -90c2 -123 92 -207 238 -207c144 0 243 88 277 248l192 908h384c46 0 78 24 88 71l42 194h269l-57 -266c-31 -144 -139 -227 -289 -227h-116l-161 -760
c-63 -298 -300 -480 -641 -480zM1146 1546c-142 0 -176 127 -255 127c-41 0 -75 -41 -92 -111h-184c35 174 144 284 278 284c145 0 177 -127 256 -127c42 0 73 40 92 115h184c-37 -174 -147 -288 -279 -288z" />
    <glyph glyph-name="V" unicode="V" horiz-adv-x="1409" 
d="M853 0h-449l-166 1443h402l58 -1061h7l499 1061h415z" />
    <glyph glyph-name="Vtilde" unicode="&#x1e7c;" horiz-adv-x="1409" 
d="M853 0h-449l-166 1443h402l58 -1061h7l499 1061h415zM1117 1546c-142 0 -176 127 -255 127c-41 0 -75 -41 -92 -111h-184c35 174 144 284 278 284c145 0 177 -127 256 -127c42 0 73 40 92 115h184c-37 -174 -147 -288 -279 -288z" />
    <glyph glyph-name="Vdotbelow" unicode="&#x1e7e;" horiz-adv-x="1409" 
d="M853 0h-449l-166 1443h402l58 -1061h7l499 1061h415zM563 -470c-92 0 -164 73 -164 161c0 89 72 162 164 162s165 -73 165 -162c0 -88 -73 -161 -165 -161z" />
    <glyph glyph-name="W" unicode="W" horiz-adv-x="1986" 
d="M1096 898l-430 -898h-348l-71 1443h373l-4 -962h7l445 962h291l48 -962h7l395 962h378l-681 -1443h-344l-59 898h-7z" />
    <glyph glyph-name="Wgrave" unicode="&#x1e80;" horiz-adv-x="1986" 
d="M1096 898l-430 -898h-348l-71 1443h373l-4 -962h7l445 962h291l48 -962h7l395 962h378l-681 -1443h-344l-59 898h-7zM1109 1556l-205 314h297l163 -314h-255z" />
    <glyph glyph-name="Wacute" unicode="&#x1e82;" horiz-adv-x="1986" 
d="M1096 898l-430 -898h-348l-71 1443h373l-4 -962h7l445 962h291l48 -962h7l395 962h378l-681 -1443h-344l-59 898h-7zM1382 1556h-284l295 314h326z" />
    <glyph glyph-name="Wdotaccent" unicode="&#x1e86;" horiz-adv-x="1986" 
d="M1096 898l-430 -898h-348l-71 1443h373l-4 -962h7l445 962h291l48 -962h7l395 962h378l-681 -1443h-344l-59 898h-7zM1281 1605c-92 0 -164 73 -164 161c0 89 72 162 164 162s165 -73 165 -162c0 -88 -73 -161 -165 -161z" />
    <glyph glyph-name="Wdotbelow" unicode="&#x1e88;" horiz-adv-x="1986" 
d="M1096 898l-430 -898h-348l-71 1443h373l-4 -962h7l445 962h291l48 -962h7l395 962h378l-681 -1443h-344l-59 898h-7zM847 -470c-92 0 -164 73 -164 161c0 89 72 162 164 162s165 -73 165 -162c0 -88 -73 -161 -165 -161z" />
    <glyph glyph-name="Wdieresis" unicode="&#x1e84;" horiz-adv-x="1986" 
d="M1096 898l-430 -898h-348l-71 1443h373l-4 -962h7l445 962h291l48 -962h7l395 962h378l-681 -1443h-344l-59 898h-7zM1065 1573c-80 0 -140 59 -140 133s60 134 140 134c79 0 139 -60 139 -134s-60 -133 -139 -133zM1472 1573c-80 0 -140 59 -140 133s60 134 140 134
s140 -60 140 -134s-60 -133 -140 -133z" />
    <glyph glyph-name="Wcircumflex" unicode="&#x174;" horiz-adv-x="1986" 
d="M1096 898l-430 -898h-348l-71 1443h373l-4 -962h7l445 962h291l48 -962h7l395 962h378l-681 -1443h-344l-59 898h-7zM1437 1869l192 -327h-247l-103 192h-7l-185 -192h-253l332 327h271z" />
    <glyph glyph-name="X" unicode="X" horiz-adv-x="1435" 
d="M-54 0l620 729l-311 714h395l191 -453h8l354 453h429l-623 -726l312 -717h-395l-194 458h-8l-358 -458h-420z" />
    <glyph glyph-name="Xdotaccent" unicode="&#x1e8a;" horiz-adv-x="1435" 
d="M-54 0l620 729l-311 714h395l191 -453h8l354 453h429l-623 -726l312 -717h-395l-194 458h-8l-358 -458h-420zM999 1605c-92 0 -164 73 -164 161c0 89 72 162 164 162s165 -73 165 -162c0 -88 -73 -161 -165 -161z" />
    <glyph glyph-name="Xdieresis" unicode="&#x1e8c;" horiz-adv-x="1435" 
d="M-54 0l620 729l-311 714h395l191 -453h8l354 453h429l-623 -726l312 -717h-395l-194 458h-8l-358 -458h-420zM782 1573c-80 0 -140 59 -140 133s60 134 140 134c79 0 139 -60 139 -134s-60 -133 -139 -133zM1189 1573c-80 0 -140 59 -140 133s60 134 140 134
s140 -60 140 -134s-60 -133 -140 -133z" />
    <glyph glyph-name="Y" unicode="Y" horiz-adv-x="1389" 
d="M796 0h-367l105 498l-296 945h380l164 -602h8l409 602h400l-699 -951z" />
    <glyph glyph-name="Ygrave" unicode="&#x1ef2;" horiz-adv-x="1389" 
d="M796 0h-367l105 498l-296 945h380l164 -602h8l409 602h400l-699 -951zM810 1556l-205 314h297l163 -314h-255z" />
    <glyph glyph-name="Yacute" unicode="&#xdd;" horiz-adv-x="1389" 
d="M796 0h-367l105 498l-296 945h380l164 -602h8l409 602h400l-699 -951zM1083 1556h-284l295 314h326z" />
    <glyph glyph-name="Ydotaccent" unicode="&#x1e8e;" horiz-adv-x="1389" 
d="M796 0h-367l105 498l-296 945h380l164 -602h8l409 602h400l-699 -951zM982 1605c-92 0 -164 73 -164 161c0 89 72 162 164 162s165 -73 165 -162c0 -88 -73 -161 -165 -161z" />
    <glyph glyph-name="Ydotbelow" unicode="&#x1ef4;" horiz-adv-x="1389" 
d="M796 0h-367l105 498l-296 945h380l164 -602h8l409 602h400l-699 -951zM546 -470c-92 0 -164 73 -164 161c0 89 72 162 164 162s165 -73 165 -162c0 -88 -73 -161 -165 -161z" />
    <glyph glyph-name="Ydieresis" unicode="&#x178;" horiz-adv-x="1389" 
d="M796 0h-367l105 498l-296 945h380l164 -602h8l409 602h400l-699 -951zM766 1573c-80 0 -140 59 -140 133s60 134 140 134c79 0 139 -60 139 -134s-60 -133 -139 -133zM1173 1573c-80 0 -140 59 -140 133s60 134 140 134s140 -60 140 -134s-60 -133 -140 -133z" />
    <glyph glyph-name="Ytilde" unicode="&#x1ef8;" horiz-adv-x="1389" 
d="M796 0h-367l105 498l-296 945h380l164 -602h8l409 602h400l-699 -951zM1106 1546c-142 0 -176 127 -255 127c-41 0 -75 -41 -92 -111h-184c35 174 144 284 278 284c145 0 177 -127 256 -127c42 0 73 40 92 115h184c-37 -174 -147 -288 -279 -288z" />
    <glyph glyph-name="Ycircumflex" unicode="&#x176;" horiz-adv-x="1389" 
d="M796 0h-367l105 498l-296 945h380l164 -602h8l409 602h400l-699 -951zM1138 1869l192 -327h-247l-103 192h-7l-185 -192h-253l332 327h271z" />
    <glyph glyph-name="Ymacron" unicode="&#x232;" horiz-adv-x="1389" 
d="M796 0h-367l105 498l-296 945h380l164 -602h8l409 602h400l-699 -951zM1347 1778l-35 -165h-721l35 165h721z" />
    <glyph glyph-name="Yhookabove" unicode="&#x1ef6;" horiz-adv-x="1389" 
d="M796 0h-367l105 498l-296 945h380l164 -602h8l409 602h400l-699 -951zM784 1797l33 150c39 15 100 25 152 25c137 0 226 -68 226 -171c0 -116 -106 -236 -262 -295l-73 124c76 26 128 71 128 119c0 39 -38 63 -97 63c-32 0 -78 -6 -107 -15z" />
    <glyph glyph-name="Z" unicode="Z" horiz-adv-x="1277" 
d="M-5 0l50 233l838 908v7h-634l64 295h1087l-50 -233l-838 -908v-7h666l-62 -295h-1121z" />
    <glyph glyph-name="Zacute" unicode="&#x179;" horiz-adv-x="1277" 
d="M-5 0l50 233l838 908v7h-634l64 295h1087l-50 -233l-838 -908v-7h666l-62 -295h-1121zM1022 1556h-284l295 314h326z" />
    <glyph glyph-name="Zcaron" unicode="&#x17d;" horiz-adv-x="1277" 
d="M-5 0l50 233l838 908v7h-634l64 295h1087l-50 -233l-838 -908v-7h666l-62 -295h-1121zM740 1542l-192 327h247l103 -192h8l184 192h253l-332 -327h-271z" />
    <glyph glyph-name="Zcircumflex" unicode="&#x1e90;" horiz-adv-x="1277" 
d="M-5 0l50 233l838 908v7h-634l64 295h1087l-50 -233l-838 -908v-7h666l-62 -295h-1121zM1077 1869l192 -327h-247l-103 192h-7l-185 -192h-253l332 327h271z" />
    <glyph glyph-name="Zlinebelow" unicode="&#x1e94;" horiz-adv-x="1277" 
d="M-5 0l50 233l838 908v7h-634l64 295h1087l-50 -233l-838 -908v-7h666l-62 -295h-1121zM880 -226l-35 -165h-721l35 165h721z" />
    <glyph glyph-name="Zdotbelow" unicode="&#x1e92;" horiz-adv-x="1277" 
d="M-5 0l50 233l838 908v7h-634l64 295h1087l-50 -233l-838 -908v-7h666l-62 -295h-1121zM501 -470c-92 0 -164 73 -164 161c0 89 72 162 164 162s165 -73 165 -162c0 -88 -73 -161 -165 -161z" />
    <glyph glyph-name="Zdotaccent" unicode="&#x17b;" horiz-adv-x="1277" 
d="M-5 0l50 233l838 908v7h-634l64 295h1087l-50 -233l-838 -908v-7h666l-62 -295h-1121zM922 1605c-92 0 -164 73 -164 161c0 89 72 162 164 162s165 -73 165 -162c0 -88 -73 -161 -165 -161z" />
    <glyph glyph-name="AE" unicode="&#xc6;" horiz-adv-x="2035" 
d="M1126 1167h-120l-339 -575h337zM878 0l69 327h-431l-194 -327h-371l873 1443h1337l-63 -295h-646l-61 -290h609l-58 -270h-609l-62 -293h645l-62 -295h-976z" />
    <glyph glyph-name="AEmacron" unicode="&#x1e2;" horiz-adv-x="2035" 
d="M1126 1167h-120l-339 -575h337zM878 0l69 327h-431l-194 -327h-371l873 1443h1337l-63 -295h-646l-61 -290h609l-58 -270h-609l-62 -293h645l-62 -295h-976zM1893 1778l-35 -165h-721l35 165h721z" />
    <glyph glyph-name="AEacute" unicode="&#x1fc;" horiz-adv-x="2035" 
d="M1126 1167h-120l-339 -575h337zM878 0l69 327h-431l-194 -327h-371l873 1443h1337l-63 -295h-646l-61 -290h609l-58 -270h-609l-62 -293h645l-62 -295h-976zM1629 1556h-284l295 314h326z" />
    <glyph glyph-name="OE" unicode="&#x152;" horiz-adv-x="2236" 
d="M1142 0l35 174h-7c-96 -124 -265 -199 -449 -199c-343 0 -575 251 -575 620c0 498 333 873 790 873c207 0 365 -94 454 -266h6l53 241h903l-63 -295h-621l-61 -288h584l-58 -270h-584l-63 -295h622l-62 -295h-904zM1209 829c0 208 -111 341 -283 341
c-229 0 -408 -251 -408 -556c0 -207 111 -341 282 -341c230 0 409 251 409 556z" />
    <glyph glyph-name="Eth" unicode="&#xd0;" horiz-adv-x="1473" 
d="M466 294h199c255 0 437 210 437 543c0 193 -104 312 -289 312h-166l-58 -274h222l-63 -295h-221zM340 1443h557c346 0 582 -207 582 -560c0 -516 -307 -883 -764 -883h-682l123 580h-116l63 295h116z" />
    <glyph glyph-name="Thorn" unicode="&#xde;" horiz-adv-x="1365" 
d="M52 0l307 1443h368l-47 -219h238c262 0 453 -174 453 -413c0 -303 -245 -545 -595 -545h-301l-57 -266h-366zM617 941l-84 -395h206c163 0 267 90 267 227c0 108 -69 168 -201 168h-188z" />
    <glyph glyph-name="Alphagreek" unicode="&#x391;" horiz-adv-x="1446" 
d="M890 1121l-276 -540h324l-40 540h-8zM977 0l-24 317h-471l-163 -317h-388l804 1443h449l166 -1443h-373z" />
    <glyph glyph-name="Betagreek" unicode="&#x392;" horiz-adv-x="1366" 
d="M778 0h-745l307 1443h631c274 0 422 -133 422 -310c0 -191 -140 -335 -334 -374l-1 -7c154 -33 263 -144 263 -292c0 -268 -226 -460 -543 -460zM648 1205l-71 -334h208c144 0 241 82 241 195c0 85 -63 139 -184 139h-194zM448 260h246c158 0 259 87 259 217
c0 98 -70 157 -205 157h-221z" />
    <glyph glyph-name="Gammagreek" unicode="&#x393;" horiz-adv-x="1129" 
d="M414 0h-381l307 1443h961l-63 -295h-580z" />
    <glyph glyph-name="Deltagreek" unicode="&#x394;" horiz-adv-x="1466" 
d="M1315 0h-1325l41 196l714 1247h449l162 -1249zM896 1145l-447 -843l-1 -7h536l1 7l-81 843h-8z" />
    <glyph glyph-name="Deltagreek" unicode="&#x2206;" horiz-adv-x="1466" 
d="M1315 0h-1325l41 196l714 1247h449l162 -1249zM896 1145l-447 -843l-1 -7h536l1 7l-81 843h-8z" />
    <glyph glyph-name="Epsilongreek" unicode="&#x395;" horiz-adv-x="1191" 
d="M1084 295l-62 -295h-989l307 1443h988l-63 -295h-621l-61 -288h584l-58 -270h-584l-63 -295h622z" />
    <glyph glyph-name="Zetagreek" unicode="&#x396;" horiz-adv-x="1277" 
d="M-5 0l50 233l838 908v7h-634l64 295h1087l-50 -233l-838 -908v-7h666l-62 -295h-1121z" />
    <glyph glyph-name="Etagreek" unicode="&#x397;" horiz-adv-x="1540" 
d="M1341 0h-375l125 584h-559l-124 -584h-375l307 1443h375l-122 -568h559l121 568h375z" />
    <glyph glyph-name="Thetagreek" unicode="&#x398;" horiz-adv-x="1636" 
d="M1085 575h-456l58 281h457zM800 -25c-404 0 -661 245 -661 630c0 504 342 862 838 862c405 0 661 -244 661 -629c0 -504 -342 -863 -838 -863zM1274 828c0 216 -119 350 -321 350c-259 0 -450 -250 -450 -565c0 -215 118 -347 320 -347c260 0 451 248 451 562z" />
    <glyph glyph-name="Iotagreek" unicode="&#x399;" horiz-adv-x="598" 
d="M400 0h-367l307 1443h367z" />
    <glyph glyph-name="Iotagreek.1" horiz-adv-x="1042" 
d="M1136 1161h-268l-187 -879h268l-60 -282h-268h-367h-268l60 282h268l187 879h-268l60 282h268h367h268z" />
    <glyph glyph-name="Kappagreek" unicode="&#x39a;" horiz-adv-x="1410" 
d="M400 0h-367l307 1443h367l-131 -616h7l611 616h423l-660 -669l354 -774h-404l-254 566l-169 -168z" />
    <glyph glyph-name="Lambdagreek" unicode="&#x39b;" horiz-adv-x="1425" 
d="M880 1121l-550 -1121h-389l784 1443h449l146 -1443h-372l-60 1121h-8z" />
    <glyph glyph-name="Mugreek" unicode="&#x39c;" horiz-adv-x="1816" 
d="M359 0h-326l307 1443h422l148 -978h7l550 978h458l-307 -1443h-327l205 959h-11l-548 -957h-223l-144 957h-7z" />
    <glyph glyph-name="Nugreek" unicode="&#x39d;" horiz-adv-x="1491" 
d="M385 0h-352l307 1443h288l426 -882h7l186 882h353l-307 -1443h-288l-426 882h-7z" />
    <glyph glyph-name="Xigreek" unicode="&#x39e;" horiz-adv-x="1275" 
d="M310 1443h1103l-65 -304h-1103zM1144 584h-929l59 279h929zM68 304h1103l-65 -304h-1103z" />
    <glyph glyph-name="Omicrongreek" unicode="&#x39f;" horiz-adv-x="1570" 
d="M918 1170c-227 0 -408 -249 -408 -556c0 -207 111 -341 282 -341c228 0 409 248 409 556c0 209 -112 341 -283 341zM782 -25c-400 0 -644 261 -644 618c0 516 346 875 788 875c408 0 647 -262 647 -618c0 -517 -350 -875 -791 -875z" />
    <glyph glyph-name="Pigreek" unicode="&#x3a0;" horiz-adv-x="1520" 
d="M1321 0h-374l244 1148h-539l-245 -1148h-374l307 1443h1288z" />
    <glyph glyph-name="Rhogreek" unicode="&#x3a1;" horiz-adv-x="1326" 
d="M340 1443h537c315 0 504 -173 504 -435c0 -361 -257 -585 -651 -585h-239l-90 -423h-367zM647 1161l-98 -461h181c171 0 282 113 282 275c0 124 -77 186 -211 186h-154z" />
    <glyph glyph-name="Sigmagreek" unicode="&#x3a3;" horiz-adv-x="1293" 
d="M514 301l-1 -7h682l-63 -294h-1137l45 213l448 517l-216 464l54 249h1090l-63 -295h-629l-1 -7l165 -394l-5 -18z" />
    <glyph glyph-name="Taugreek" unicode="&#x3a4;" horiz-adv-x="1284" 
d="M743 0h-368l244 1148h-416l63 295h1199l-63 -295h-416z" />
    <glyph glyph-name="Upsilongreek" unicode="&#x3a5;" horiz-adv-x="1389" 
d="M796 0h-367l105 498l-296 945h380l164 -602h8l409 602h400l-699 -951z" />
    <glyph glyph-name="Phigreek" unicode="&#x3a6;" horiz-adv-x="1912" 
d="M679 -131l33 153c-374 47 -577 283 -577 600c0 420 318 751 871 782l31 151h332l-34 -159c363 -44 578 -271 578 -603c0 -418 -323 -748 -871 -778l-32 -146h-331zM772 303l174 821c-269 -34 -455 -207 -455 -499c0 -181 105 -296 281 -322zM1101 294
c282 36 455 218 455 499c0 184 -108 297 -281 322z" />
    <glyph glyph-name="Chigreek" unicode="&#x3a7;" horiz-adv-x="1435" 
d="M-54 0l620 729l-311 714h395l191 -453h8l354 453h429l-623 -726l312 -717h-395l-194 458h-8l-358 -458h-420z" />
    <glyph glyph-name="Psigreek" unicode="&#x3a8;" horiz-adv-x="1785" 
d="M981 0h-343l62 292c-327 25 -503 177 -503 437c0 41 4 82 13 125l125 589h344l-116 -552c-13 -59 -18 -93 -18 -122c0 -126 68 -183 216 -189l184 863h343l-186 -874c203 17 285 96 323 276l128 598h345l-135 -636c-73 -341 -284 -504 -722 -525z" />
    <glyph glyph-name="Omegagreek" unicode="&#x3a9;" horiz-adv-x="1608" 
d="M836 0l72 342c220 95 351 281 351 506c0 195 -133 323 -322 323c-247 0 -418 -191 -418 -476c0 -162 61 -268 182 -353l-72 -342h-605l59 280h275l1 7c-135 101 -206 249 -206 412c0 487 361 770 821 770c387 0 642 -228 642 -569c0 -251 -140 -490 -382 -612l-2 -8h291
l-60 -280h-627z" />
    <glyph glyph-name="Omegagreek" unicode="&#x2126;" horiz-adv-x="1608" 
d="M836 0l72 342c220 95 351 281 351 506c0 195 -133 323 -322 323c-247 0 -418 -191 -418 -476c0 -162 61 -268 182 -353l-72 -342h-605l59 280h275l1 7c-135 101 -206 249 -206 412c0 487 361 770 821 770c387 0 642 -228 642 -569c0 -251 -140 -490 -382 -612l-2 -8h291
l-60 -280h-627z" />
    <glyph glyph-name="Alphatonosgreek" unicode="&#x386;" horiz-adv-x="1446" 
d="M890 1121l-276 -540h324l-40 540h-8zM977 0l-24 317h-471l-163 -317h-388l804 1443h449l166 -1443h-373zM79 1112l152 331h351l-227 -331h-276z" />
    <glyph glyph-name="Epsilontonosgreek" unicode="&#x388;" horiz-adv-x="1629" 
d="M153 1112l152 331h351l-227 -331h-276zM1522 295l-62 -295h-989l307 1443h988l-63 -295h-621l-61 -288h584l-58 -270h-584l-63 -295h622z" />
    <glyph glyph-name="Etatonosgreek" unicode="&#x389;" horiz-adv-x="1978" 
d="M153 1112l152 331h351l-227 -331h-276zM1779 0h-375l125 584h-559l-124 -584h-375l307 1443h375l-122 -568h559l121 568h375z" />
    <glyph glyph-name="Iotatonosgreek" unicode="&#x38a;" horiz-adv-x="1037" 
d="M153 1112l152 331h351l-227 -331h-276zM838 0h-367l307 1443h367z" />
    <glyph glyph-name="Iotadieresisgreek" unicode="&#x3aa;" horiz-adv-x="598" 
d="M400 0h-367l307 1443h367zM375 1573c-80 0 -140 59 -140 133s60 134 140 134c79 0 139 -60 139 -134s-60 -133 -139 -133zM782 1573c-80 0 -140 59 -140 133s60 134 140 134s140 -60 140 -134s-60 -133 -140 -133z" />
    <glyph glyph-name="Iotatonosgreek.1" horiz-adv-x="1490" 
d="M305 1443h351l-227 -331h-276zM1585 1161h-268l-187 -879h268l-60 -282h-268h-367h-268l60 282h268l187 879h-268l60 282h268h367h268z" />
    <glyph glyph-name="Iotadieresisgreek.1" horiz-adv-x="1042" 
d="M1003 1573c-80 0 -140 59 -140 133s60 134 140 134s140 -60 140 -134s-60 -133 -140 -133zM596 1573c-80 0 -140 59 -140 133s60 134 140 134c79 0 139 -60 139 -134s-60 -133 -139 -133zM1136 1161h-268l-187 -879h268l-60 -282h-268h-367h-268l60 282h268l187 879h-268
l60 282h268h367h268z" />
    <glyph glyph-name="Omicrontonosgreek" unicode="&#x38c;" horiz-adv-x="1853" 
d="M153 1112l152 331h351l-227 -331h-276zM1201 1170c-227 0 -408 -249 -408 -556c0 -207 111 -341 282 -341c228 0 409 248 409 556c0 209 -112 341 -283 341zM1065 -25c-400 0 -644 261 -644 618c0 516 346 875 788 875c408 0 647 -262 647 -618
c0 -517 -350 -875 -791 -875z" />
    <glyph glyph-name="Upsilontonosgreek" unicode="&#x38e;" horiz-adv-x="1973" 
d="M254 1112l152 331h351l-227 -331h-276zM1380 0h-367l105 498l-296 945h380l164 -602h8l409 602h400l-699 -951z" />
    <glyph glyph-name="Upsilondieresisgreek" unicode="&#x3ab;" horiz-adv-x="1389" 
d="M796 0h-367l105 498l-296 945h380l164 -602h8l409 602h400l-699 -951zM766 1573c-80 0 -140 59 -140 133s60 134 140 134c79 0 139 -60 139 -134s-60 -133 -139 -133zM1173 1573c-80 0 -140 59 -140 133s60 134 140 134s140 -60 140 -134s-60 -133 -140 -133z" />
    <glyph glyph-name="Omegatonosgreek" unicode="&#x38f;" horiz-adv-x="1928" 
d="M153 1112l152 331h351l-227 -331h-276zM1156 0l72 342c220 95 351 281 351 506c0 195 -133 323 -322 323c-247 0 -418 -191 -418 -476c0 -162 61 -268 182 -353l-72 -342h-605l59 280h275l1 7c-135 101 -206 249 -206 412c0 487 361 770 821 770c387 0 642 -228 642 -569
c0 -251 -140 -490 -382 -612l-2 -8h291l-60 -280h-627z" />
    <glyph glyph-name="Acyrillic" unicode="&#x410;" horiz-adv-x="1456" 
d="M895 1121l-276 -540h324l-40 540h-8zM982 0l-24 317h-471l-163 -317h-388l804 1443h449l166 -1443h-373z" />
    <glyph glyph-name="uni04D0" unicode="&#x4d0;" horiz-adv-x="1456" 
d="M895 1121l-276 -540h324l-40 540h-8zM982 0l-24 317h-471l-163 -317h-388l804 1443h449l166 -1443h-373zM677 1868h212c-18 -94 36 -146 130 -146c100 0 171 52 193 146h212c-42 -193 -180 -315 -414 -315c-232 0 -366 116 -333 315z" />
    <glyph glyph-name="uni04D2" unicode="&#x4d2;" horiz-adv-x="1456" 
d="M895 1121l-276 -540h324l-40 540h-8zM982 0l-24 317h-471l-163 -317h-388l804 1443h449l166 -1443h-373zM815 1573c-80 0 -140 59 -140 133s60 134 140 134c79 0 139 -60 139 -134s-60 -133 -139 -133zM1222 1573c-80 0 -140 59 -140 133s60 134 140 134
s140 -60 140 -134s-60 -133 -140 -133z" />
    <glyph glyph-name="uniF50E" horiz-adv-x="1456" 
d="M895 1121l-276 -540h324l-40 540h-8zM982 0l-24 317h-471l-163 -317h-388l804 1443h449l166 -1443h-373zM1396 1778l-35 -165h-721l35 165h721z" />
    <glyph glyph-name="uniF460" horiz-adv-x="1456" 
d="M895 1121l-276 -540h324l-40 540h-8zM982 0l-24 317h-471l-163 -317h-388l804 1443h449l166 -1443h-373zM1132 1556h-284l295 314h326z" />
    <glyph glyph-name="Becyrillic" unicode="&#x411;" horiz-adv-x="1343" 
d="M653 0h-615l306 1443h1022l-63 -295h-653l-49 -230h187c319 0 509 -144 509 -391c0 -311 -251 -527 -644 -527zM464 278h188c164 0 279 90 279 216c0 102 -75 157 -206 157h-181z" />
    <glyph glyph-name="Vecyrillic" unicode="&#x412;" horiz-adv-x="1376" 
d="M783 0h-745l307 1443h631c274 0 422 -133 422 -310c0 -191 -140 -335 -334 -374l-1 -7c154 -33 263 -144 263 -292c0 -268 -226 -460 -543 -460zM653 1205l-71 -334h208c144 0 241 82 241 195c0 85 -63 139 -184 139h-194zM453 260h246c158 0 259 87 259 217
c0 98 -70 157 -205 157h-221z" />
    <glyph glyph-name="Gecyrillic" unicode="&#x413;" horiz-adv-x="1156" 
d="M404 0h-366l307 1443h971l-63 -295h-604z" />
    <glyph glyph-name="Gjecyrillic" unicode="&#x403;" horiz-adv-x="1156" 
d="M404 0h-366l307 1443h971l-63 -295h-604zM978 1556h-284l295 314h326z" />
    <glyph glyph-name="Geupturncyrillic" unicode="&#x490;" horiz-adv-x="1156" 
d="M649 1148l-244 -1148h-367l307 1443h627l60 285h345l-124 -580h-604z" />
    <glyph glyph-name="uni04F6" unicode="&#x4f6;" horiz-adv-x="1156" 
d="M345 1443h971l-63 -295h-604l-182 -853h180l-123 -580h-330l61 285h-217z" />
    <glyph glyph-name="uni0492" unicode="&#x492;" horiz-adv-x="1156" 
d="M1253 1148h-604l-68 -317h399l-54 -256h-399l-123 -575h-366l122 575h-120l54 256h121l130 612h971z" />
    <glyph glyph-name="uniF53C" horiz-adv-x="1159" 
d="M419 0h-381l307 1443h981l-63 -295h-600l-70 -329h544l-61 -281h-543z" />
    <glyph glyph-name="uni04FA" unicode="&#x4fa;" horiz-adv-x="1156" 
d="M1253 1148h-604l-68 -317h399l-54 -256h-399l-123 -575l-2 -13c-55 -257 -186 -357 -469 -357c-48 0 -108 6 -142 16l55 256c10 -3 38 -4 52 -4c84 0 126 33 145 127l2 10v0l115 540h-120l54 256h121l130 612h971z" />
    <glyph glyph-name="Decyrillic" unicode="&#x414;" horiz-adv-x="1581" 
d="M627 644c-43 -154 -87 -262 -156 -329l-4 -19h525l181 853h-405zM251 0l-61 -285h-329l124 581h98c114 76 160 181 215 380l210 767h1095l-244 -1147h180l-124 -581h-330l61 285h-895z" />
    <glyph glyph-name="uni0414.BUL" horiz-adv-x="1635" 
d="M285 0l-61 -285h-329l124 581h156l625 1147h464l147 -1147h164l-124 -581h-329l61 285h-898zM949 1110l-401 -801h496l-83 801h-12z" />
    <glyph glyph-name="Iecyrillic" unicode="&#x415;" horiz-adv-x="1201" 
d="M1089 295l-62 -295h-989l307 1443h988l-63 -295h-621l-61 -288h584l-58 -270h-584l-63 -295h622z" />
    <glyph glyph-name="Iocyrillic" unicode="&#x401;" horiz-adv-x="1201" 
d="M1089 295l-62 -295h-989l307 1443h988l-63 -295h-621l-61 -288h584l-58 -270h-584l-63 -295h622zM670 1573c-80 0 -140 59 -140 133s60 134 140 134c79 0 139 -60 139 -134s-60 -133 -139 -133zM1077 1573c-80 0 -140 59 -140 133s60 134 140 134s140 -60 140 -134
s-60 -133 -140 -133z" />
    <glyph glyph-name="uni04D6" unicode="&#x4d6;" horiz-adv-x="1201" 
d="M1089 295l-62 -295h-989l307 1443h988l-63 -295h-621l-61 -288h584l-58 -270h-584l-63 -295h622zM533 1868h212c-18 -94 36 -146 130 -146c100 0 171 52 193 146h212c-42 -193 -180 -315 -414 -315c-232 0 -366 116 -333 315z" />
    <glyph glyph-name="uniF510" horiz-adv-x="1201" 
d="M1089 295l-62 -295h-989l307 1443h988l-63 -295h-621l-61 -288h584l-58 -270h-584l-63 -295h622zM1251 1778l-35 -165h-721l35 165h721z" />
    <glyph glyph-name="uniF512" horiz-adv-x="1201" 
d="M1089 295l-62 -295h-989l307 1443h988l-63 -295h-621l-61 -288h584l-58 -270h-584l-63 -295h622zM653 1819c83 0 145 -62 145 -139s-62 -140 -145 -140c-84 0 -146 63 -146 140s62 139 146 139zM1314 2098l-35 -165h-721l35 165h721zM1076 1819c83 0 145 -62 145 -139
s-62 -140 -145 -140c-84 0 -146 63 -146 140s62 139 146 139z" />
    <glyph glyph-name="uni0400" unicode="&#x400;" horiz-adv-x="1201" 
d="M1089 295l-62 -295h-989l307 1443h988l-63 -295h-621l-61 -288h584l-58 -270h-584l-63 -295h622zM714 1556l-205 314h297l163 -314h-255z" />
    <glyph glyph-name="uniF461" horiz-adv-x="1201" 
d="M1089 295l-62 -295h-989l307 1443h988l-63 -295h-621l-61 -288h584l-58 -270h-584l-63 -295h622zM987 1556h-284l295 314h326z" />
    <glyph glyph-name="uniF469" horiz-adv-x="1201" 
d="M1089 295l-62 -295h-989l307 1443h988l-63 -295h-621l-61 -288h584l-58 -270h-584l-63 -295h622zM947 1585h-223l93 333h335zM1278 1573c-85 0 -147 64 -147 141c-1 78 62 141 147 141c84 0 147 -63 147 -141c0 -77 -62 -141 -147 -141zM531 1573c-84 0 -147 64 -147 141
c0 78 62 141 147 141s147 -63 148 -141c0 -77 -63 -141 -148 -141z" />
    <glyph glyph-name="uniF514" horiz-adv-x="1201" 
d="M588 2192h247c-2 -7 -2 -14 -2 -20c0 -58 44 -92 116 -92c81 0 145 42 163 112h247c-38 -178 -214 -295 -448 -295c-206 0 -330 92 -330 235c0 19 2 39 7 60zM455 1568c38 177 214 294 448 294c206 0 330 -91 330 -235c0 -19 -2 -38 -7 -59h-246c1 7 1 13 1 19
c0 58 -44 92 -117 92c-81 0 -144 -42 -162 -111h-247zM1089 295l-62 -295h-989l307 1443h988l-63 -295h-621l-61 -288h584l-58 -270h-584l-63 -295h622z" />
    <glyph glyph-name="Zhecyrillic" unicode="&#x416;" horiz-adv-x="2126" 
d="M926 580l-555 -580h-432l716 752l-353 691h376l306 -604h13l129 604h359l-129 -605h14l563 605h390l-692 -746l372 -697h-377l-310 580h-15l-123 -580h-359l123 580h-16z" />
    <glyph glyph-name="uni04C1" unicode="&#x4c1;" horiz-adv-x="2126" 
d="M926 580l-555 -580h-432l716 752l-353 691h376l306 -604h13l129 604h359l-129 -605h14l563 605h390l-692 -746l372 -697h-377l-310 580h-15l-123 -580h-359l123 580h-16zM1017 1865h206c-3 -12 -4 -24 -4 -36c0 -76 48 -124 138 -124c103 0 178 64 201 160h214
c-45 -185 -205 -328 -445 -328c-207 0 -317 117 -317 263c0 22 3 44 7 65z" />
    <glyph glyph-name="uni04DC" unicode="&#x4dc;" horiz-adv-x="2126" 
d="M926 580l-555 -580h-432l716 752l-353 691h376l306 -604h13l129 604h359l-129 -605h14l563 605h390l-692 -746l372 -697h-377l-310 580h-15l-123 -580h-359l123 580h-16zM1156 1573c-80 0 -140 59 -140 133s60 134 140 134c79 0 139 -60 139 -134s-60 -133 -139 -133z
M1563 1573c-80 0 -140 59 -140 133s60 134 140 134s140 -60 140 -134s-60 -133 -140 -133z" />
    <glyph glyph-name="uni0496" unicode="&#x496;" horiz-adv-x="2224" 
d="M1631 697l215 -402h280l-123 -580h-330l61 285h-108l-310 580h-15l-123 -580h-359l123 580h-16l-555 -580h-432l716 752l-353 691h376l306 -604h13l129 604h359l-129 -605h14l563 605h390z" />
    <glyph glyph-name="uni0416.BUL" horiz-adv-x="2151" 
d="M2347 1443l-612 -650l306 -793h-388l-199 573l-175 -175l-84 -398h-366l85 398l-94 163l-449 -561h-432l682 829l-335 614h389l309 -620h20l132 620h366l-133 -620h20l563 620h395z" />
    <glyph glyph-name="Zecyrillic" unicode="&#x417;" horiz-adv-x="1323" 
d="M508 608l54 262h181c153 0 247 64 247 166c0 92 -79 151 -202 151c-114 0 -208 -64 -225 -154h-333c36 256 276 435 587 435c307 0 522 -159 522 -386c0 -182 -139 -328 -337 -354l-1 -7c157 -38 250 -149 250 -300c0 -260 -250 -446 -598 -446c-371 0 -615 205 -570 479
h338c-6 -114 93 -196 237 -196c136 0 237 80 237 187c0 101 -90 163 -238 163h-149z" />
    <glyph glyph-name="uni04DE" unicode="&#x4de;" horiz-adv-x="1323" 
d="M508 608l54 262h181c153 0 247 64 247 166c0 92 -79 151 -202 151c-114 0 -208 -64 -225 -154h-333c36 256 276 435 587 435c307 0 522 -159 522 -386c0 -182 -139 -328 -337 -354l-1 -7c157 -38 250 -149 250 -300c0 -260 -250 -446 -598 -446c-371 0 -615 205 -570 479
h338c-6 -114 93 -196 237 -196c136 0 237 80 237 187c0 101 -90 163 -238 163h-149zM706 1573c-80 0 -140 59 -140 133s60 134 140 134c79 0 139 -60 139 -134s-60 -133 -139 -133zM1113 1573c-80 0 -140 59 -140 133s60 134 140 134s140 -60 140 -134s-60 -133 -140 -133z
" />
    <glyph glyph-name="uni0498" unicode="&#x498;" horiz-adv-x="1323" 
d="M1002 728l-1 -7c157 -38 250 -149 250 -300c0 -222 -183 -390 -453 -435l-58 -271h-312l59 275c-275 52 -442 234 -404 464h338c-6 -114 93 -196 237 -196c136 0 237 80 237 187c0 101 -90 163 -238 163h-149l54 262h181c153 0 247 64 247 166c0 92 -79 151 -202 151
c-114 0 -208 -64 -225 -154h-333c36 256 276 435 587 435c307 0 522 -159 522 -386c0 -182 -139 -328 -337 -354z" />
    <glyph glyph-name="uniF50A" horiz-adv-x="1323" 
d="M1002 728l-1 -7c157 -38 250 -149 250 -300c0 -246 -223 -425 -542 -444l-49 -68c97 -9 150 -62 150 -148c0 -132 -129 -227 -309 -227c-59 0 -118 7 -147 18l32 150c30 -9 75 -15 117 -15c75 0 115 18 115 52c0 33 -32 45 -121 45h-58l26 113l63 86
c-299 41 -485 229 -445 471h338c-6 -114 93 -196 237 -196c136 0 237 80 237 187c0 101 -90 163 -238 163h-149l54 262h181c153 0 247 64 247 166c0 92 -79 151 -202 151c-114 0 -208 -64 -225 -154h-333c36 256 276 435 587 435c307 0 522 -159 522 -386
c0 -182 -139 -328 -337 -354z" />
    <glyph glyph-name="uniF516" horiz-adv-x="1323" 
d="M508 608l54 262h181c153 0 247 64 247 166c0 92 -79 151 -202 151c-114 0 -208 -64 -225 -154h-333c36 256 276 435 587 435c307 0 522 -159 522 -386c0 -182 -139 -328 -337 -354l-1 -7c157 -38 250 -149 250 -300c0 -260 -250 -446 -598 -446c-371 0 -615 205 -570 479
h338c-6 -114 93 -196 237 -196c136 0 237 80 237 187c0 101 -90 163 -238 163h-149zM741 1542l-192 327h247l103 -192h8l184 192h253l-332 -327h-271z" />
    <glyph glyph-name="Iicyrillic" unicode="&#x418;" horiz-adv-x="1557" 
d="M994 0l190 892h-19l-776 -892h-351l307 1443h359l-191 -893h19l777 893h351l-307 -1443h-359z" />
    <glyph glyph-name="Iishortcyrillic" unicode="&#x419;" horiz-adv-x="1557" 
d="M994 0l190 892h-19l-776 -892h-351l307 1443h359l-191 -893h19l777 893h351l-307 -1443h-359zM716 1868h212c-18 -94 36 -146 130 -146c100 0 171 52 193 146h212c-42 -193 -180 -315 -414 -315c-232 0 -366 116 -333 315z" />
    <glyph glyph-name="uni040D" unicode="&#x40d;" horiz-adv-x="1557" 
d="M994 0l190 892h-19l-776 -892h-351l307 1443h359l-191 -893h19l777 893h351l-307 -1443h-359zM897 1556l-205 314h297l163 -314h-255z" />
    <glyph glyph-name="uni04E2" unicode="&#x4e2;" horiz-adv-x="1557" 
d="M994 0l190 892h-19l-776 -892h-351l307 1443h359l-191 -893h19l777 893h351l-307 -1443h-359zM1434 1778l-35 -165h-721l35 165h721z" />
    <glyph glyph-name="uni04E4" unicode="&#x4e4;" horiz-adv-x="1557" 
d="M994 0l190 892h-19l-776 -892h-351l307 1443h359l-191 -893h19l777 893h351l-307 -1443h-359zM853 1573c-80 0 -140 59 -140 133s60 134 140 134c79 0 139 -60 139 -134s-60 -133 -139 -133zM1260 1573c-80 0 -140 59 -140 133s60 134 140 134s140 -60 140 -134
s-60 -133 -140 -133z" />
    <glyph glyph-name="uni048A" unicode="&#x48a;" horiz-adv-x="1726" 
d="M1251 1868h212c-42 -193 -180 -315 -414 -315c-232 0 -366 116 -333 315h212c-18 -94 36 -146 130 -146c100 0 171 52 193 146zM1660 1443l-244 -1148h222l-14 -68l-260 -512h-332l141 285h-179l190 892h-19l-776 -892h-351l307 1443h359l-191 -893h19l777 893h351z" />
    <glyph glyph-name="uniF462" horiz-adv-x="1557" 
d="M994 0l190 892h-19l-776 -892h-351l307 1443h359l-191 -893h19l777 893h351l-307 -1443h-359zM1170 1556h-284l295 314h326z" />
    <glyph glyph-name="uniF532" horiz-adv-x="1557" 
d="M1251 1868h212c-42 -193 -180 -315 -414 -315c-232 0 -366 116 -333 315h212c-18 -94 36 -146 130 -146c100 0 171 52 193 146zM1660 1443l-307 -1442l15 -1l-17 -13c-55 -257 -186 -357 -469 -357c-48 0 -108 6 -142 16l54 256c10 -3 34 -4 49 -4c91 0 129 33 149 127
l9 9l183 858h-19l-776 -892h-351l307 1443h359l-191 -893h19l777 893h351z" />
    <glyph glyph-name="Kacyrillic" unicode="&#x41a;" horiz-adv-x="1429" 
d="M1619 1443l-741 -741l446 -702h-411l-372 580h-12l-124 -580h-367l307 1443h367l-128 -601h10l600 601h425z" />
    <glyph glyph-name="Kjecyrillic" unicode="&#x40c;" horiz-adv-x="1429" 
d="M1410 1870l-337 -314h-284l295 314h326zM1619 1443l-741 -741l446 -702h-411l-372 580h-12l-124 -580h-367l307 1443h367l-128 -601h10l600 601h425z" />
    <glyph glyph-name="uni049A" unicode="&#x49a;" horiz-adv-x="1511" 
d="M878 702l258 -407h277l-123 -580h-330l61 285h-108l-372 580h-12l-124 -580h-367l307 1443h367l-128 -601h10l600 601h425z" />
    <glyph glyph-name="uni049C" unicode="&#x49c;" horiz-adv-x="1555" 
d="M1742 1443l-544 -736l235 -707h-394l-190 570h-21l-59 -277h-206l59 277h-97l-121 -570h-366l307 1443h366l-130 -612h96l61 288h207l-61 -288h19l451 612h388z" />
    <glyph glyph-name="uni049E" unicode="&#x49e;" horiz-adv-x="1429" 
d="M1619 1443l-741 -741l446 -702h-411l-372 580h-12l-124 -580h-367l232 1092h-130l49 233h131l25 118h367l-25 -118h159l-49 -233h-160l-53 -250h10l600 601h425z" />
    <glyph glyph-name="uni04A0" unicode="&#x4a0;" horiz-adv-x="1946" 
d="M2137 1443l-741 -741l446 -702h-411l-372 580h-12l-124 -580h-367l244 1148h-597l63 295h597h367l-128 -601h10l600 601h425z" />
    <glyph glyph-name="uni04C3" unicode="&#x4c3;" horiz-adv-x="1419" 
d="M555 -424c-60 0 -115 6 -145 14l60 283c22 -5 51 -7 87 -7c232 0 364 201 364 390c0 176 -140 288 -376 288h-24l-116 -544h-366l307 1443h366l-129 -604h8l598 604h425l-658 -662c225 -85 341 -266 341 -494c0 -340 -267 -711 -742 -711z" />
    <glyph glyph-name="uni041A.BUL" horiz-adv-x="1410" 
d="M400 0h-367l307 1443h367l-131 -616h7l611 616h423l-660 -669l354 -774h-404l-254 566l-169 -168z" />
    <glyph glyph-name="Elcyrillic" unicode="&#x41b;" horiz-adv-x="1490" 
d="M1287 0h-367l243 1148h-365l-148 -562c-99 -379 -242 -600 -587 -600c-61 0 -107 8 -126 14l68 315c14 -3 40 -8 72 -8c124 0 196 124 243 306l215 830h1059z" />
    <glyph glyph-name="uni04C5" unicode="&#x4c5;" horiz-adv-x="1651" 
d="M1594 1443l-244 -1148h213l-14 -68l-259 -512h-332l141 285h-179l243 1148h-365l-148 -562c-99 -379 -242 -600 -587 -600c-61 0 -107 8 -126 14l68 315c14 -3 40 -8 72 -8c124 0 196 124 243 306l215 830h1059z" />
    <glyph glyph-name="uniF530" horiz-adv-x="1634" 
d="M1594 1443l-244 -1148h179l-123 -580h-330l61 285h-217l243 1148h-365l-148 -562c-99 -379 -242 -600 -587 -600c-61 0 -107 8 -126 14l68 315c14 -3 40 -8 72 -8c124 0 196 124 243 306l215 830h1059z" />
    <glyph glyph-name="uni052E" unicode="&#x52e;" horiz-adv-x="1634" 
d="M1594 1443l-244 -1148h179l-123 -580h-330l61 285h-217l243 1148h-365l-148 -562c-99 -379 -242 -600 -587 -600c-61 0 -107 8 -126 14l68 315c14 -3 40 -8 72 -8c124 0 196 124 243 306l215 830h1059z" />
    <glyph glyph-name="uni0512" unicode="&#x512;" horiz-adv-x="1490" 
d="M1594 1443l-307 -1442l8 -1l-11 -13c-54 -257 -185 -357 -468 -357c-48 0 -108 6 -142 16l54 256c10 -3 34 -4 49 -4c87 0 125 33 144 127l6 10v0l236 1113h-365l-148 -562c-99 -379 -242 -600 -587 -600c-61 0 -107 8 -126 14l68 315c14 -3 40 -8 72 -8
c124 0 196 124 243 306l215 830h1059z" />
    <glyph glyph-name="uni041B.BUL" horiz-adv-x="1413" 
d="M-63 0l755 1443h464l154 -1443h-418l-50 1061h-17l-488 -1061h-400z" />
    <glyph glyph-name="Emcyrillic" unicode="&#x41c;" horiz-adv-x="1826" 
d="M364 0h-326l307 1443h422l148 -978h7l550 978h458l-307 -1443h-327l205 959h-11l-548 -957h-223l-144 957h-7z" />
    <glyph glyph-name="uni04CD" unicode="&#x4cd;" horiz-adv-x="2028" 
d="M1686 295h254l-14 -68l-260 -512h-332l141 285h-179l63 295v0l142 664h-11l-548 -957h-223l-144 957h-7l-204 -959h-326l307 1443h422l148 -978h7l550 978h458z" />
    <glyph glyph-name="Encyrillic" unicode="&#x41d;" horiz-adv-x="1550" 
d="M1346 0h-375l125 584h-559l-124 -584h-375l307 1443h375l-122 -568h559l121 568h375z" />
    <glyph glyph-name="uni04C7" unicode="&#x4c7;" horiz-adv-x="1550" 
d="M1278 1443h375l-307 -1443h-1l-2 -13c-54 -257 -186 -357 -469 -357c-47 0 -108 6 -142 16l55 256c10 -3 33 -4 48 -4c84 0 121 33 141 127l2 10v0l118 549h-559l-124 -584h-375l307 1443h375l-122 -568h559z" />
    <glyph glyph-name="uni04A2" unicode="&#x4a2;" horiz-adv-x="1686" 
d="M1653 1443l-244 -1148h172l-123 -580h-330l61 285h-218l125 584h-559l-124 -584h-375l307 1443h375l-122 -568h559l121 568h375z" />
    <glyph glyph-name="uni04C9" unicode="&#x4c9;" horiz-adv-x="1703" 
d="M1653 1443l-244 -1148h206l-14 -68l-259 -512h-332l141 285h-180l63 295v0l62 289h-559l-124 -584h-375l307 1443h375l-122 -568h559l121 568h375z" />
    <glyph glyph-name="uni04A4" unicode="&#x4a4;" horiz-adv-x="2005" 
d="M2165 1443l-62 -295h-513l-244 -1148h-375l125 584h-559l-124 -584h-375l307 1443h375l-122 -568h559l121 568h375h512z" />
    <glyph glyph-name="Ocyrillic" unicode="&#x41e;" horiz-adv-x="1580" 
d="M923 1170c-227 0 -408 -249 -408 -556c0 -207 111 -341 282 -341c228 0 409 248 409 556c0 209 -112 341 -283 341zM787 -25c-400 0 -644 261 -644 618c0 516 346 875 788 875c408 0 647 -262 647 -618c0 -517 -350 -875 -791 -875z" />
    <glyph glyph-name="uni04E6" unicode="&#x4e6;" horiz-adv-x="1580" 
d="M923 1170c-227 0 -408 -249 -408 -556c0 -207 111 -341 282 -341c228 0 409 248 409 556c0 209 -112 341 -283 341zM787 -25c-400 0 -644 261 -644 618c0 516 346 875 788 875c408 0 647 -262 647 -618c0 -517 -350 -875 -791 -875zM796 1573c-80 0 -140 59 -140 133
s60 134 140 134c79 0 139 -60 139 -134s-60 -133 -139 -133zM1203 1573c-80 0 -140 59 -140 133s60 134 140 134s140 -60 140 -134s-60 -133 -140 -133z" />
    <glyph glyph-name="uniF518" horiz-adv-x="1580" 
d="M923 1170c-227 0 -408 -249 -408 -556c0 -207 111 -341 282 -341c228 0 409 248 409 556c0 209 -112 341 -283 341zM787 -25c-400 0 -644 261 -644 618c0 516 346 875 788 875c408 0 647 -262 647 -618c0 -517 -350 -875 -791 -875zM1377 1778l-35 -165h-721l35 165h721z
" />
    <glyph glyph-name="uniF463" horiz-adv-x="1580" 
d="M923 1170c-227 0 -408 -249 -408 -556c0 -207 111 -341 282 -341c228 0 409 248 409 556c0 209 -112 341 -283 341zM787 -25c-400 0 -644 261 -644 618c0 516 346 875 788 875c408 0 647 -262 647 -618c0 -517 -350 -875 -791 -875zM1113 1556h-284l295 314h326z" />
    <glyph glyph-name="uniF4D2" horiz-adv-x="1580" 
d="M923 1170c-227 0 -408 -249 -408 -556c0 -207 111 -341 282 -341c228 0 409 248 409 556c0 209 -112 341 -283 341zM787 -25c-400 0 -644 261 -644 618c0 516 346 875 788 875c408 0 647 -262 647 -618c0 -517 -350 -875 -791 -875zM840 1556l-205 314h297l163 -314h-255
z" />
    <glyph glyph-name="uniF51A" horiz-adv-x="1580" 
d="M923 1170c-227 0 -408 -249 -408 -556c0 -207 111 -341 282 -341c228 0 409 248 409 556c0 209 -112 341 -283 341zM787 -25c-400 0 -644 261 -644 618c0 516 346 875 788 875c408 0 647 -262 647 -618c0 -517 -350 -875 -791 -875zM659 1868h212
c-18 -94 36 -146 130 -146c100 0 171 52 193 146h212c-42 -193 -180 -315 -414 -315c-232 0 -366 116 -333 315z" />
    <glyph glyph-name="uni04E8" unicode="&#x4e8;" horiz-adv-x="1580" 
d="M1171 592h-660c8 -194 119 -319 286 -319s309 130 374 319zM556 867h653c-13 187 -123 303 -286 303c-162 0 -300 -123 -367 -303zM931 1468c408 0 647 -262 647 -618c0 -517 -350 -875 -791 -875c-400 0 -644 261 -644 618c0 516 346 875 788 875z" />
    <glyph glyph-name="uniF49A" horiz-adv-x="1580" 
d="M1450 1778l-35 -165h-721l35 165h721zM1171 592h-660c8 -194 119 -319 286 -319s309 130 374 319zM556 867h653c-13 187 -123 303 -286 303c-162 0 -300 -123 -367 -303zM931 1468c408 0 647 -262 647 -618c0 -517 -350 -875 -791 -875c-400 0 -644 261 -644 618
c0 516 346 875 788 875z" />
    <glyph glyph-name="uniF51C" horiz-adv-x="1580" 
d="M1267 1868h212c-42 -193 -180 -315 -414 -315c-232 0 -366 116 -333 315h212c-18 -94 36 -146 130 -146c100 0 171 52 193 146zM1171 592h-660c8 -194 119 -319 286 -319s309 130 374 319zM556 867h653c-13 187 -123 303 -286 303c-162 0 -300 -123 -367 -303zM931 1468
c408 0 647 -262 647 -618c0 -517 -350 -875 -791 -875c-400 0 -644 261 -644 618c0 516 346 875 788 875z" />
    <glyph glyph-name="uniF51E" horiz-adv-x="1580" 
d="M1316 2192h247c-38 -178 -215 -295 -448 -295c-206 0 -330 92 -330 235c0 19 2 39 7 60h246c-1 -7 -1 -14 -1 -20c0 -58 44 -92 116 -92c81 0 145 42 163 112zM1430 1568h-247c2 7 2 13 2 19c0 58 -44 92 -117 92c-81 0 -144 -42 -162 -111h-247c38 177 214 294 448 294
c206 0 330 -91 330 -235c0 -19 -2 -38 -7 -59zM1171 592h-660c8 -194 119 -319 286 -319s309 130 374 319zM556 867h653c-13 187 -123 303 -286 303c-162 0 -300 -123 -367 -303zM931 1468c408 0 647 -262 647 -618c0 -517 -350 -875 -791 -875c-400 0 -644 261 -644 618
c0 516 346 875 788 875z" />
    <glyph glyph-name="uni04EA" unicode="&#x4ea;" horiz-adv-x="1580" 
d="M1276 1573c-80 0 -140 59 -140 133s60 134 140 134s140 -60 140 -134s-60 -133 -140 -133zM869 1573c-80 0 -140 59 -140 133s60 134 140 134c79 0 139 -60 139 -134s-60 -133 -139 -133zM1171 592h-660c8 -194 119 -319 286 -319s309 130 374 319zM556 867h653
c-13 187 -123 303 -286 303c-162 0 -300 -123 -367 -303zM931 1468c408 0 647 -262 647 -618c0 -517 -350 -875 -791 -875c-400 0 -644 261 -644 618c0 516 346 875 788 875z" />
    <glyph glyph-name="uni0472" unicode="&#x472;" horiz-adv-x="1580" 
d="M797 273c175 0 323 144 384 349c-60 -46 -126 -67 -187 -67c-147 0 -221 75 -342 75c-61 0 -110 -21 -140 -44c10 -191 120 -313 285 -313zM923 1170c-173 0 -319 -141 -380 -341c53 41 114 63 176 63c150 0 222 -75 347 -75c62 0 112 20 143 44
c-11 191 -121 309 -286 309zM931 1468c408 0 647 -262 647 -618c0 -517 -350 -875 -791 -875c-400 0 -644 261 -644 618c0 516 346 875 788 875z" />
    <glyph glyph-name="Pecyrillic" unicode="&#x41f;" horiz-adv-x="1536" 
d="M1333 0h-367l244 1148h-562l-243 -1148h-367l307 1443h1295z" />
    <glyph glyph-name="uni0524" unicode="&#x524;" horiz-adv-x="1681" 
d="M1640 1443l-244 -1148h180l-123 -580h-330l61 285h-218l244 1148h-562l-243 -1148h-367l307 1443h1295z" />
    <glyph glyph-name="Dzhecyrillic" unicode="&#x40f;" horiz-adv-x="1536" 
d="M1333 0h-464l-61 -285h-311l61 285h-520l307 1443h366l-244 -1148h562l244 1148h367z" />
    <glyph glyph-name="Ercyrillic" unicode="&#x420;" horiz-adv-x="1336" 
d="M345 1443h537c315 0 504 -173 504 -435c0 -361 -257 -585 -651 -585h-239l-90 -423h-367zM652 1161l-98 -461h181c171 0 282 113 282 275c0 124 -77 186 -211 186h-154z" />
    <glyph glyph-name="uni048E" unicode="&#x48e;" horiz-adv-x="1334" 
d="M552 700h181h6l-71 164l187 81l77 -175c54 49 84 120 84 205c0 124 -77 186 -211 186h-155zM343 1443h538c314 0 504 -173 504 -435c0 -236 -110 -413 -296 -508l68 -151l-247 -119l-87 197c-29 -3 -59 -4 -90 -4h-239l-90 -423h-366z" />
    <glyph glyph-name="uniF4D4" horiz-adv-x="1336" 
d="M345 1443h537c315 0 504 -173 504 -435c0 -361 -257 -585 -651 -585h-239l-90 -423h-367zM652 1161l-98 -461h181c171 0 282 113 282 275c0 124 -77 186 -211 186h-154zM631 1542l-192 327h247l103 -192h8l184 192h253l-332 -327h-271z" />
    <glyph glyph-name="Escyrillic" unicode="&#x421;" horiz-adv-x="1517" 
d="M1191 889c1 6 0 12 0 37c-5 141 -117 242 -264 242c-239 0 -407 -234 -407 -561c0 -204 104 -329 274 -329c153 0 276 93 324 243h357c-57 -327 -339 -546 -704 -546c-382 0 -628 240 -628 611c0 529 324 882 818 882c340 0 586 -216 590 -523c1 -23 -1 -42 -3 -56h-357z
" />
    <glyph glyph-name="uni04AA" unicode="&#x4aa;" horiz-adv-x="1517" 
d="M1548 889h-357c1 6 0 12 0 37c-5 141 -117 242 -264 242c-239 0 -407 -234 -407 -561c0 -204 104 -329 274 -329c153 0 276 93 324 243h357c-53 -306 -304 -518 -636 -543l-50 -69c97 -9 150 -62 150 -148c0 -132 -129 -227 -309 -227c-59 0 -118 7 -147 18l32 150
c30 -9 75 -15 117 -15c75 0 115 18 115 52c0 33 -32 45 -121 45h-58l26 113l63 86c-316 43 -514 270 -514 603c0 529 324 882 818 882c340 0 586 -216 590 -523c1 -23 -1 -42 -3 -56z" />
    <glyph glyph-name="uniF53E" horiz-adv-x="1517" 
d="M1548 889h-357c1 6 0 12 0 37c-5 141 -117 242 -264 242c-239 0 -407 -234 -407 -561c0 -204 104 -329 274 -329c153 0 276 93 324 243h357c-49 -280 -262 -481 -552 -533l-58 -273h-312l59 275c-290 58 -469 280 -469 596c0 529 324 882 818 882
c340 0 586 -216 590 -523c1 -23 -1 -42 -3 -56z" />
    <glyph glyph-name="Tecyrillic" unicode="&#x422;" horiz-adv-x="1294" 
d="M748 0h-368l244 1148h-416l63 295h1199l-63 -295h-416z" />
    <glyph glyph-name="uni04AC" unicode="&#x4ac;" horiz-adv-x="1294" 
d="M271 1443h1199l-63 -295h-416l-181 -853h180l-124 -580h-329l61 285h-218l244 1148h-416z" />
    <glyph glyph-name="Ucyrillic" unicode="&#x423;" horiz-adv-x="1406" 
d="M303 -15c-79 0 -135 14 -138 16l62 290c2 -1 29 -9 87 -9c73 0 140 23 193 81l-238 1080h384l114 -730h19l412 730h395l-667 -1040c-169 -263 -332 -418 -623 -418z" />
    <glyph glyph-name="Ushortcyrillic" unicode="&#x40e;" horiz-adv-x="1406" 
d="M303 -15c-79 0 -135 14 -138 16l62 290c2 -1 29 -9 87 -9c73 0 140 23 193 81l-238 1080h384l114 -730h19l412 730h395l-667 -1040c-169 -263 -332 -418 -623 -418zM636 1868h212c-18 -94 36 -146 130 -146c100 0 171 52 193 146h212c-42 -193 -180 -315 -414 -315
c-232 0 -366 116 -333 315z" />
    <glyph glyph-name="uni04EE" unicode="&#x4ee;" horiz-adv-x="1406" 
d="M303 -15c-79 0 -135 14 -138 16l62 290c2 -1 29 -9 87 -9c73 0 140 23 193 81l-238 1080h384l114 -730h19l412 730h395l-667 -1040c-169 -263 -332 -418 -623 -418zM1355 1778l-35 -165h-721l35 165h721z" />
    <glyph glyph-name="uni04F0" unicode="&#x4f0;" horiz-adv-x="1406" 
d="M303 -15c-79 0 -135 14 -138 16l62 290c2 -1 29 -9 87 -9c73 0 140 23 193 81l-238 1080h384l114 -730h19l412 730h395l-667 -1040c-169 -263 -332 -418 -623 -418zM774 1573c-80 0 -140 59 -140 133s60 134 140 134c79 0 139 -60 139 -134s-60 -133 -139 -133z
M1181 1573c-80 0 -140 59 -140 133s60 134 140 134s140 -60 140 -134s-60 -133 -140 -133z" />
    <glyph glyph-name="uni04F2" unicode="&#x4f2;" horiz-adv-x="1406" 
d="M303 -15c-79 0 -135 14 -138 16l62 290c2 -1 29 -9 87 -9c73 0 140 23 193 81l-238 1080h384l114 -730h19l412 730h395l-667 -1040c-169 -263 -332 -418 -623 -418zM1327 1556h-283l296 314h324zM854 1556h-282l295 314h324z" />
    <glyph glyph-name="uniF4CC" horiz-adv-x="1406" 
d="M303 -15c-79 0 -135 14 -138 16l62 290c2 -1 29 -9 87 -9c73 0 140 23 193 81l-238 1080h384l114 -730h19l412 730h395l-667 -1040c-169 -263 -332 -418 -623 -418zM1091 1556h-284l295 314h326z" />
    <glyph glyph-name="uniF464" horiz-adv-x="1406" 
d="M303 -15c-79 0 -135 14 -138 16l62 290c2 -1 29 -9 87 -9c73 0 140 23 193 81l-238 1080h384l114 -730h19l412 730h395l-667 -1040c-169 -263 -332 -418 -623 -418zM1091 1556h-284l295 314h326z" />
    <glyph glyph-name="Efcyrillic" unicode="&#x424;" horiz-adv-x="1881" 
d="M1030 -35h-363l33 155c-348 14 -564 215 -564 521c0 400 321 667 820 684l33 153h363l-33 -153c348 -13 565 -214 565 -524c0 -396 -322 -664 -821 -681zM513 655c0 -147 90 -239 251 -249l135 634c-225 -13 -386 -170 -386 -385zM1507 782c0 155 -90 247 -251 257
l-136 -633c227 13 387 169 387 376z" />
    <glyph glyph-name="Xacyrillic" unicode="&#x425;" horiz-adv-x="1445" 
d="M-49 0l620 729l-311 714h395l191 -453h8l354 453h429l-623 -726l312 -717h-395l-194 458h-8l-358 -458h-420z" />
    <glyph glyph-name="uni04B2" unicode="&#x4b2;" horiz-adv-x="1534" 
d="M1012 717l184 -422h240l-124 -580h-329l61 285h-109h-6l-194 458h-8l-358 -458h-420l620 729l-311 714h395l191 -453h8l354 453h429z" />
    <glyph glyph-name="uni04FE" unicode="&#x4fe;" horiz-adv-x="1445" 
d="M1368 849l-55 -255h-245l258 -594h-395l-194 458h-8l-358 -458h-420l505 594h-246l53 255h256l-259 594h395l191 -453h8l354 453h429l-510 -594h241z" />
    <glyph glyph-name="uni04FC" unicode="&#x4fc;" horiz-adv-x="1457" 
d="M256 1443h395l191 -453h8l353 453h428l-622 -727l155 -350c37 -85 62 -149 78 -207c16 -57 22 -103 22 -157c0 -247 -196 -419 -479 -419c-68 0 -137 5 -170 11l59 275c22 -4 42 -5 75 -5c89 0 151 55 151 135c0 24 -3 48 -11 76c-9 34 -22 71 -41 113l-114 270h-8
l-358 -458h-420l619 728z" />
    <glyph glyph-name="Tsecyrillic" unicode="&#x426;" horiz-adv-x="1628" 
d="M1454 -285h-330l61 285h-1146l307 1443h368l-245 -1148h560l244 1148h369l-245 -1148h180z" />
    <glyph glyph-name="uni04B4" unicode="&#x4b4;" horiz-adv-x="1895" 
d="M1908 1443l-244 -1148h180l-124 -580h-329l61 285h-1146l244 1148h-342l63 295h342h367h339l-62 -295h-340l-181 -853h560l244 1148h368z" />
    <glyph glyph-name="Checyrillic" unicode="&#x427;" horiz-adv-x="1477" 
d="M1273 0h-367l120 565h-10c-86 -52 -197 -87 -345 -87c-331 0 -500 246 -427 589l81 376h367l-82 -383c-36 -168 30 -274 208 -274c117 0 215 35 272 81l123 576h367z" />
    <glyph glyph-name="uni04F4" unicode="&#x4f4;" horiz-adv-x="1477" 
d="M1273 0h-367l120 565h-10c-86 -52 -197 -87 -345 -87c-331 0 -500 246 -427 589l81 376h367l-82 -383c-36 -168 30 -274 208 -274c117 0 215 35 272 81l123 576h367zM801 1573c-80 0 -140 59 -140 133s60 134 140 134c79 0 139 -60 139 -134s-60 -133 -139 -133z
M1208 1573c-80 0 -140 59 -140 133s60 134 140 134s140 -60 140 -134s-60 -133 -140 -133z" />
    <glyph glyph-name="uni04B6" unicode="&#x4b6;" horiz-adv-x="1621" 
d="M1580 1443l-244 -1148h179l-123 -580h-330l61 285h-217l120 565h-10c-86 -52 -197 -87 -345 -87c-331 0 -500 246 -427 589l81 376h367l-82 -383c-36 -168 30 -274 208 -274c117 0 215 35 272 81l123 576h367z" />
    <glyph glyph-name="uni04CB" unicode="&#x4cb;" horiz-adv-x="1477" 
d="M1580 1443l-244 -1148h5l-68 -295h-217l-66 -285h-330l135 580h174l57 270h-10c-86 -52 -197 -87 -345 -87c-331 0 -500 246 -427 589l81 376h367l-82 -383c-36 -168 30 -274 208 -274c117 0 215 35 272 81l123 576h367z" />
    <glyph glyph-name="uniF4C6" horiz-adv-x="1477" 
d="M1580 1443l-307 -1442l8 -1l-10 -13c-55 -257 -186 -357 -469 -357c-48 0 -108 6 -142 16l55 256c10 -3 33 -4 48 -4c88 0 125 33 145 127l5 9l113 531h-10c-86 -52 -197 -87 -345 -87c-331 0 -500 246 -427 589l81 376h367l-82 -383c-36 -168 30 -274 208 -274
c117 0 215 35 272 81l123 576h367z" />
    <glyph glyph-name="uni04B8" unicode="&#x4b8;" horiz-adv-x="1497" 
d="M1234 1443h367l-307 -1443h-367l119 565h-10c-44 -27 -96 -48 -155 -63l-45 -210h-230l40 186c-321 8 -484 251 -411 589l80 376h367l-82 -383c-28 -134 8 -229 114 -261l57 268h230l-57 -269c70 14 128 38 167 69z" />
    <glyph glyph-name="uni04BA" unicode="&#x4ba;" horiz-adv-x="1484" 
d="M345 1443h367l-122 -571h19c95 61 219 100 353 100c329 0 492 -216 423 -537l-92 -435h-367l84 400c37 168 -36 264 -205 264c-121 0 -220 -44 -284 -120l-116 -544h-367z" />
    <glyph glyph-name="uniF49E" horiz-adv-x="1484" 
d="M590 872h19c95 61 219 100 353 100c329 0 492 -216 423 -537l-92 -435h-367l84 400c37 168 -36 264 -205 264c-121 0 -220 -44 -284 -120l-116 -544h-367l232 1090h-146l50 237h146l25 116h367l-25 -116h366l-51 -237h-365z" />
    <glyph glyph-name="uni0526" unicode="&#x526;" horiz-adv-x="1640" 
d="M1355 295h180l-123 -580h-330l61 285h-217l84 400c37 168 -36 264 -205 264c-121 0 -220 -44 -284 -120l-116 -544h-367l307 1443h367l-122 -571h19c95 61 219 100 353 100c329 0 492 -216 423 -537z" />
    <glyph glyph-name="Tshecyrillic" unicode="&#x40b;" horiz-adv-x="1764" 
d="M1114 599c-115 0 -211 -64 -268 -137l-98 -462h-368l244 1148h-400l63 295h1168l-63 -295h-401l-74 -350h10c75 60 193 108 325 108c327 0 478 -209 407 -542l-77 -364h-368l78 364c30 142 -29 235 -178 235z" />
    <glyph glyph-name="Shacyrillic" unicode="&#x428;" horiz-adv-x="2043" 
d="M38 0l307 1443h367l-245 -1148h350l245 1148h367l-244 -1148h349l245 1148h368l-307 -1443h-1802z" />
    <glyph glyph-name="Shchacyrillic" unicode="&#x429;" horiz-adv-x="2125" 
d="M1959 -285h-330l61 285h-1652l307 1443h367l-245 -1148h350l245 1148h367l-244 -1148h349l245 1148h368l-245 -1148h180z" />
    <glyph glyph-name="Hardsigncyrillic" unicode="&#x42a;" horiz-adv-x="1586" 
d="M904 0h-615l245 1149h-338l63 294h705l-95 -443h170c319 0 509 -161 509 -443c0 -339 -256 -557 -644 -557zM963 718h-153l-94 -440h188c163 0 277 102 277 250c0 124 -82 190 -218 190z" />
    <glyph glyph-name="Yericyrillic" unicode="&#x42b;" horiz-adv-x="1933" 
d="M711 718h-153l-94 -440h188c163 0 278 102 278 250c0 124 -83 190 -219 190zM38 0l307 1443h367l-94 -443h169c319 0 510 -161 510 -443c0 -339 -256 -557 -644 -557h-615zM1734 0h-367l307 1443h367z" />
    <glyph glyph-name="uni04F8" unicode="&#x4f8;" horiz-adv-x="1933" 
d="M711 718h-153l-94 -440h188c163 0 278 102 278 250c0 124 -83 190 -219 190zM38 0l307 1443h367l-94 -443h169c319 0 510 -161 510 -443c0 -339 -256 -557 -644 -557h-615zM1734 0h-367l307 1443h367zM1008 1573c-80 0 -140 59 -140 133s60 134 140 134
c79 0 139 -60 139 -134s-60 -133 -139 -133zM1415 1573c-80 0 -140 59 -140 133s60 134 140 134s140 -60 140 -134s-60 -133 -140 -133z" />
    <glyph glyph-name="uniF520" horiz-adv-x="1933" 
d="M711 718h-153l-94 -440h188c163 0 278 102 278 250c0 124 -83 190 -219 190zM38 0l307 1443h367l-94 -443h169c319 0 510 -161 510 -443c0 -339 -256 -557 -644 -557h-615zM1734 0h-367l307 1443h367zM1589 1778l-35 -165h-721l35 165h721z" />
    <glyph glyph-name="uniF536" horiz-adv-x="1933" 
d="M711 718h-153l-94 -440h188c163 0 278 102 278 250c0 124 -83 190 -219 190zM38 0l307 1443h367l-94 -443h169c319 0 510 -161 510 -443c0 -339 -256 -557 -644 -557h-615zM1734 0h-367l307 1443h367zM871 1868h212c-18 -94 36 -146 130 -146c100 0 171 52 193 146h212
c-42 -193 -180 -315 -414 -315c-232 0 -366 116 -333 315z" />
    <glyph glyph-name="uniF465" horiz-adv-x="1933" 
d="M711 718h-153l-94 -440h188c163 0 278 102 278 250c0 124 -83 190 -219 190zM38 0l307 1443h367l-94 -443h169c319 0 510 -161 510 -443c0 -339 -256 -557 -644 -557h-615zM1734 0h-367l307 1443h367zM1325 1556h-284l295 314h326z" />
    <glyph glyph-name="uni048C" unicode="&#x48c;" horiz-adv-x="1378" 
d="M509 278h188c162 0 275 95 275 234c0 109 -85 166 -225 166h-153zM653 955h169c324 0 516 -152 516 -413c0 -331 -254 -542 -640 -542h-616l232 1091h-184l50 235h185l43 204h367l-43 -204h355l-50 -235h-355z" />
    <glyph glyph-name="uni0462" unicode="&#x462;" horiz-adv-x="1378" 
d="M509 278h188c162 0 275 95 275 234c0 109 -85 166 -225 166h-153zM653 955h169c324 0 516 -152 516 -413c0 -331 -254 -542 -640 -542h-616l232 1091h-184l50 235h185l43 204h367l-43 -204h355l-50 -235h-355z" />
    <glyph glyph-name="Softsigncyrillic" unicode="&#x42c;" horiz-adv-x="1334" 
d="M711 718h-153l-94 -440h188c163 0 278 102 278 250c0 124 -83 190 -219 190zM38 0l307 1443h367l-94 -443h169c319 0 510 -161 510 -443c0 -339 -256 -557 -644 -557h-615z" />
    <glyph glyph-name="Ljecyrillic" unicode="&#x409;" horiz-adv-x="2215" 
d="M650 586c-101 -387 -240 -600 -587 -600c-61 0 -107 8 -126 14l68 315c14 -3 40 -8 72 -8c128 0 197 128 243 306l215 830h1057l-94 -438h170c319 0 509 -163 509 -444c0 -331 -251 -561 -645 -561h-615l245 1148h-364zM1592 723h-153l-95 -445h188
c163 0 278 104 278 250c0 128 -82 195 -218 195z" />
    <glyph glyph-name="Njecyrillic" unicode="&#x40a;" horiz-adv-x="2209" 
d="M922 0l129 605h-517l-129 -605h-366l307 1443h367l-118 -551h517l117 551h368l-117 -550h193c312 0 498 -148 498 -385c0 -299 -244 -508 -634 -508h-615zM1349 278h195c155 0 258 79 258 195c0 99 -77 145 -196 145h-185z" />
    <glyph glyph-name="Ereversedcyrillic" unicode="&#x42d;" horiz-adv-x="1502" 
d="M731 -25c-358 0 -604 217 -611 538h357c15 -143 118 -230 272 -230c175 0 306 115 354 312h-531l59 266h505c0 187 -102 301 -273 301c-139 0 -256 -91 -308 -239h-358c76 339 339 545 698 545c390 0 624 -270 601 -690c-20 -483 -324 -803 -765 -803z" />
    <glyph glyph-name="uni04EC" unicode="&#x4ec;" horiz-adv-x="1502" 
d="M731 -25c-358 0 -604 217 -611 538h357c15 -143 118 -230 272 -230c175 0 306 115 354 312h-531l59 266h505c0 187 -102 301 -273 301c-139 0 -256 -91 -308 -239h-358c76 339 339 545 698 545c390 0 624 -270 601 -690c-20 -483 -324 -803 -765 -803zM751 1573
c-80 0 -140 59 -140 133s60 134 140 134c79 0 139 -60 139 -134s-60 -133 -139 -133zM1158 1573c-80 0 -140 59 -140 133s60 134 140 134s140 -60 140 -134s-60 -133 -140 -133z" />
    <glyph glyph-name="uniF522" horiz-adv-x="1502" 
d="M731 -25c-358 0 -604 217 -611 538h357c15 -143 118 -230 272 -230c175 0 306 115 354 312h-531l59 266h505c0 187 -102 301 -273 301c-139 0 -256 -91 -308 -239h-358c76 339 339 545 698 545c390 0 624 -270 601 -690c-20 -483 -324 -803 -765 -803zM1332 1778
l-35 -165h-721l35 165h721z" />
    <glyph glyph-name="uniF466" horiz-adv-x="1502" 
d="M731 -25c-358 0 -604 217 -611 538h357c15 -143 118 -230 272 -230c175 0 306 115 354 312h-531l59 266h505c0 187 -102 301 -273 301c-139 0 -256 -91 -308 -239h-358c76 339 339 545 698 545c390 0 624 -270 601 -690c-20 -483 -324 -803 -765 -803zM1068 1556h-284
l295 314h326z" />
    <glyph glyph-name="uniF524" horiz-adv-x="1502" 
d="M731 -25c-358 0 -604 217 -611 538h357c15 -143 118 -230 272 -230c175 0 306 115 354 312h-531l59 266h505c0 187 -102 301 -273 301c-139 0 -256 -91 -308 -239h-358c76 339 339 545 698 545c390 0 624 -270 601 -690c-20 -483 -324 -803 -765 -803zM613 1868h212
c-18 -94 36 -146 130 -146c100 0 171 52 193 146h212c-42 -193 -180 -315 -414 -315c-232 0 -366 116 -333 315z" />
    <glyph glyph-name="uniF4D6" horiz-adv-x="1502" 
d="M731 -25c-358 0 -604 217 -611 538h357c15 -143 118 -230 272 -230c175 0 306 115 354 312h-531l59 266h505c0 187 -102 301 -273 301c-139 0 -256 -91 -308 -239h-358c76 339 339 545 698 545c390 0 624 -270 601 -690c-20 -483 -324 -803 -765 -803zM967 1605
c-92 0 -164 73 -164 161c0 89 72 162 164 162s165 -73 165 -162c0 -88 -73 -161 -165 -161z" />
    <glyph glyph-name="IUcyrillic" unicode="&#x42e;" horiz-adv-x="2157" 
d="M1382 273c224 0 401 248 401 556c0 209 -108 341 -275 341c-222 0 -399 -249 -399 -556c0 -207 107 -341 273 -341zM591 877h191c98 359 384 591 734 591c403 0 639 -262 639 -618c0 -517 -346 -875 -782 -875c-391 0 -623 256 -628 607h-217l-124 -582h-366l307 1443
h367z" />
    <glyph glyph-name="uniF52C" horiz-adv-x="2157" 
d="M1542 1778l-35 -165h-721l35 165h721zM1382 273c224 0 401 248 401 556c0 209 -108 341 -275 341c-222 0 -399 -249 -399 -556c0 -207 107 -341 273 -341zM591 877h191c98 359 384 591 734 591c403 0 639 -262 639 -618c0 -517 -346 -875 -782 -875
c-391 0 -623 256 -628 607h-217l-124 -582h-366l307 1443h367z" />
    <glyph glyph-name="uniF467" horiz-adv-x="2157" 
d="M1615 1870l-337 -314h-284l295 314h326zM1382 273c224 0 401 248 401 556c0 209 -108 341 -275 341c-222 0 -399 -249 -399 -556c0 -207 107 -341 273 -341zM591 877h191c98 359 384 591 734 591c403 0 639 -262 639 -618c0 -517 -346 -875 -782 -875
c-391 0 -623 256 -628 607h-217l-124 -582h-366l307 1443h367z" />
    <glyph glyph-name="uniF52E" horiz-adv-x="2157" 
d="M1358 1868h212c-42 -193 -180 -315 -414 -315c-232 0 -366 116 -333 315h212c-18 -94 36 -146 130 -146c100 0 171 52 193 146zM1382 273c224 0 401 248 401 556c0 209 -108 341 -275 341c-222 0 -399 -249 -399 -556c0 -207 107 -341 273 -341zM591 877h191
c98 359 384 591 734 591c403 0 639 -262 639 -618c0 -517 -346 -875 -782 -875c-391 0 -623 256 -628 607h-217l-124 -582h-366l307 1443h367z" />
    <glyph glyph-name="uniF498" horiz-adv-x="2157" 
d="M1368 1573c-80 0 -140 59 -140 133s60 134 140 134s140 -60 140 -134s-60 -133 -140 -133zM961 1573c-80 0 -140 59 -140 133s60 134 140 134c79 0 139 -60 139 -134s-60 -133 -139 -133zM1382 273c224 0 401 248 401 556c0 209 -108 341 -275 341
c-222 0 -399 -249 -399 -556c0 -207 107 -341 273 -341zM591 877h191c98 359 384 591 734 591c403 0 639 -262 639 -618c0 -517 -346 -875 -782 -875c-391 0 -623 256 -628 607h-217l-124 -582h-366l307 1443h367z" />
    <glyph glyph-name="IAcyrillic" unicode="&#x42f;" horiz-adv-x="1407" 
d="M827 755h177l85 403h-201c-170 0 -279 -87 -279 -218c0 -118 86 -185 218 -185zM817 496l-427 -496h-427l484 561c-132 66 -212 203 -212 373c0 301 250 509 645 509h631l-307 -1443h-368l106 496h-125v0z" />
    <glyph glyph-name="uniF528" horiz-adv-x="1407" 
d="M827 755h177l85 403h-201c-170 0 -279 -87 -279 -218c0 -118 86 -185 218 -185zM817 496l-427 -496h-427l484 561c-132 66 -212 203 -212 373c0 301 250 509 645 509h631l-307 -1443h-368l106 496h-125v0zM1441 1778l-35 -165h-721l35 165h721z" />
    <glyph glyph-name="uniF468" horiz-adv-x="1407" 
d="M827 755h177l85 403h-201c-170 0 -279 -87 -279 -218c0 -118 86 -185 218 -185zM817 496l-427 -496h-427l484 561c-132 66 -212 203 -212 373c0 301 250 509 645 509h631l-307 -1443h-368l106 496h-125v0zM1177 1556h-284l295 314h326z" />
    <glyph glyph-name="uniF4D9" horiz-adv-x="1407" 
d="M827 755h177l85 403h-201c-170 0 -279 -87 -279 -218c0 -118 86 -185 218 -185zM817 496l-427 -496h-427l484 561c-132 66 -212 203 -212 373c0 301 250 509 645 509h631l-307 -1443h-368l106 496h-125v0zM860 1573c-80 0 -140 59 -140 133s60 134 140 134
c79 0 139 -60 139 -134s-60 -133 -139 -133zM1267 1573c-80 0 -140 59 -140 133s60 134 140 134s140 -60 140 -134s-60 -133 -140 -133z" />
    <glyph glyph-name="uniF52A" horiz-adv-x="1407" 
d="M827 755h177l85 403h-201c-170 0 -279 -87 -279 -218c0 -118 86 -185 218 -185zM817 496l-427 -496h-427l484 561c-132 66 -212 203 -212 373c0 301 250 509 645 509h631l-307 -1443h-368l106 496h-125v0zM723 1868h212c-18 -94 36 -146 130 -146c100 0 171 52 193 146
h212c-42 -193 -180 -315 -414 -315c-232 0 -366 116 -333 315z" />
    <glyph glyph-name="uni0494" unicode="&#x494;" horiz-adv-x="1423" 
d="M1302 1443l-64 -295h-590l-74 -350h17c90 65 205 108 353 108c251 0 421 -153 421 -381c0 -341 -230 -619 -662 -619c-98 0 -152 15 -157 17l58 277c6 -2 43 -11 111 -11c170 0 268 118 268 249c0 102 -69 161 -191 161c-121 0 -230 -56 -290 -137l-98 -462h-366
l307 1443h957z" />
    <glyph glyph-name="uni04A6" unicode="&#x4a6;" horiz-adv-x="2297" 
d="M342 1443h1243l-137 -645h17c95 68 211 108 345 108c274 0 429 -157 429 -389c0 -316 -208 -611 -662 -611c-64 0 -128 7 -157 17l59 277c20 -6 65 -11 111 -11c169 0 268 117 268 250c0 103 -69 160 -192 160c-117 0 -227 -53 -290 -137l-98 -462h-366l244 1148h-510
l-244 -1148h-367z" />
    <glyph glyph-name="Ecyrillic" unicode="&#x404;" horiz-adv-x="1499" 
d="M1452 508c-75 -333 -346 -547 -706 -547c-388 0 -624 264 -597 703c20 483 329 818 779 818c346 0 604 -218 605 -527v-27h-358c-9 151 -112 245 -265 245c-165 0 -313 -123 -363 -309h530l-58 -272h-507c-8 -204 105 -325 272 -325c151 0 261 95 310 241h358z" />
    <glyph glyph-name="uniF526" horiz-adv-x="1499" 
d="M1452 508c-75 -333 -346 -547 -706 -547c-388 0 -624 264 -597 703c20 483 329 818 779 818c346 0 604 -218 605 -527v-27h-358c-9 151 -112 245 -265 245c-165 0 -313 -123 -363 -309h530l-58 -272h-507c-8 -204 105 -325 272 -325c151 0 261 95 310 241h358zM777 1573
c-80 0 -140 59 -140 133s60 134 140 134c79 0 139 -60 139 -134s-60 -133 -139 -133zM1184 1573c-80 0 -140 59 -140 133s60 134 140 134s140 -60 140 -134s-60 -133 -140 -133z" />
    <glyph glyph-name="uni04C0" unicode="&#x4c0;" horiz-adv-x="608" 
d="M405 0h-367l307 1443h367z" />
    <glyph glyph-name="Icyrillic" unicode="&#x406;" horiz-adv-x="608" 
d="M405 0h-367l307 1443h367z" />
    <glyph glyph-name="Yicyrillic" unicode="&#x407;" horiz-adv-x="608" 
d="M405 0h-367l307 1443h367zM380 1573c-80 0 -140 59 -140 133s60 134 140 134c79 0 139 -60 139 -134s-60 -133 -139 -133zM787 1573c-80 0 -140 59 -140 133s60 134 140 134s140 -60 140 -134s-60 -133 -140 -133z" />
    <glyph glyph-name="uni04C0.1" horiz-adv-x="1062" 
d="M1146 1161h-268l-187 -879h268l-60 -282h-268h-367h-268l60 282h268l187 879h-268l60 282h268h367h268z" />
    <glyph glyph-name="Icyrillic.1" horiz-adv-x="1062" 
d="M1146 1161h-268l-187 -879h268l-60 -282h-268h-367h-268l60 282h268l187 879h-268l60 282h268h367h268z" />
    <glyph glyph-name="Yicyrillic.1" horiz-adv-x="1062" 
d="M1013 1573c-80 0 -140 59 -140 133s60 134 140 134s140 -60 140 -134s-60 -133 -140 -133zM606 1573c-80 0 -140 59 -140 133s60 134 140 134c79 0 139 -60 139 -134s-60 -133 -139 -133zM1146 1161h-268l-187 -879h268l-60 -282h-268h-367h-268l60 282h268l187 879h-268
l60 282h268h367h268z" />
    <glyph glyph-name="uni04A8" unicode="&#x4a8;" horiz-adv-x="2016" 
d="M1433 1010c-135 0 -232 -158 -232 -344c0 -111 38 -211 108 -284c155 108 260 293 260 460c0 106 -49 168 -136 168zM1009 1487l-69 -322c-269 -53 -427 -269 -427 -525c0 -218 141 -378 364 -378c37 0 71 2 104 6c-86 101 -134 228 -134 379c0 354 253 654 627 654
c294 0 453 -154 453 -422c0 -245 -139 -472 -339 -620c11 -1 23 -1 36 -1c84 0 169 27 232 65l61 -259c-110 -67 -229 -98 -351 -98c-140 0 -247 30 -340 90c-125 -62 -257 -89 -403 -89c-417 0 -682 243 -682 669c0 412 316 810 868 851z" />
    <glyph glyph-name="uni04AE" unicode="&#x4ae;" horiz-adv-x="1399" 
d="M801 0h-367l105 498l-296 945h380l164 -602h8l409 602h400l-699 -951z" />
    <glyph glyph-name="uniF43A" horiz-adv-x="1399" 
d="M801 0h-367l105 498l-296 945h380l164 -602h8l409 602h400l-699 -951zM1352 1778l-35 -165h-721l35 165h721z" />
    <glyph glyph-name="uni04B0" unicode="&#x4b0;" horiz-adv-x="1389" 
d="M1599 1443l-594 -808h278l-55 -258h-352l-80 -377h-367l79 377h-319l55 258h247l-253 808h380l164 -602h8l409 602h400z" />
    <glyph glyph-name="uni04BC" unicode="&#x4bc;" horiz-adv-x="1845" 
d="M891 900h618c2 12 3 23 3 40c0 149 -103 242 -265 242c-161 0 -308 -117 -356 -282zM1818 645h-993c-1 -5 -3 -21 -3 -31c-30 -201 81 -345 265 -345c141 0 258 64 317 175h366c-103 -286 -383 -469 -722 -469c-356 0 -576 223 -576 583c0 29 1 57 3 85h-22
c-209 0 -338 105 -338 273c0 86 27 167 80 241h281c-36 -52 -59 -115 -59 -159c0 -60 34 -91 98 -91h11c113 340 394 561 753 561c372 0 585 -203 585 -554c0 -90 -23 -219 -46 -269z" />
    <glyph glyph-name="uni04BE" unicode="&#x4be;" horiz-adv-x="1845" 
d="M891 900h618c2 12 3 23 3 40c0 149 -103 242 -265 242c-161 0 -308 -117 -356 -282zM1818 645h-993c-1 -5 -3 -21 -3 -31c-30 -201 81 -345 265 -345c141 0 258 64 317 175h366c-88 -245 -306 -414 -579 -458l-58 -271h-312l59 279c-256 60 -408 265 -408 564
c0 29 1 57 3 85h-22c-209 0 -338 105 -338 273c0 86 27 167 80 241h281c-36 -52 -59 -115 -59 -159c0 -60 34 -91 98 -91h11c113 340 394 561 753 561c372 0 585 -203 585 -554c0 -90 -23 -219 -46 -269z" />
    <glyph glyph-name="uni04D4" unicode="&#x4d4;" horiz-adv-x="2045" 
d="M1131 1167h-120l-339 -575h337zM883 0l69 327h-431l-194 -327h-371l873 1443h1337l-63 -295h-646l-61 -290h609l-58 -270h-609l-62 -293h645l-62 -295h-976z" />
    <glyph glyph-name="uni04D8" unicode="&#x18f;" horiz-adv-x="1558" 
d="M751 -25c-370 0 -611 229 -611 581c0 81 20 191 43 250h995c1 10 3 22 3 28c23 209 -79 340 -265 340c-136 0 -244 -60 -309 -175h-372c102 290 375 469 716 469c365 0 594 -223 594 -581c0 -549 -316 -912 -794 -912zM770 269c168 0 312 115 361 290h-618
c-2 -14 -3 -25 -3 -43c0 -153 99 -247 260 -247z" />
    <glyph glyph-name="uni04D8" unicode="&#x4d8;" horiz-adv-x="1558" 
d="M751 -25c-370 0 -611 229 -611 581c0 81 20 191 43 250h995c1 10 3 22 3 28c23 209 -79 340 -265 340c-136 0 -244 -60 -309 -175h-372c102 290 375 469 716 469c365 0 594 -223 594 -581c0 -549 -316 -912 -794 -912zM770 269c168 0 312 115 361 290h-618
c-2 -14 -3 -25 -3 -43c0 -153 99 -247 260 -247z" />
    <glyph glyph-name="uni04DA" unicode="&#x4da;" horiz-adv-x="1558" 
d="M751 -25c-370 0 -611 229 -611 581c0 81 20 191 43 250h995c1 10 3 22 3 28c23 209 -79 340 -265 340c-136 0 -244 -60 -309 -175h-372c102 290 375 469 716 469c365 0 594 -223 594 -581c0 -549 -316 -912 -794 -912zM770 269c168 0 312 115 361 290h-618
c-2 -14 -3 -25 -3 -43c0 -153 99 -247 260 -247zM814 1573c-80 0 -140 59 -140 133s60 134 140 134c79 0 139 -60 139 -134s-60 -133 -139 -133zM1221 1573c-80 0 -140 59 -140 133s60 134 140 134s140 -60 140 -134s-60 -133 -140 -133z" />
    <glyph glyph-name="uniF49C" horiz-adv-x="1558" 
d="M751 -25c-370 0 -611 229 -611 581c0 81 20 191 43 250h995c1 10 3 22 3 28c23 209 -79 340 -265 340c-136 0 -244 -60 -309 -175h-372c102 290 375 469 716 469c365 0 594 -223 594 -581c0 -549 -316 -912 -794 -912zM770 269c168 0 312 115 361 290h-618
c-2 -14 -3 -25 -3 -43c0 -153 99 -247 260 -247zM1395 1778l-35 -165h-721l35 165h721z" />
    <glyph glyph-name="uni04E0" unicode="&#x4e0;" horiz-adv-x="1314" 
d="M648 -25c-349 0 -571 170 -567 433c0 34 2 50 6 63h334c-19 -124 79 -213 236 -213c140 0 239 83 239 201c0 109 -94 174 -250 174h-154l42 235l370 271l2 9h-624l64 295h1054l-56 -263l-443 -325l-3 -16c218 -27 346 -164 346 -353c0 -306 -240 -511 -596 -511z" />
    <glyph glyph-name="uni0510" unicode="&#x510;" horiz-adv-x="1338" 
d="M906 608h-186c-156 0 -258 -68 -264 -176c-6 -100 83 -174 214 -174c148 0 243 72 258 192h353c-44 -302 -270 -475 -622 -475c-345 0 -573 173 -559 422c10 193 161 337 372 357l2 7c-137 36 -219 154 -209 300c18 248 243 407 578 407c352 0 570 -179 533 -438h-332
c4 101 -82 169 -213 169c-128 0 -221 -66 -229 -165c-9 -97 71 -164 196 -164h166z" />
    <glyph glyph-name="uniF538" horiz-adv-x="1338" 
d="M906 608h-186c-156 0 -258 -68 -264 -176c-6 -100 83 -174 214 -174c148 0 243 72 258 192h353c-44 -302 -270 -475 -622 -475c-345 0 -573 173 -559 422c10 193 161 337 372 357l2 7c-137 36 -219 154 -209 300c18 248 243 407 578 407c352 0 570 -179 533 -438h-332
c4 101 -82 169 -213 169c-128 0 -221 -66 -229 -165c-9 -97 71 -164 196 -164h166zM736 1575c-80 0 -140 59 -140 133s60 134 140 134c79 0 139 -60 139 -134s-60 -133 -139 -133zM1143 1575c-80 0 -140 59 -140 133s60 134 140 134s140 -60 140 -134s-60 -133 -140 -133z
" />
    <glyph glyph-name="uni0474" unicode="&#x474;" horiz-adv-x="1612" 
d="M885 0h-465l-158 1443h418l55 -1061h16l320 673c76 171 151 279 243 339c70 47 147 68 244 68c94 0 196 -26 258 -68l-160 -290c-29 13 -59 20 -83 20c-31 0 -57 -8 -79 -26c-27 -20 -50 -51 -80 -106z" />
    <glyph glyph-name="uni051C" unicode="&#x51c;" horiz-adv-x="1996" 
d="M1101 898l-430 -898h-348l-71 1443h373l-4 -962h7l445 962h291l48 -962h7l395 962h378l-681 -1443h-344l-59 898h-7z" />
    <glyph glyph-name="Djecyrillic" unicode="&#x402;" horiz-adv-x="1766" 
d="M380 0l244 1148h-400l63 295h1168l-63 -295h-401l-74 -350h17c75 63 182 108 312 108c297 0 461 -185 461 -429c0 -326 -243 -571 -636 -571c-115 0 -176 15 -182 17l59 277c5 -2 44 -11 123 -11c148 0 255 93 255 227c0 114 -79 183 -207 183c-111 0 -218 -61 -273 -137
l-98 -462h-368z" />
    <glyph glyph-name="Dzecyrillic" unicode="&#x405;" horiz-adv-x="1357" 
d="M76 425h349c14 -100 120 -171 263 -171c137 0 230 58 230 150c0 71 -39 111 -185 156l-138 42c-240 74 -366 200 -366 397c0 282 243 469 579 469c354 0 578 -168 579 -448h-338c-4 102 -94 170 -233 170c-134 0 -214 -66 -214 -146c0 -71 49 -118 179 -156l143 -43
c255 -75 369 -186 369 -388c0 -285 -240 -482 -612 -482c-368 0 -602 166 -605 450z" />
    <glyph glyph-name="Jecyrillic" unicode="&#x408;" horiz-adv-x="1215" 
d="M49 409c0 17 1 43 3 60h351v-16c0 -99 58 -163 157 -163c98 0 158 62 184 186l206 967h368l-216 -1013c-62 -294 -252 -455 -548 -455c-304 0 -505 175 -505 434z" />
    <glyph glyph-name="a" unicode="a" horiz-adv-x="1143" 
d="M510 223c102 0 192 66 211 156l18 81l-198 -6c-105 -4 -173 -52 -173 -125c0 -64 58 -106 142 -106zM358 -16c-182 0 -322 125 -322 296c0 223 185 360 487 369l258 8l13 64c3 17 4 26 4 36c0 63 -59 104 -151 104c-90 0 -152 -39 -172 -106h-316c41 220 240 360 512 360
c277 0 463 -133 463 -328c0 -29 -4 -66 -8 -89l-149 -698h-333l28 129h-7c-58 -87 -171 -145 -307 -145z" />
    <glyph glyph-name="agrave" unicode="&#xe0;" horiz-adv-x="1143" 
d="M510 223c102 0 192 66 211 156l18 81l-198 -6c-105 -4 -173 -52 -173 -125c0 -64 58 -106 142 -106zM358 -16c-182 0 -322 125 -322 296c0 223 185 360 487 369l258 8l13 64c3 17 4 26 4 36c0 63 -59 104 -151 104c-90 0 -152 -39 -172 -106h-316c41 220 240 360 512 360
c277 0 463 -133 463 -328c0 -29 -4 -66 -8 -89l-149 -698h-333l28 129h-7c-58 -87 -171 -145 -307 -145zM830 1259h-273l-193 316h307z" />
    <glyph glyph-name="aacute" unicode="&#xe1;" horiz-adv-x="1143" 
d="M510 223c102 0 192 66 211 156l18 81l-198 -6c-105 -4 -173 -52 -173 -125c0 -64 58 -106 142 -106zM358 -16c-182 0 -322 125 -322 296c0 223 185 360 487 369l258 8l13 64c3 17 4 26 4 36c0 63 -59 104 -151 104c-90 0 -152 -39 -172 -106h-316c41 220 240 360 512 360
c277 0 463 -133 463 -328c0 -29 -4 -66 -8 -89l-149 -698h-333l28 129h-7c-58 -87 -171 -145 -307 -145zM899 1259h-277l293 316h312z" />
    <glyph glyph-name="adieresis" unicode="&#xe4;" horiz-adv-x="1143" 
d="M510 223c102 0 192 66 211 156l18 81l-198 -6c-105 -4 -173 -52 -173 -125c0 -64 58 -106 142 -106zM358 -16c-182 0 -322 125 -322 296c0 223 185 360 487 369l258 8l13 64c3 17 4 26 4 36c0 63 -59 104 -151 104c-90 0 -152 -39 -172 -106h-316c41 220 240 360 512 360
c277 0 463 -133 463 -328c0 -29 -4 -66 -8 -89l-149 -698h-333l28 129h-7c-58 -87 -171 -145 -307 -145zM544 1246c-80 0 -140 59 -140 133s60 134 140 134c79 0 139 -60 139 -134s-60 -133 -139 -133zM951 1246c-80 0 -140 59 -140 133s60 134 140 134s140 -60 140 -134
s-60 -133 -140 -133z" />
    <glyph glyph-name="adieresismacron" unicode="&#x1df;" horiz-adv-x="1143" 
d="M510 223c102 0 192 66 211 156l18 81l-198 -6c-105 -4 -173 -52 -173 -125c0 -64 58 -106 142 -106zM358 -16c-182 0 -322 125 -322 296c0 223 185 360 487 369l258 8l13 64c3 17 4 26 4 36c0 63 -59 104 -151 104c-90 0 -152 -39 -172 -106h-316c41 220 240 360 512 360
c277 0 463 -133 463 -328c0 -29 -4 -66 -8 -89l-149 -698h-333l28 129h-7c-58 -87 -171 -145 -307 -145zM527 1228c-80 0 -140 60 -140 134s60 134 140 134s140 -60 140 -134s-60 -134 -140 -134zM934 1228c-79 0 -139 60 -139 134s60 134 139 134c80 0 140 -60 140 -134
s-60 -134 -140 -134zM1177 1793l-35 -165h-673l35 165h673z" />
    <glyph glyph-name="aring" unicode="&#xe5;" horiz-adv-x="1143" 
d="M510 223c102 0 192 66 211 156l18 81l-198 -6c-105 -4 -173 -52 -173 -125c0 -64 58 -106 142 -106zM358 -16c-182 0 -322 125 -322 296c0 223 185 360 487 369l258 8l13 64c3 17 4 26 4 36c0 63 -59 104 -151 104c-90 0 -152 -39 -172 -106h-316c41 220 240 360 512 360
c277 0 463 -133 463 -328c0 -29 -4 -66 -8 -89l-149 -698h-333l28 129h-7c-58 -87 -171 -145 -307 -145zM758 1215c-125 0 -231 97 -231 223c0 127 106 227 233 227c125 0 230 -97 230 -223s-105 -227 -232 -227zM758 1351c51 0 92 39 92 90s-41 90 -90 90
c-51 0 -92 -40 -92 -92c0 -50 41 -88 90 -88z" />
    <glyph glyph-name="aringacute" unicode="&#x1fb;" horiz-adv-x="1143" 
d="M510 223c102 0 192 66 211 156l18 81l-198 -6c-105 -4 -173 -52 -173 -125c0 -64 58 -106 142 -106zM358 -16c-182 0 -322 125 -322 296c0 223 185 360 487 369l258 8l13 64c3 17 4 26 4 36c0 63 -59 104 -151 104c-90 0 -152 -39 -172 -106h-316c41 220 240 360 512 360
c277 0 463 -133 463 -328c0 -29 -4 -66 -8 -89l-149 -698h-333l28 129h-7c-58 -87 -171 -145 -307 -145zM684 1723l186 222h279l-226 -222h-239zM743 1206c-130 0 -225 89 -225 217c0 129 95 221 227 221c131 0 226 -89 225 -217c0 -128 -94 -221 -227 -221zM661 1424
c0 -49 34 -83 82 -83c49 0 85 35 85 86c-1 48 -35 83 -83 83c-49 0 -84 -36 -84 -86z" />
    <glyph glyph-name="atilde" unicode="&#xe3;" horiz-adv-x="1143" 
d="M510 223c102 0 192 66 211 156l18 81l-198 -6c-105 -4 -173 -52 -173 -125c0 -64 58 -106 142 -106zM358 -16c-182 0 -322 125 -322 296c0 223 185 360 487 369l258 8l13 64c3 17 4 26 4 36c0 63 -59 104 -151 104c-90 0 -152 -39 -172 -106h-316c41 220 240 360 512 360
c277 0 463 -133 463 -328c0 -29 -4 -66 -8 -89l-149 -698h-333l28 129h-7c-58 -87 -171 -145 -307 -145zM875 1246c-142 0 -176 127 -255 127c-41 0 -75 -41 -92 -111h-184c35 174 144 284 278 284c145 0 177 -127 256 -127c42 0 73 40 92 115h184
c-37 -174 -147 -288 -279 -288z" />
    <glyph glyph-name="abrevegrave" unicode="&#x1eb1;" horiz-adv-x="1143" 
d="M510 223c102 0 192 66 211 156l18 81l-198 -6c-105 -4 -173 -52 -173 -125c0 -64 58 -106 142 -106zM358 -16c-182 0 -322 125 -322 296c0 223 185 360 487 369l258 8l13 64c3 17 4 26 4 36c0 63 -59 104 -151 104c-90 0 -152 -39 -172 -106h-316c41 220 240 360 512 360
c277 0 463 -133 463 -328c0 -29 -4 -66 -8 -89l-149 -698h-333l28 129h-7c-58 -87 -171 -145 -307 -145zM913 1603h-230l-172 289h282zM1150 1556c-45 -185 -203 -329 -445 -329c-206 0 -317 114 -317 265c0 21 3 43 7 64h206c-3 -12 -5 -24 -5 -36c0 -76 48 -125 138 -125
c103 0 178 65 202 161h214z" />
    <glyph glyph-name="adotmacron" unicode="&#x1e1;" horiz-adv-x="1143" 
d="M510 223c102 0 192 66 211 156l18 81l-198 -6c-105 -4 -173 -52 -173 -125c0 -64 58 -106 142 -106zM358 -16c-182 0 -322 125 -322 296c0 223 185 360 487 369l258 8l13 64c3 17 4 26 4 36c0 63 -59 104 -151 104c-90 0 -152 -39 -172 -106h-316c41 220 240 360 512 360
c277 0 463 -133 463 -328c0 -29 -4 -66 -8 -89l-149 -698h-333l28 129h-7c-58 -87 -171 -145 -307 -145zM735 1216c-93 0 -164 72 -164 160c0 89 71 160 164 160c92 0 163 -71 163 -160c0 -88 -71 -160 -163 -160zM1177 1793l-35 -165h-673l35 165h673z" />
    <glyph glyph-name="aringbelow" unicode="&#x1e01;" horiz-adv-x="1143" 
d="M510 223c102 0 192 66 211 156l18 81l-198 -6c-105 -4 -173 -52 -173 -125c0 -64 58 -106 142 -106zM358 -16c-182 0 -322 125 -322 296c0 223 185 360 487 369l258 8l13 64c3 17 4 26 4 36c0 63 -59 104 -151 104c-90 0 -152 -39 -172 -106h-316c41 220 240 360 512 360
c277 0 463 -133 463 -328c0 -29 -4 -66 -8 -89l-149 -698h-333l28 129h-7c-58 -87 -171 -145 -307 -145zM478 -535c-125 0 -231 97 -231 223c0 127 106 227 233 227c125 0 230 -97 230 -223s-105 -227 -232 -227zM478 -399c51 0 92 39 92 90s-41 90 -90 90
c-51 0 -92 -40 -92 -92c0 -50 41 -88 90 -88z" />
    <glyph glyph-name="acircumflex" unicode="&#xe2;" horiz-adv-x="1143" 
d="M510 223c102 0 192 66 211 156l18 81l-198 -6c-105 -4 -173 -52 -173 -125c0 -64 58 -106 142 -106zM358 -16c-182 0 -322 125 -322 296c0 223 185 360 487 369l258 8l13 64c3 17 4 26 4 36c0 63 -59 104 -151 104c-90 0 -152 -39 -172 -106h-316c41 220 240 360 512 360
c277 0 463 -133 463 -328c0 -29 -4 -66 -8 -89l-149 -698h-333l28 129h-7c-58 -87 -171 -145 -307 -145zM924 1572l189 -327h-245l-97 183h-7l-175 -183h-266l329 327h272z" />
    <glyph glyph-name="acircumflexdotbelow" unicode="&#x1ead;" horiz-adv-x="1143" 
d="M510 223c102 0 192 66 211 156l18 81l-198 -6c-105 -4 -173 -52 -173 -125c0 -64 58 -106 142 -106zM358 -16c-182 0 -322 125 -322 296c0 223 185 360 487 369l258 8l13 64c3 17 4 26 4 36c0 63 -59 104 -151 104c-90 0 -152 -39 -172 -106h-316c41 220 240 360 512 360
c277 0 463 -133 463 -328c0 -29 -4 -66 -8 -89l-149 -698h-333l28 129h-7c-58 -87 -171 -145 -307 -145zM924 1572l189 -327h-245l-97 183h-7l-175 -183h-266l329 327h272zM467 -470c-92 0 -164 73 -164 161c0 89 72 162 164 162s165 -73 165 -162c0 -88 -73 -161 -165 -161
z" />
    <glyph glyph-name="acircumflexacute" unicode="&#x1ea5;" horiz-adv-x="1143" 
d="M510 223c102 0 192 66 211 156l18 81l-198 -6c-105 -4 -173 -52 -173 -125c0 -64 58 -106 142 -106zM358 -16c-182 0 -322 125 -322 296c0 223 185 360 487 369l258 8l13 64c3 17 4 26 4 36c0 63 -59 104 -151 104c-90 0 -152 -39 -172 -106h-316c41 220 240 360 512 360
c277 0 463 -133 463 -328c0 -29 -4 -66 -8 -89l-149 -698h-333l28 129h-7c-58 -87 -171 -145 -307 -145zM896 1552l190 -322h-243l-97 179h-8l-174 -179h-268l328 322h272zM953 1607l265 285h286l-297 -285h-254z" />
    <glyph glyph-name="acircumflextilde" unicode="&#x1eab;" horiz-adv-x="1143" 
d="M510 223c102 0 192 66 211 156l18 81l-198 -6c-105 -4 -173 -52 -173 -125c0 -64 58 -106 142 -106zM358 -16c-182 0 -322 125 -322 296c0 223 185 360 487 369l258 8l13 64c3 17 4 26 4 36c0 63 -59 104 -151 104c-90 0 -152 -39 -172 -106h-316c41 220 240 360 512 360
c277 0 463 -133 463 -328c0 -29 -4 -66 -8 -89l-149 -698h-333l28 129h-7c-58 -87 -171 -145 -307 -145zM893 1537l192 -307h-243l-100 167h-8l-171 -167h-268l326 307h272zM941 1610c-144 0 -178 126 -257 126c-41 0 -74 -40 -90 -108h-184c35 172 143 281 278 281
c142 0 177 -127 256 -127c42 0 73 40 91 112h184c-36 -173 -147 -284 -278 -284z" />
    <glyph glyph-name="acircumflexgrave" unicode="&#x1ea7;" horiz-adv-x="1143" 
d="M510 223c102 0 192 66 211 156l18 81l-198 -6c-105 -4 -173 -52 -173 -125c0 -64 58 -106 142 -106zM358 -16c-182 0 -322 125 -322 296c0 223 185 360 487 369l258 8l13 64c3 17 4 26 4 36c0 63 -59 104 -151 104c-90 0 -152 -39 -172 -106h-316c41 220 240 360 512 360
c277 0 463 -133 463 -328c0 -29 -4 -66 -8 -89l-149 -698h-333l28 129h-7c-58 -87 -171 -145 -307 -145zM1272 1603h-230l-171 289h282zM896 1552l190 -322h-243l-97 179h-8l-174 -179h-268l328 322h272z" />
    <glyph glyph-name="acircumflexhookabove" unicode="&#x1ea9;" horiz-adv-x="1143" 
d="M510 223c102 0 192 66 211 156l18 81l-198 -6c-105 -4 -173 -52 -173 -125c0 -64 58 -106 142 -106zM358 -16c-182 0 -322 125 -322 296c0 223 185 360 487 369l258 8l13 64c3 17 4 26 4 36c0 63 -59 104 -151 104c-90 0 -152 -39 -172 -106h-316c41 220 240 360 512 360
c277 0 463 -133 463 -328c0 -29 -4 -66 -8 -89l-149 -698h-333l28 129h-7c-58 -87 -171 -145 -307 -145zM932 1791l35 161c41 13 94 22 137 22c133 0 223 -75 223 -186c0 -128 -99 -245 -248 -296l-74 128c73 29 117 73 117 118c0 42 -34 68 -90 68c-38 0 -71 -5 -100 -15z
M896 1552l190 -322h-243l-97 179h-8l-174 -179h-268l328 322h272z" />
    <glyph glyph-name="abreve" unicode="&#x103;" horiz-adv-x="1143" 
d="M510 223c102 0 192 66 211 156l18 81l-198 -6c-105 -4 -173 -52 -173 -125c0 -64 58 -106 142 -106zM358 -16c-182 0 -322 125 -322 296c0 223 185 360 487 369l258 8l13 64c3 17 4 26 4 36c0 63 -59 104 -151 104c-90 0 -152 -39 -172 -106h-316c41 220 240 360 512 360
c277 0 463 -133 463 -328c0 -29 -4 -66 -8 -89l-149 -698h-333l28 129h-7c-58 -87 -171 -145 -307 -145zM413 1571h207c-2 -12 -4 -24 -4 -36c0 -79 51 -125 138 -125c98 0 177 61 201 161h213c-46 -200 -210 -329 -445 -329c-183 0 -316 111 -316 269c0 19 2 38 6 60z" />
    <glyph glyph-name="abreveacute" unicode="&#x1eaf;" horiz-adv-x="1143" 
d="M510 223c102 0 192 66 211 156l18 81l-198 -6c-105 -4 -173 -52 -173 -125c0 -64 58 -106 142 -106zM358 -16c-182 0 -322 125 -322 296c0 223 185 360 487 369l258 8l13 64c3 17 4 26 4 36c0 63 -59 104 -151 104c-90 0 -152 -39 -172 -106h-316c41 220 240 360 512 360
c277 0 463 -133 463 -328c0 -29 -4 -66 -8 -89l-149 -698h-333l28 129h-7c-58 -87 -171 -145 -307 -145zM645 1607l265 285h286l-297 -285h-254zM1150 1556c-45 -185 -203 -329 -445 -329c-206 0 -317 114 -317 265c0 21 3 43 7 64h206c-3 -12 -5 -24 -5 -36
c0 -76 48 -125 138 -125c103 0 178 65 202 161h214z" />
    <glyph glyph-name="abrevetilde" unicode="&#x1eb5;" horiz-adv-x="1143" 
d="M510 223c102 0 192 66 211 156l18 81l-198 -6c-105 -4 -173 -52 -173 -125c0 -64 58 -106 142 -106zM358 -16c-182 0 -322 125 -322 296c0 223 185 360 487 369l258 8l13 64c3 17 4 26 4 36c0 63 -59 104 -151 104c-90 0 -152 -39 -172 -106h-316c41 220 240 360 512 360
c277 0 463 -133 463 -328c0 -29 -4 -66 -8 -89l-149 -698h-333l28 129h-7c-58 -87 -171 -145 -307 -145zM1150 1556c-45 -185 -203 -329 -445 -329c-206 0 -317 114 -317 265c0 21 3 43 7 64h206c-3 -12 -5 -24 -5 -36c0 -76 48 -125 138 -125c103 0 178 65 202 161h214z
M946 1610c-144 0 -178 126 -257 126c-41 0 -74 -40 -90 -108h-184c35 172 143 281 278 281c143 0 177 -127 256 -127c42 0 73 40 91 112h184c-36 -173 -146 -284 -278 -284z" />
    <glyph glyph-name="abrevehookabove" unicode="&#x1eb3;" horiz-adv-x="1143" 
d="M510 223c102 0 192 66 211 156l18 81l-198 -6c-105 -4 -173 -52 -173 -125c0 -64 58 -106 142 -106zM358 -16c-182 0 -322 125 -322 296c0 223 185 360 487 369l258 8l13 64c3 17 4 26 4 36c0 63 -59 104 -151 104c-90 0 -152 -39 -172 -106h-316c41 220 240 360 512 360
c277 0 463 -133 463 -328c0 -29 -4 -66 -8 -89l-149 -698h-333l28 129h-7c-58 -87 -171 -145 -307 -145zM596 1810l32 145c41 12 91 19 131 19c127 0 212 -68 212 -168c0 -104 -99 -217 -223 -260l-72 115c62 23 100 61 100 101c0 38 -32 61 -86 61c-33 0 -65 -4 -94 -13z
M1150 1556c-45 -185 -203 -329 -445 -329c-206 0 -317 114 -317 265c0 21 3 43 7 64h206c-3 -12 -5 -24 -5 -36c0 -76 48 -125 138 -125c103 0 178 65 202 161h214z" />
    <glyph glyph-name="abrevedotbelow" unicode="&#x1eb7;" horiz-adv-x="1143" 
d="M510 223c102 0 192 66 211 156l18 81l-198 -6c-105 -4 -173 -52 -173 -125c0 -64 58 -106 142 -106zM358 -16c-182 0 -322 125 -322 296c0 223 185 360 487 369l258 8l13 64c3 17 4 26 4 36c0 63 -59 104 -151 104c-90 0 -152 -39 -172 -106h-316c41 220 240 360 512 360
c277 0 463 -133 463 -328c0 -29 -4 -66 -8 -89l-149 -698h-333l28 129h-7c-58 -87 -171 -145 -307 -145zM413 1571h207c-2 -12 -4 -24 -4 -36c0 -79 51 -125 138 -125c98 0 177 61 201 161h213c-46 -200 -210 -329 -445 -329c-183 0 -316 111 -316 269c0 19 2 38 6 60z
M467 -470c-92 0 -164 73 -164 161c0 89 72 162 164 162s165 -73 165 -162c0 -88 -73 -161 -165 -161z" />
    <glyph glyph-name="ainvertedbreve" unicode="&#x203;" horiz-adv-x="1143" 
d="M510 223c102 0 192 66 211 156l18 81l-198 -6c-105 -4 -173 -52 -173 -125c0 -64 58 -106 142 -106zM358 -16c-182 0 -322 125 -322 296c0 223 185 360 487 369l258 8l13 64c3 17 4 26 4 36c0 63 -59 104 -151 104c-90 0 -152 -39 -172 -106h-316c41 220 240 360 512 360
c277 0 463 -133 463 -328c0 -29 -4 -66 -8 -89l-149 -698h-333l28 129h-7c-58 -87 -171 -145 -307 -145zM1078 1227h-207c2 12 4 24 4 36c0 79 -51 125 -138 125c-98 0 -177 -61 -201 -161h-213c46 200 210 329 445 329c183 0 316 -111 316 -269c0 -19 -3 -38 -6 -60z" />
    <glyph glyph-name="acaron" unicode="&#x1ce;" horiz-adv-x="1143" 
d="M510 223c102 0 192 66 211 156l18 81l-198 -6c-105 -4 -173 -52 -173 -125c0 -64 58 -106 142 -106zM358 -16c-182 0 -322 125 -322 296c0 223 185 360 487 369l258 8l13 64c3 17 4 26 4 36c0 63 -59 104 -151 104c-90 0 -152 -39 -172 -106h-316c41 220 240 360 512 360
c277 0 463 -133 463 -328c0 -29 -4 -66 -8 -89l-149 -698h-333l28 129h-7c-58 -87 -171 -145 -307 -145zM856 1245h-271l-190 327h244l97 -184h7l175 184h267z" />
    <glyph glyph-name="adotaccent" unicode="&#x227;" horiz-adv-x="1143" 
d="M510 223c102 0 192 66 211 156l18 81l-198 -6c-105 -4 -173 -52 -173 -125c0 -64 58 -106 142 -106zM358 -16c-182 0 -322 125 -322 296c0 223 185 360 487 369l258 8l13 64c3 17 4 26 4 36c0 63 -59 104 -151 104c-90 0 -152 -39 -172 -106h-316c41 220 240 360 512 360
c277 0 463 -133 463 -328c0 -29 -4 -66 -8 -89l-149 -698h-333l28 129h-7c-58 -87 -171 -145 -307 -145zM740 1251c-92 0 -164 73 -164 161c0 89 72 162 164 162c93 0 165 -73 165 -162c0 -88 -72 -161 -165 -161z" />
    <glyph glyph-name="adotbelow" unicode="&#x1ea1;" horiz-adv-x="1143" 
d="M510 223c102 0 192 66 211 156l18 81l-198 -6c-105 -4 -173 -52 -173 -125c0 -64 58 -106 142 -106zM358 -16c-182 0 -322 125 -322 296c0 223 185 360 487 369l258 8l13 64c3 17 4 26 4 36c0 63 -59 104 -151 104c-90 0 -152 -39 -172 -106h-316c41 220 240 360 512 360
c277 0 463 -133 463 -328c0 -29 -4 -66 -8 -89l-149 -698h-333l28 129h-7c-58 -87 -171 -145 -307 -145zM467 -470c-92 0 -164 73 -164 161c0 89 72 162 164 162s165 -73 165 -162c0 -88 -73 -161 -165 -161z" />
    <glyph glyph-name="ahookabove" unicode="&#x1ea3;" horiz-adv-x="1143" 
d="M510 223c102 0 192 66 211 156l18 81l-198 -6c-105 -4 -173 -52 -173 -125c0 -64 58 -106 142 -106zM358 -16c-182 0 -322 125 -322 296c0 223 185 360 487 369l258 8l13 64c3 17 4 26 4 36c0 63 -59 104 -151 104c-90 0 -152 -39 -172 -106h-316c41 220 240 360 512 360
c277 0 463 -133 463 -328c0 -29 -4 -66 -8 -89l-149 -698h-333l28 129h-7c-58 -87 -171 -145 -307 -145zM587 1500l38 156c35 12 87 20 134 20c130 0 221 -76 221 -186c0 -124 -96 -239 -240 -288l-75 127c74 28 111 68 111 116c0 42 -36 71 -91 71c-36 0 -71 -5 -98 -16z
" />
    <glyph glyph-name="adblgrave" unicode="&#x201;" horiz-adv-x="1143" 
d="M510 223c102 0 192 66 211 156l18 81l-198 -6c-105 -4 -173 -52 -173 -125c0 -64 58 -106 142 -106zM358 -16c-182 0 -322 125 -322 296c0 223 185 360 487 369l258 8l13 64c3 17 4 26 4 36c0 63 -59 104 -151 104c-90 0 -152 -39 -172 -106h-316c41 220 240 360 512 360
c277 0 463 -133 463 -328c0 -29 -4 -66 -8 -89l-149 -698h-333l28 129h-7c-58 -87 -171 -145 -307 -145zM682 1260h-244l-204 315h277zM1081 1260h-244l-203 315h276z" />
    <glyph glyph-name="amacron" unicode="&#x101;" horiz-adv-x="1143" 
d="M510 223c102 0 192 66 211 156l18 81l-198 -6c-105 -4 -173 -52 -173 -125c0 -64 58 -106 142 -106zM358 -16c-182 0 -322 125 -322 296c0 223 185 360 487 369l258 8l13 64c3 17 4 26 4 36c0 63 -59 104 -151 104c-90 0 -152 -39 -172 -106h-316c41 220 240 360 512 360
c277 0 463 -133 463 -328c0 -29 -4 -66 -8 -89l-149 -698h-333l28 129h-7c-58 -87 -171 -145 -307 -145zM1102 1442l-35 -165h-673l35 165h673z" />
    <glyph glyph-name="aogonek" unicode="&#x105;" horiz-adv-x="1143" 
d="M512 225c104 0 192 64 211 154l18 81l-199 -6c-104 -4 -171 -52 -171 -125c0 -62 57 -104 141 -104zM841 -444c-31 -14 -87 -25 -162 -25c-149 0 -241 80 -241 189c0 114 86 200 205 267l31 142h-7c-58 -87 -170 -143 -307 -143c-183 0 -322 125 -322 294
c0 222 183 360 488 369l257 8l13 64c3 16 4 24 4 36c0 62 -60 102 -153 102c-87 0 -149 -37 -170 -104h-315c41 220 240 357 510 357c277 0 464 -131 464 -325c0 -30 -3 -67 -8 -89l-147 -692l-32 -9c-127 -36 -248 -129 -248 -204c0 -45 46 -73 103 -73c31 0 59 5 73 10z
" />
    <glyph glyph-name="a.1" horiz-adv-x="1283" 
d="M613 250c146 0 265 168 265 368c0 128 -71 213 -180 213c-149 0 -264 -162 -264 -367c0 -130 70 -214 179 -214zM1105 0h-342l34 160h-14c-78 -114 -193 -176 -330 -176c-230 0 -373 165 -373 427c0 397 232 694 544 694c161 0 286 -81 322 -204h16l40 188h335z" />
    <glyph glyph-name="agrave.1" horiz-adv-x="1283" 
d="M613 250c146 0 265 168 265 368c0 128 -71 213 -180 213c-149 0 -264 -162 -264 -367c0 -130 70 -214 179 -214zM1105 0h-342l34 160h-14c-78 -114 -193 -176 -330 -176c-230 0 -373 165 -373 427c0 397 232 694 544 694c161 0 286 -81 322 -204h16l40 188h335zM924 1260
h-273l-193 316h307z" />
    <glyph glyph-name="aacute.1" horiz-adv-x="1283" 
d="M613 250c146 0 265 168 265 368c0 128 -71 213 -180 213c-149 0 -264 -162 -264 -367c0 -130 70 -214 179 -214zM1105 0h-342l34 160h-14c-78 -114 -193 -176 -330 -176c-230 0 -373 165 -373 427c0 397 232 694 544 694c161 0 286 -81 322 -204h16l40 188h335zM993 1260
h-277l293 316h312z" />
    <glyph glyph-name="adieresis.1" horiz-adv-x="1283" 
d="M613 250c146 0 265 168 265 368c0 128 -71 213 -180 213c-149 0 -264 -162 -264 -367c0 -130 70 -214 179 -214zM1105 0h-342l34 160h-14c-78 -114 -193 -176 -330 -176c-230 0 -373 165 -373 427c0 397 232 694 544 694c161 0 286 -81 322 -204h16l40 188h335zM638 1247
c-80 0 -140 59 -140 133s60 134 140 134c79 0 139 -60 139 -134s-60 -133 -139 -133zM1045 1247c-80 0 -140 59 -140 133s60 134 140 134s140 -60 140 -134s-60 -133 -140 -133z" />
    <glyph glyph-name="adieresismacron.1" horiz-adv-x="1283" 
d="M613 250c146 0 265 168 265 368c0 128 -71 213 -180 213c-149 0 -264 -162 -264 -367c0 -130 70 -214 179 -214zM1105 0h-342l34 160h-14c-78 -114 -193 -176 -330 -176c-230 0 -373 165 -373 427c0 397 232 694 544 694c161 0 286 -81 322 -204h16l40 188h335zM621 1228
c-80 0 -140 60 -140 134s60 134 140 134s140 -60 140 -134s-60 -134 -140 -134zM1028 1228c-79 0 -139 60 -139 134s60 134 139 134c80 0 140 -60 140 -134s-60 -134 -140 -134zM1271 1793l-35 -165h-673l35 165h673z" />
    <glyph glyph-name="aring.1" horiz-adv-x="1283" 
d="M613 250c146 0 265 168 265 368c0 128 -71 213 -180 213c-149 0 -264 -162 -264 -367c0 -130 70 -214 179 -214zM1105 0h-342l34 160h-14c-78 -114 -193 -176 -330 -176c-230 0 -373 165 -373 427c0 397 232 694 544 694c161 0 286 -81 322 -204h16l40 188h335zM852 1216
c-125 0 -231 97 -231 223c0 127 106 227 233 227c125 0 230 -97 230 -223s-105 -227 -232 -227zM852 1352c51 0 92 39 92 90s-41 90 -90 90c-51 0 -92 -40 -92 -92c0 -50 41 -88 90 -88z" />
    <glyph glyph-name="aringacute.1" horiz-adv-x="1283" 
d="M613 250c146 0 265 168 265 368c0 128 -71 213 -180 213c-149 0 -264 -162 -264 -367c0 -130 70 -214 179 -214zM1105 0h-342l34 160h-14c-78 -114 -193 -176 -330 -176c-230 0 -373 165 -373 427c0 397 232 694 544 694c161 0 286 -81 322 -204h16l40 188h335zM778 1723
l186 222h279l-226 -222h-239zM837 1206c-130 0 -225 89 -225 217c0 129 95 221 227 221c131 0 226 -89 225 -217c0 -128 -94 -221 -227 -221zM755 1424c0 -49 34 -83 82 -83c49 0 85 35 85 86c-1 48 -35 83 -83 83c-49 0 -84 -36 -84 -86z" />
    <glyph glyph-name="atilde.1" horiz-adv-x="1283" 
d="M613 250c146 0 265 168 265 368c0 128 -71 213 -180 213c-149 0 -264 -162 -264 -367c0 -130 70 -214 179 -214zM1105 0h-342l34 160h-14c-78 -114 -193 -176 -330 -176c-230 0 -373 165 -373 427c0 397 232 694 544 694c161 0 286 -81 322 -204h16l40 188h335zM969 1247
c-142 0 -176 127 -255 127c-41 0 -75 -41 -92 -111h-184c35 174 144 284 278 284c145 0 177 -127 256 -127c42 0 73 40 92 115h184c-37 -174 -147 -288 -279 -288z" />
    <glyph glyph-name="abrevegrave.1" horiz-adv-x="1283" 
d="M613 250c146 0 265 168 265 368c0 128 -71 213 -180 213c-149 0 -264 -162 -264 -367c0 -130 70 -214 179 -214zM1105 0h-342l34 160h-14c-78 -114 -193 -176 -330 -176c-230 0 -373 165 -373 427c0 397 232 694 544 694c161 0 286 -81 322 -204h16l40 188h335z
M1007 1603h-230l-172 289h282zM1244 1556c-45 -185 -203 -329 -445 -329c-206 0 -317 114 -317 265c0 21 3 43 7 64h206c-3 -12 -5 -24 -5 -36c0 -76 48 -125 138 -125c103 0 178 65 202 161h214z" />
    <glyph glyph-name="adotmacron.1" horiz-adv-x="1283" 
d="M613 250c146 0 265 168 265 368c0 128 -71 213 -180 213c-149 0 -264 -162 -264 -367c0 -130 70 -214 179 -214zM1105 0h-342l34 160h-14c-78 -114 -193 -176 -330 -176c-230 0 -373 165 -373 427c0 397 232 694 544 694c161 0 286 -81 322 -204h16l40 188h335zM829 1216
c-93 0 -164 72 -164 160c0 89 71 160 164 160c92 0 163 -71 163 -160c0 -88 -71 -160 -163 -160zM1271 1793l-35 -165h-673l35 165h673z" />
    <glyph glyph-name="aringbelow.1" horiz-adv-x="1283" 
d="M613 250c146 0 265 168 265 368c0 128 -71 213 -180 213c-149 0 -264 -162 -264 -367c0 -130 70 -214 179 -214zM1105 0h-342l34 160h-14c-78 -114 -193 -176 -330 -176c-230 0 -373 165 -373 427c0 397 232 694 544 694c161 0 286 -81 322 -204h16l40 188h335zM488 -535
c-125 0 -231 97 -231 223c0 127 106 227 233 227c125 0 230 -97 230 -223s-105 -227 -232 -227zM488 -399c51 0 92 39 92 90s-41 90 -90 90c-51 0 -92 -40 -92 -92c0 -50 41 -88 90 -88z" />
    <glyph glyph-name="acircumflex.1" horiz-adv-x="1283" 
d="M613 250c146 0 265 168 265 368c0 128 -71 213 -180 213c-149 0 -264 -162 -264 -367c0 -130 70 -214 179 -214zM1105 0h-342l34 160h-14c-78 -114 -193 -176 -330 -176c-230 0 -373 165 -373 427c0 397 232 694 544 694c161 0 286 -81 322 -204h16l40 188h335z
M1018 1573l189 -327h-245l-97 183h-7l-175 -183h-266l329 327h272z" />
    <glyph glyph-name="acircumflexdotbelow.1" horiz-adv-x="1283" 
d="M613 250c146 0 265 168 265 368c0 128 -71 213 -180 213c-149 0 -264 -162 -264 -367c0 -130 70 -214 179 -214zM1105 0h-342l34 160h-14c-78 -114 -193 -176 -330 -176c-230 0 -373 165 -373 427c0 397 232 694 544 694c161 0 286 -81 322 -204h16l40 188h335z
M1018 1573l189 -327h-245l-97 183h-7l-175 -183h-266l329 327h272zM477 -470c-92 0 -164 73 -164 161c0 89 72 162 164 162s165 -73 165 -162c0 -88 -73 -161 -165 -161z" />
    <glyph glyph-name="acircumflexacute.1" horiz-adv-x="1283" 
d="M613 250c146 0 265 168 265 368c0 128 -71 213 -180 213c-149 0 -264 -162 -264 -367c0 -130 70 -214 179 -214zM1105 0h-342l34 160h-14c-78 -114 -193 -176 -330 -176c-230 0 -373 165 -373 427c0 397 232 694 544 694c161 0 286 -81 322 -204h16l40 188h335zM990 1552
l190 -322h-243l-97 179h-8l-174 -179h-268l328 322h272zM1047 1607l265 285h286l-297 -285h-254z" />
    <glyph glyph-name="acircumflextilde.1" horiz-adv-x="1283" 
d="M613 250c146 0 265 168 265 368c0 128 -71 213 -180 213c-149 0 -264 -162 -264 -367c0 -130 70 -214 179 -214zM1105 0h-342l34 160h-14c-78 -114 -193 -176 -330 -176c-230 0 -373 165 -373 427c0 397 232 694 544 694c161 0 286 -81 322 -204h16l40 188h335zM987 1537
l192 -307h-243l-100 167h-8l-171 -167h-268l326 307h272zM1035 1610c-144 0 -178 126 -257 126c-41 0 -74 -40 -90 -108h-184c35 172 143 281 278 281c142 0 177 -127 256 -127c42 0 73 40 91 112h184c-36 -173 -147 -284 -278 -284z" />
    <glyph glyph-name="acircumflexgrave.1" horiz-adv-x="1283" 
d="M613 250c146 0 265 168 265 368c0 128 -71 213 -180 213c-149 0 -264 -162 -264 -367c0 -130 70 -214 179 -214zM1105 0h-342l34 160h-14c-78 -114 -193 -176 -330 -176c-230 0 -373 165 -373 427c0 397 232 694 544 694c161 0 286 -81 322 -204h16l40 188h335z
M1366 1603h-230l-171 289h282zM990 1552l190 -322h-243l-97 179h-8l-174 -179h-268l328 322h272z" />
    <glyph glyph-name="acircumflexhookabove.1" horiz-adv-x="1283" 
d="M613 250c146 0 265 168 265 368c0 128 -71 213 -180 213c-149 0 -264 -162 -264 -367c0 -130 70 -214 179 -214zM1105 0h-342l34 160h-14c-78 -114 -193 -176 -330 -176c-230 0 -373 165 -373 427c0 397 232 694 544 694c161 0 286 -81 322 -204h16l40 188h335z
M1026 1791l35 161c41 13 94 22 137 22c133 0 223 -75 223 -186c0 -128 -99 -245 -248 -296l-74 128c73 29 117 73 117 118c0 42 -34 68 -90 68c-38 0 -71 -5 -100 -15zM990 1552l190 -322h-243l-97 179h-8l-174 -179h-268l328 322h272z" />
    <glyph glyph-name="abreve.1" horiz-adv-x="1283" 
d="M613 250c146 0 265 168 265 368c0 128 -71 213 -180 213c-149 0 -264 -162 -264 -367c0 -130 70 -214 179 -214zM1105 0h-342l34 160h-14c-78 -114 -193 -176 -330 -176c-230 0 -373 165 -373 427c0 397 232 694 544 694c161 0 286 -81 322 -204h16l40 188h335zM507 1572
h207c-2 -12 -4 -24 -4 -36c0 -79 51 -125 138 -125c98 0 177 61 201 161h213c-46 -200 -210 -329 -445 -329c-183 0 -316 111 -316 269c0 19 2 38 6 60z" />
    <glyph glyph-name="abreveacute.1" horiz-adv-x="1283" 
d="M613 250c146 0 265 168 265 368c0 128 -71 213 -180 213c-149 0 -264 -162 -264 -367c0 -130 70 -214 179 -214zM1105 0h-342l34 160h-14c-78 -114 -193 -176 -330 -176c-230 0 -373 165 -373 427c0 397 232 694 544 694c161 0 286 -81 322 -204h16l40 188h335zM739 1607
l265 285h286l-297 -285h-254zM1244 1556c-45 -185 -203 -329 -445 -329c-206 0 -317 114 -317 265c0 21 3 43 7 64h206c-3 -12 -5 -24 -5 -36c0 -76 48 -125 138 -125c103 0 178 65 202 161h214z" />
    <glyph glyph-name="abrevetilde.1" horiz-adv-x="1283" 
d="M613 250c146 0 265 168 265 368c0 128 -71 213 -180 213c-149 0 -264 -162 -264 -367c0 -130 70 -214 179 -214zM1105 0h-342l34 160h-14c-78 -114 -193 -176 -330 -176c-230 0 -373 165 -373 427c0 397 232 694 544 694c161 0 286 -81 322 -204h16l40 188h335z
M1244 1556c-45 -185 -203 -329 -445 -329c-206 0 -317 114 -317 265c0 21 3 43 7 64h206c-3 -12 -5 -24 -5 -36c0 -76 48 -125 138 -125c103 0 178 65 202 161h214zM1040 1610c-144 0 -178 126 -257 126c-41 0 -74 -40 -90 -108h-184c35 172 143 281 278 281
c143 0 177 -127 256 -127c42 0 73 40 91 112h184c-36 -173 -146 -284 -278 -284z" />
    <glyph glyph-name="abrevehookabove.1" horiz-adv-x="1283" 
d="M613 250c146 0 265 168 265 368c0 128 -71 213 -180 213c-149 0 -264 -162 -264 -367c0 -130 70 -214 179 -214zM1105 0h-342l34 160h-14c-78 -114 -193 -176 -330 -176c-230 0 -373 165 -373 427c0 397 232 694 544 694c161 0 286 -81 322 -204h16l40 188h335zM690 1810
l32 145c41 12 91 19 131 19c127 0 212 -68 212 -168c0 -104 -99 -217 -223 -260l-72 115c62 23 100 61 100 101c0 38 -32 61 -86 61c-33 0 -65 -4 -94 -13zM1244 1556c-45 -185 -203 -329 -445 -329c-206 0 -317 114 -317 265c0 21 3 43 7 64h206c-3 -12 -5 -24 -5 -36
c0 -76 48 -125 138 -125c103 0 178 65 202 161h214z" />
    <glyph glyph-name="abrevedotbelow.1" horiz-adv-x="1283" 
d="M613 250c146 0 265 168 265 368c0 128 -71 213 -180 213c-149 0 -264 -162 -264 -367c0 -130 70 -214 179 -214zM1105 0h-342l34 160h-14c-78 -114 -193 -176 -330 -176c-230 0 -373 165 -373 427c0 397 232 694 544 694c161 0 286 -81 322 -204h16l40 188h335zM507 1572
h207c-2 -12 -4 -24 -4 -36c0 -79 51 -125 138 -125c98 0 177 61 201 161h213c-46 -200 -210 -329 -445 -329c-183 0 -316 111 -316 269c0 19 2 38 6 60zM477 -470c-92 0 -164 73 -164 161c0 89 72 162 164 162s165 -73 165 -162c0 -88 -73 -161 -165 -161z" />
    <glyph glyph-name="ainvertedbreve.1" horiz-adv-x="1283" 
d="M613 250c146 0 265 168 265 368c0 128 -71 213 -180 213c-149 0 -264 -162 -264 -367c0 -130 70 -214 179 -214zM1105 0h-342l34 160h-14c-78 -114 -193 -176 -330 -176c-230 0 -373 165 -373 427c0 397 232 694 544 694c161 0 286 -81 322 -204h16l40 188h335z
M1172 1227h-207c2 12 4 24 4 36c0 79 -51 125 -138 125c-98 0 -177 -61 -201 -161h-213c46 200 210 329 445 329c183 0 316 -111 316 -269c0 -19 -3 -38 -6 -60z" />
    <glyph glyph-name="acaron.1" horiz-adv-x="1283" 
d="M613 250c146 0 265 168 265 368c0 128 -71 213 -180 213c-149 0 -264 -162 -264 -367c0 -130 70 -214 179 -214zM1105 0h-342l34 160h-14c-78 -114 -193 -176 -330 -176c-230 0 -373 165 -373 427c0 397 232 694 544 694c161 0 286 -81 322 -204h16l40 188h335zM950 1246
h-271l-190 327h244l97 -184h7l175 184h267z" />
    <glyph glyph-name="adotaccent.1" horiz-adv-x="1283" 
d="M613 250c146 0 265 168 265 368c0 128 -71 213 -180 213c-149 0 -264 -162 -264 -367c0 -130 70 -214 179 -214zM1105 0h-342l34 160h-14c-78 -114 -193 -176 -330 -176c-230 0 -373 165 -373 427c0 397 232 694 544 694c161 0 286 -81 322 -204h16l40 188h335zM834 1252
c-92 0 -164 73 -164 161c0 89 72 162 164 162c93 0 165 -73 165 -162c0 -88 -72 -161 -165 -161z" />
    <glyph glyph-name="adotbelow.1" horiz-adv-x="1283" 
d="M613 250c146 0 265 168 265 368c0 128 -71 213 -180 213c-149 0 -264 -162 -264 -367c0 -130 70 -214 179 -214zM1105 0h-342l34 160h-14c-78 -114 -193 -176 -330 -176c-230 0 -373 165 -373 427c0 397 232 694 544 694c161 0 286 -81 322 -204h16l40 188h335zM477 -470
c-92 0 -164 73 -164 161c0 89 72 162 164 162s165 -73 165 -162c0 -88 -73 -161 -165 -161z" />
    <glyph glyph-name="ahookabove.1" horiz-adv-x="1283" 
d="M613 250c146 0 265 168 265 368c0 128 -71 213 -180 213c-149 0 -264 -162 -264 -367c0 -130 70 -214 179 -214zM1105 0h-342l34 160h-14c-78 -114 -193 -176 -330 -176c-230 0 -373 165 -373 427c0 397 232 694 544 694c161 0 286 -81 322 -204h16l40 188h335zM681 1500
l38 156c35 12 87 20 134 20c130 0 221 -76 221 -186c0 -124 -96 -239 -240 -288l-75 127c74 28 111 68 111 116c0 42 -36 71 -91 71c-36 0 -71 -5 -98 -16z" />
    <glyph glyph-name="adblgrave.1" horiz-adv-x="1283" 
d="M613 250c146 0 265 168 265 368c0 128 -71 213 -180 213c-149 0 -264 -162 -264 -367c0 -130 70 -214 179 -214zM1105 0h-342l34 160h-14c-78 -114 -193 -176 -330 -176c-230 0 -373 165 -373 427c0 397 232 694 544 694c161 0 286 -81 322 -204h16l40 188h335zM776 1261
h-244l-204 315h277zM1175 1261h-244l-203 315h276z" />
    <glyph glyph-name="amacron.1" horiz-adv-x="1283" 
d="M613 250c146 0 265 168 265 368c0 128 -71 213 -180 213c-149 0 -264 -162 -264 -367c0 -130 70 -214 179 -214zM1105 0h-342l34 160h-14c-78 -114 -193 -176 -330 -176c-230 0 -373 165 -373 427c0 397 232 694 544 694c161 0 286 -81 322 -204h16l40 188h335z
M1196 1443l-35 -165h-673l35 165h673z" />
    <glyph glyph-name="aogonek.1" horiz-adv-x="1283" 
d="M613 250c146 0 265 168 265 368c0 128 -71 213 -180 213c-149 0 -264 -162 -264 -367c0 -130 70 -214 179 -214zM966 -444c-30 -14 -86 -25 -161 -25c-149 0 -241 80 -241 189c0 110 84 196 195 262l38 178h-14c-78 -114 -193 -176 -330 -176c-230 0 -373 165 -373 427
c0 397 232 694 544 694c161 0 286 -81 322 -204h16l40 188h335l-231 -1083l-31 -9c-130 -37 -248 -130 -248 -204c0 -45 46 -73 103 -73c30 0 58 5 73 10z" />
    <glyph glyph-name="b" unicode="b" horiz-adv-x="1280" 
d="M731 -16c-162 0 -294 87 -334 217h-7l-43 -201h-334l308 1443h344l-111 -513h9c65 109 188 175 329 175c228 0 372 -161 372 -427c0 -386 -222 -694 -533 -694zM647 258c150 0 262 165 262 368c0 131 -68 214 -178 214c-147 0 -266 -172 -266 -372
c0 -125 72 -210 182 -210z" />
    <glyph glyph-name="blinebelow" unicode="&#x1e07;" horiz-adv-x="1280" 
d="M731 -16c-162 0 -294 87 -334 217h-7l-43 -201h-334l308 1443h344l-111 -513h9c65 109 188 175 329 175c228 0 372 -161 372 -427c0 -386 -222 -694 -533 -694zM647 258c150 0 262 165 262 368c0 131 -68 214 -178 214c-147 0 -266 -172 -266 -372
c0 -125 72 -210 182 -210zM823 -221l-35 -165h-721l35 165h721z" />
    <glyph glyph-name="bdotbelow" unicode="&#x1e05;" horiz-adv-x="1280" 
d="M731 -16c-162 0 -294 87 -334 217h-7l-43 -201h-334l308 1443h344l-111 -513h9c65 109 188 175 329 175c228 0 372 -161 372 -427c0 -386 -222 -694 -533 -694zM647 258c150 0 262 165 262 368c0 131 -68 214 -178 214c-147 0 -266 -172 -266 -372
c0 -125 72 -210 182 -210zM444 -465c-92 0 -164 73 -164 161c0 89 72 162 164 162s165 -73 165 -162c0 -88 -73 -161 -165 -161z" />
    <glyph glyph-name="bdotaccent" unicode="&#x1e03;" horiz-adv-x="1280" 
d="M731 -16c-162 0 -294 87 -334 217h-7l-43 -201h-334l308 1443h344l-111 -513h9c65 109 188 175 329 175c228 0 372 -161 372 -427c0 -386 -222 -694 -533 -694zM647 258c150 0 262 165 262 368c0 131 -68 214 -178 214c-147 0 -266 -172 -266 -372
c0 -125 72 -210 182 -210zM564 1605c-92 0 -164 73 -164 161c0 89 72 162 164 162s165 -73 165 -162c0 -88 -73 -161 -165 -161z" />
    <glyph glyph-name="c" unicode="c" horiz-adv-x="1160" 
d="M692 1115c283 0 477 -176 477 -400v-43h-329c-1 98 -62 166 -164 166c-144 0 -244 -155 -244 -380c0 -126 65 -207 165 -207c98 0 169 62 196 164h329c-37 -261 -254 -441 -539 -441c-306 0 -495 187 -495 470c0 406 235 671 604 671z" />
    <glyph glyph-name="cacute" unicode="&#x107;" horiz-adv-x="1160" 
d="M692 1115c283 0 477 -176 477 -400v-43h-329c-1 98 -62 166 -164 166c-144 0 -244 -155 -244 -380c0 -126 65 -207 165 -207c98 0 169 62 196 164h329c-37 -261 -254 -441 -539 -441c-306 0 -495 187 -495 470c0 406 235 671 604 671zM928 1260h-277l293 316h312z" />
    <glyph glyph-name="ccaron" unicode="&#x10d;" horiz-adv-x="1160" 
d="M692 1115c283 0 477 -176 477 -400v-43h-329c-1 98 -62 166 -164 166c-144 0 -244 -155 -244 -380c0 -126 65 -207 165 -207c98 0 169 62 196 164h329c-37 -261 -254 -441 -539 -441c-306 0 -495 187 -495 470c0 406 235 671 604 671zM885 1246h-271l-190 327h244
l97 -184h7l175 184h267z" />
    <glyph glyph-name="ccircumflex" unicode="&#x109;" horiz-adv-x="1160" 
d="M692 1115c283 0 477 -176 477 -400v-43h-329c-1 98 -62 166 -164 166c-144 0 -244 -155 -244 -380c0 -126 65 -207 165 -207c98 0 169 62 196 164h329c-37 -261 -254 -441 -539 -441c-306 0 -495 187 -495 470c0 406 235 671 604 671zM953 1573l189 -327h-245l-97 183h-7
l-175 -183h-266l329 327h272z" />
    <glyph glyph-name="cdotaccent" unicode="&#x10b;" horiz-adv-x="1160" 
d="M692 1115c283 0 477 -176 477 -400v-43h-329c-1 98 -62 166 -164 166c-144 0 -244 -155 -244 -380c0 -126 65 -207 165 -207c98 0 169 62 196 164h329c-37 -261 -254 -441 -539 -441c-306 0 -495 187 -495 470c0 406 235 671 604 671zM769 1252c-92 0 -164 73 -164 161
c0 89 72 162 164 162c93 0 165 -73 165 -162c0 -88 -72 -161 -165 -161z" />
    <glyph glyph-name="ccedilla" unicode="&#xe7;" horiz-adv-x="1160" 
d="M1169 672h-329c-1 98 -62 166 -164 166c-144 0 -244 -155 -244 -380c0 -126 65 -207 165 -207c98 0 169 62 196 164h329c-34 -240 -220 -411 -470 -437l-50 -69c97 -9 150 -62 150 -148c0 -132 -129 -227 -309 -227c-59 0 -118 7 -147 18l32 150c30 -9 75 -15 117 -15
c75 0 115 18 115 52c0 33 -32 45 -121 45h-58l26 113l63 86c-239 41 -382 215 -382 461c0 406 235 671 604 671c283 0 477 -176 477 -400v-43z" />
    <glyph glyph-name="ccedillaacute" unicode="&#x1e09;" horiz-adv-x="1160" 
d="M1256 1576l-328 -316h-277l293 316h312zM407 -103l63 86c-239 41 -382 215 -382 461c0 406 235 671 604 671c283 0 477 -176 477 -400v-43h-329c-1 98 -62 166 -164 166c-144 0 -244 -155 -244 -380c0 -126 65 -207 165 -207c98 0 169 62 196 164h329
c-34 -240 -220 -411 -470 -437l-50 -69c97 -9 150 -62 150 -148c0 -132 -129 -227 -309 -227c-59 0 -118 7 -147 18l32 150c30 -9 75 -15 117 -15c75 0 115 18 115 52c0 33 -32 45 -121 45h-58z" />
    <glyph glyph-name="d" unicode="d" horiz-adv-x="1282" 
d="M454 -16c-229 0 -372 164 -372 425c0 399 233 696 545 696c161 0 280 -78 316 -202h8l115 540h344l-307 -1443h-337l34 158h-7c-77 -113 -193 -174 -339 -174zM614 250c146 0 267 168 267 371c0 125 -71 210 -180 210c-148 0 -265 -159 -265 -368
c0 -129 70 -213 178 -213z" />
    <glyph glyph-name="ddotaccent" unicode="&#x1e0b;" horiz-adv-x="1282" 
d="M454 -16c-229 0 -372 164 -372 425c0 399 233 696 545 696c161 0 280 -78 316 -202h8l115 540h344l-307 -1443h-337l34 158h-7c-77 -113 -193 -174 -339 -174zM614 250c146 0 267 168 267 371c0 125 -71 210 -180 210c-148 0 -265 -159 -265 -368
c0 -129 70 -213 178 -213zM1311 1605c-92 0 -164 73 -164 161c0 89 72 162 164 162s165 -73 165 -162c0 -88 -73 -161 -165 -161z" />
    <glyph glyph-name="dcircumflexbelow" unicode="&#x1e13;" horiz-adv-x="1282" 
d="M454 -16c-229 0 -372 164 -372 425c0 399 233 696 545 696c161 0 280 -78 316 -202h8l115 540h344l-307 -1443h-337l34 158h-7c-77 -113 -193 -174 -339 -174zM614 250c146 0 267 168 267 371c0 125 -71 210 -180 210c-148 0 -265 -159 -265 -368
c0 -129 70 -213 178 -213zM742 -165l192 -327h-247l-103 192h-8l-184 -192h-253l331 327h272z" />
    <glyph glyph-name="dcommaaccent" unicode="&#x1e11;" horiz-adv-x="1282" 
d="M454 -16c-229 0 -372 164 -372 425c0 399 233 696 545 696c161 0 280 -78 316 -202h8l115 540h344l-307 -1443h-337l34 158h-7c-77 -113 -193 -174 -339 -174zM614 250c146 0 267 168 267 371c0 125 -71 210 -180 210c-148 0 -265 -159 -265 -368
c0 -129 70 -213 178 -213zM481 -475h-267l211 330h313z" />
    <glyph glyph-name="dlinebelow" unicode="&#x1e0f;" horiz-adv-x="1282" 
d="M454 -16c-229 0 -372 164 -372 425c0 399 233 696 545 696c161 0 280 -78 316 -202h8l115 540h344l-307 -1443h-337l34 158h-7c-77 -113 -193 -174 -339 -174zM614 250c146 0 267 168 267 371c0 125 -71 210 -180 210c-148 0 -265 -159 -265 -368
c0 -129 70 -213 178 -213zM957 -226l-35 -165h-721l35 165h721z" />
    <glyph glyph-name="dcaron" unicode="&#x10f;" horiz-adv-x="1584" 
d="M1522 1443h286l-158 -511h-236zM454 -16c-229 0 -372 164 -372 425c0 399 233 696 545 696c161 0 280 -78 316 -202h8l115 540h344l-307 -1443h-337l34 158h-7c-77 -113 -193 -174 -339 -174zM614 250c146 0 267 168 267 371c0 125 -71 210 -180 210
c-148 0 -265 -159 -265 -368c0 -129 70 -213 178 -213z" />
    <glyph glyph-name="ddotbelow" unicode="&#x1e0d;" horiz-adv-x="1282" 
d="M454 -16c-229 0 -372 164 -372 425c0 399 233 696 545 696c161 0 280 -78 316 -202h8l115 540h344l-307 -1443h-337l34 158h-7c-77 -113 -193 -174 -339 -174zM614 250c146 0 267 168 267 371c0 125 -71 210 -180 210c-148 0 -265 -159 -265 -368
c0 -129 70 -213 178 -213zM578 -470c-92 0 -164 73 -164 161c0 89 72 162 164 162s165 -73 165 -162c0 -88 -73 -161 -165 -161z" />
    <glyph glyph-name="dcroat" unicode="&#x111;" horiz-adv-x="1282" 
d="M614 250c146 0 267 168 267 371c0 125 -71 210 -180 210c-148 0 -265 -159 -265 -368c0 -129 70 -213 178 -213zM1487 1354l-37 -178h-97l-250 -1176h-337l34 158h-7c-77 -113 -193 -174 -339 -174c-229 0 -372 164 -372 425c0 399 233 696 545 696
c161 0 280 -78 316 -202h8l58 273h-226l38 178h226l19 89h344l-19 -89h96z" />
    <glyph glyph-name="e" unicode="e" horiz-adv-x="1193" 
d="M436 667h417c2 6 3 20 3 31c0 95 -67 171 -181 171c-117 0 -209 -84 -239 -202zM589 -25c-308 0 -499 188 -499 494c0 369 241 646 599 646c288 0 483 -184 483 -468c0 -56 -5 -125 -17 -178h-751c-2 -11 -3 -22 -3 -33c0 -123 77 -212 204 -212c100 0 174 51 200 127
h321c-56 -223 -259 -376 -537 -376z" />
    <glyph glyph-name="egrave" unicode="&#xe8;" horiz-adv-x="1193" 
d="M436 667h417c2 6 3 20 3 31c0 95 -67 171 -181 171c-117 0 -209 -84 -239 -202zM589 -25c-308 0 -499 188 -499 494c0 369 241 646 599 646c288 0 483 -184 483 -468c0 -56 -5 -125 -17 -178h-751c-2 -11 -3 -22 -3 -33c0 -123 77 -212 204 -212c100 0 174 51 200 127
h321c-56 -223 -259 -376 -537 -376zM844 1259h-273l-193 316h307z" />
    <glyph glyph-name="edblgrave" unicode="&#x205;" horiz-adv-x="1193" 
d="M436 667h417c2 6 3 20 3 31c0 95 -67 171 -181 171c-117 0 -209 -84 -239 -202zM589 -25c-308 0 -499 188 -499 494c0 369 241 646 599 646c288 0 483 -184 483 -468c0 -56 -5 -125 -17 -178h-751c-2 -11 -3 -22 -3 -33c0 -123 77 -212 204 -212c100 0 174 51 200 127
h321c-56 -223 -259 -376 -537 -376zM696 1260h-244l-204 315h277zM1095 1260h-244l-203 315h276z" />
    <glyph glyph-name="eacute" unicode="&#xe9;" horiz-adv-x="1193" 
d="M436 667h417c2 6 3 20 3 31c0 95 -67 171 -181 171c-117 0 -209 -84 -239 -202zM589 -25c-308 0 -499 188 -499 494c0 369 241 646 599 646c288 0 483 -184 483 -468c0 -56 -5 -125 -17 -178h-751c-2 -11 -3 -22 -3 -33c0 -123 77 -212 204 -212c100 0 174 51 200 127
h321c-56 -223 -259 -376 -537 -376zM913 1259h-277l293 316h312z" />
    <glyph glyph-name="ecircumflex" unicode="&#xea;" horiz-adv-x="1193" 
d="M436 667h417c2 6 3 20 3 31c0 95 -67 171 -181 171c-117 0 -209 -84 -239 -202zM589 -25c-308 0 -499 188 -499 494c0 369 241 646 599 646c288 0 483 -184 483 -468c0 -56 -5 -125 -17 -178h-751c-2 -11 -3 -22 -3 -33c0 -123 77 -212 204 -212c100 0 174 51 200 127
h321c-56 -223 -259 -376 -537 -376zM938 1572l189 -327h-245l-97 183h-7l-175 -183h-266l329 327h272z" />
    <glyph glyph-name="ecircumflexhookabove" unicode="&#x1ec3;" horiz-adv-x="1193" 
d="M436 667h417c2 6 3 20 3 31c0 95 -67 171 -181 171c-117 0 -209 -84 -239 -202zM589 -25c-308 0 -499 188 -499 494c0 369 241 646 599 646c288 0 483 -184 483 -468c0 -56 -5 -125 -17 -178h-751c-2 -11 -3 -22 -3 -33c0 -123 77 -212 204 -212c100 0 174 51 200 127
h321c-56 -223 -259 -376 -537 -376zM946 1791l35 161c41 13 94 22 137 22c133 0 223 -75 223 -186c0 -128 -99 -245 -248 -296l-74 128c73 29 117 73 117 118c0 42 -34 68 -90 68c-38 0 -71 -5 -100 -15zM910 1552l190 -322h-243l-97 179h-8l-174 -179h-268l328 322h272z
" />
    <glyph glyph-name="ecircumflexgrave" unicode="&#x1ec1;" horiz-adv-x="1193" 
d="M436 667h417c2 6 3 20 3 31c0 95 -67 171 -181 171c-117 0 -209 -84 -239 -202zM589 -25c-308 0 -499 188 -499 494c0 369 241 646 599 646c288 0 483 -184 483 -468c0 -56 -5 -125 -17 -178h-751c-2 -11 -3 -22 -3 -33c0 -123 77 -212 204 -212c100 0 174 51 200 127
h321c-56 -223 -259 -376 -537 -376zM1286 1603h-230l-171 289h282zM910 1552l190 -322h-243l-97 179h-8l-174 -179h-268l328 322h272z" />
    <glyph glyph-name="ecircumflextilde" unicode="&#x1ec5;" horiz-adv-x="1193" 
d="M436 667h417c2 6 3 20 3 31c0 95 -67 171 -181 171c-117 0 -209 -84 -239 -202zM589 -25c-308 0 -499 188 -499 494c0 369 241 646 599 646c288 0 483 -184 483 -468c0 -56 -5 -125 -17 -178h-751c-2 -11 -3 -22 -3 -33c0 -123 77 -212 204 -212c100 0 174 51 200 127
h321c-56 -223 -259 -376 -537 -376zM907 1537l192 -307h-243l-100 167h-8l-171 -167h-268l326 307h272zM955 1610c-144 0 -178 126 -257 126c-41 0 -74 -40 -90 -108h-184c35 172 143 281 278 281c142 0 177 -127 256 -127c42 0 73 40 91 112h184
c-36 -173 -147 -284 -278 -284z" />
    <glyph glyph-name="ecircumflexdotbelow" unicode="&#x1ec7;" horiz-adv-x="1193" 
d="M436 667h417c2 6 3 20 3 31c0 95 -67 171 -181 171c-117 0 -209 -84 -239 -202zM589 -25c-308 0 -499 188 -499 494c0 369 241 646 599 646c288 0 483 -184 483 -468c0 -56 -5 -125 -17 -178h-751c-2 -11 -3 -22 -3 -33c0 -123 77 -212 204 -212c100 0 174 51 200 127
h321c-56 -223 -259 -376 -537 -376zM938 1572l189 -327h-245l-97 183h-7l-175 -183h-266l329 327h272zM527 -470c-92 0 -164 73 -164 161c0 89 72 162 164 162s165 -73 165 -162c0 -88 -73 -161 -165 -161z" />
    <glyph glyph-name="ecircumflexacute" unicode="&#x1ebf;" horiz-adv-x="1193" 
d="M436 667h417c2 6 3 20 3 31c0 95 -67 171 -181 171c-117 0 -209 -84 -239 -202zM589 -25c-308 0 -499 188 -499 494c0 369 241 646 599 646c288 0 483 -184 483 -468c0 -56 -5 -125 -17 -178h-751c-2 -11 -3 -22 -3 -33c0 -123 77 -212 204 -212c100 0 174 51 200 127
h321c-56 -223 -259 -376 -537 -376zM910 1552l190 -322h-243l-97 179h-8l-174 -179h-268l328 322h272zM967 1607l265 285h286l-297 -285h-254z" />
    <glyph glyph-name="edieresis" unicode="&#xeb;" horiz-adv-x="1193" 
d="M436 667h417c2 6 3 20 3 31c0 95 -67 171 -181 171c-117 0 -209 -84 -239 -202zM589 -25c-308 0 -499 188 -499 494c0 369 241 646 599 646c288 0 483 -184 483 -468c0 -56 -5 -125 -17 -178h-751c-2 -11 -3 -22 -3 -33c0 -123 77 -212 204 -212c100 0 174 51 200 127
h321c-56 -223 -259 -376 -537 -376zM558 1246c-80 0 -140 59 -140 133s60 134 140 134c79 0 139 -60 139 -134s-60 -133 -139 -133zM965 1246c-80 0 -140 59 -140 133s60 134 140 134s140 -60 140 -134s-60 -133 -140 -133z" />
    <glyph glyph-name="edotbelow" unicode="&#x1eb9;" horiz-adv-x="1193" 
d="M436 667h417c2 6 3 20 3 31c0 95 -67 171 -181 171c-117 0 -209 -84 -239 -202zM589 -25c-308 0 -499 188 -499 494c0 369 241 646 599 646c288 0 483 -184 483 -468c0 -56 -5 -125 -17 -178h-751c-2 -11 -3 -22 -3 -33c0 -123 77 -212 204 -212c100 0 174 51 200 127
h321c-56 -223 -259 -376 -537 -376zM527 -470c-92 0 -164 73 -164 161c0 89 72 162 164 162s165 -73 165 -162c0 -88 -73 -161 -165 -161z" />
    <glyph glyph-name="einvertedbreve" unicode="&#x207;" horiz-adv-x="1193" 
d="M436 667h417c2 6 3 20 3 31c0 95 -67 171 -181 171c-117 0 -209 -84 -239 -202zM589 -25c-308 0 -499 188 -499 494c0 369 241 646 599 646c288 0 483 -184 483 -468c0 -56 -5 -125 -17 -178h-751c-2 -11 -3 -22 -3 -33c0 -123 77 -212 204 -212c100 0 174 51 200 127
h321c-56 -223 -259 -376 -537 -376zM1092 1227h-207c2 12 4 24 4 36c0 79 -51 125 -138 125c-98 0 -177 -61 -201 -161h-213c46 200 210 329 445 329c183 0 316 -111 316 -269c0 -19 -3 -38 -6 -60z" />
    <glyph glyph-name="ehookabove" unicode="&#x1ebb;" horiz-adv-x="1193" 
d="M436 667h417c2 6 3 20 3 31c0 95 -67 171 -181 171c-117 0 -209 -84 -239 -202zM589 -25c-308 0 -499 188 -499 494c0 369 241 646 599 646c288 0 483 -184 483 -468c0 -56 -5 -125 -17 -178h-751c-2 -11 -3 -22 -3 -33c0 -123 77 -212 204 -212c100 0 174 51 200 127
h321c-56 -223 -259 -376 -537 -376zM601 1500l38 156c35 12 87 20 134 20c130 0 221 -76 221 -186c0 -124 -96 -239 -240 -288l-75 127c74 28 111 68 111 116c0 42 -36 71 -91 71c-36 0 -71 -5 -98 -16z" />
    <glyph glyph-name="ecaron" unicode="&#x11b;" horiz-adv-x="1193" 
d="M436 667h417c2 6 3 20 3 31c0 95 -67 171 -181 171c-117 0 -209 -84 -239 -202zM589 -25c-308 0 -499 188 -499 494c0 369 241 646 599 646c288 0 483 -184 483 -468c0 -56 -5 -125 -17 -178h-751c-2 -11 -3 -22 -3 -33c0 -123 77 -212 204 -212c100 0 174 51 200 127
h321c-56 -223 -259 -376 -537 -376zM870 1245h-271l-190 327h244l97 -184h7l175 184h267z" />
    <glyph glyph-name="emacron" unicode="&#x113;" horiz-adv-x="1193" 
d="M436 667h417c2 6 3 20 3 31c0 95 -67 171 -181 171c-117 0 -209 -84 -239 -202zM589 -25c-308 0 -499 188 -499 494c0 369 241 646 599 646c288 0 483 -184 483 -468c0 -56 -5 -125 -17 -178h-751c-2 -11 -3 -22 -3 -33c0 -123 77 -212 204 -212c100 0 174 51 200 127
h321c-56 -223 -259 -376 -537 -376zM1116 1442l-35 -165h-673l35 165h673z" />
    </font>
</defs>
</svg>
